<?xml version="1.0" standalone="no"?>
<!DOCTYPE svg PUBLIC "-//W3C//DTD SVG 1.1//EN" "http://www.w3.org/Graphics/SVG/1.1/DTD/svg11.dtd" >
<svg xmlns="http://www.w3.org/2000/svg">
<metadata>Generated by IcoMoon</metadata>
<defs>
<font id="zanata: 2014" horiz-adv-x="1024">
<font-face units-per-em="1024" ascent="960" descent="-64" />
<missing-glyph horiz-adv-x="1024" />
<glyph unicode="&#x20;" d="" horiz-adv-x="512" />
<glyph unicode="&#xe000;" d="M512 810.667q69.667 0 135.5-21.167t115.5-55 93.5-74.833 73.667-82 51.667-74.833 32.167-54.833l10-21.333q-2.333-5-6.333-13.5t-18.833-34.667-31.667-51.667-44.333-60-56.833-64.333-69.5-60.167-82.333-51.5-94.833-34.667-107.333-13.5q-69.667 0-135.5 21.167t-115.5 54.833-93.5 74.333-73.667 81.5-51.667 74.5-32.167 55l-10 21q2.333 5 6.333 13.5t18.833 34.833 31.667 51.833 44.333 60.333 56.833 64.667 69.5 60.333 82.333 51.833 94.833 34.833 107.333 13.5zM512 725.334q-46.667 0-91.667-12.333t-81.167-31.833-70.667-47.167-59.667-54.5-48.833-57.667-37.667-52.833-26.333-44q12.333-21.667 26.333-43.5t37.667-52.333 48.833-57 59.667-53.833 70.667-46.667 81.167-31.5 91.667-12.167 91.667 12.333 81.167 31.667 70.667 46.833 59.667 54.167 48.833 57.333 37.667 52.667 26.333 43.667q-12.333 21.667-26.333 43.667t-37.667 52.667-48.833 57.333-59.667 54.167-70.667 46.833-81.167 31.667-91.667 12.333zM512 597.334q70.667 0 120.667-50t50-120.667-50-120.667-120.667-50-120.667 50-50 120.667 50 120.667 120.667 50zM512 512q-35.333 0-60.333-25t-25-60.333 25-60.333 60.333-25 60.333 25 25 60.333-25 60.333-60.333 25z" />
<glyph unicode="&#xe001;" d="M674 938.667q41.667 0 80-15.667 40-16 70.667-46.667 31-31.333 46.667-70.333 15.333-37.667 15.333-80t-15.333-80q-15.667-39-46.667-70.333l-392.667-392.667q-18-18-42.667-28.333-24-9.333-48-9.333t-48 9.333q-24.667 10.333-42.667 28.333-18.667 18.667-28 42.333-9.333 22.667-9.333 48 0 25.667 9.333 48.333 9.333 23.333 28 42.333l362.333 362q12.667 12.667 30.333 12.667 17.333 0 30-12.667t12.667-30q0-17.667-12.667-30.333l-362.333-362q-12.333-12.333-12.333-30.333 0-17.667 12.333-30 13.333-12.667 30.333-12.667t30.333 12.667l392.667 392.667q37 37 37 90t-37 90q-38 37.333-90.333 37.333-52.667 0-90-37.333l-393.667-391.667q-30.667-30.667-46.667-70.667-15.667-38.333-15.667-80.333 0-41.333 15.667-80.333 16-39.667 46.667-70.333 31.667-31.333 70.667-47t80.333-15.667 80.333 15.667 70.667 47l392 392q12.667 12.667 30.333 12.667 17.333 0 30-12.667t12.667-30q0-17.667-12.667-30.333l-392-392q-43-43-99-65.667-53.333-22-112.333-22-58.667 0-112.333 22-56 22.667-99 65.667-42.667 42.667-65.333 98.667-22 54-22 112.333 0 58.667 22 112.333 22.333 55.333 65.333 99h0.333l393.333 391.667q30.667 30.667 70.333 46.667 39 15.667 80 15.667z" />
<glyph unicode="&#xe002;" d="M170.667 810.667h682.667q53 0 90.5-37.5t37.5-90.5v-512q0-53-37.5-90.5t-90.5-37.5h-682.667q-53 0-90.5 37.5t-37.5 90.5v512q0 53 37.5 90.5t90.5 37.5zM896 170.667v466l-357.333-286q-11.333-9.333-26.667-9.333t-26.667 9.333l-357.333 286v-466q0-17.667 12.5-30.167t30.167-12.5h682.667q17.667 0 30.167 12.5t12.5 30.167zM853.333 725.334h-682.667q-6.333 0-14-2.333l355.333-284.333 355.333 284.333q-7.667 2.333-14 2.333z" />
<glyph unicode="&#xe005;" d="M725.333 896q50.333 0 97.167-19t83.833-56 56-83.833 19-97.167q0-50-19.167-97.167t-55.833-83.833l-128-128q-3.667-3.667-11-10.333-35.667-31.667-79.667-48.167t-90.333-16.5q-58.333 0-110.333 25-39 18.333-70.667 50t-50 70.667q25 25 60.333 25 12.333 0 25-3.667 21.667-35 56.667-56.667 41-25 89-25 33.333 0 64.667 12.667t56 37.333l128 128q24.667 24.667 37.333 56t12.667 64.667-12.667 64.667-37.333 56-56 37.333-64.667 12.667-64.667-12.667-56-37.333l-89.667-89.667q-42.667 11.667-88.333 11.667-7.333 0-20.667-0.667 6.667 7.333 10.333 11l128 128q36.667 36.667 83.833 55.833t97.167 19.167zM426.667 597.334q58.333 0 110.333-25 39-18.333 70.667-50t50-70.667q-25-25-60.333-25-12.333 0-25 3.667-21.667 35-56.667 56.667-41 25-89 25-33.333 0-64.667-12.667t-56-37.333l-128-128q-24.667-24.667-37.333-56t-12.667-64.667 12.667-64.667 37.333-56 56-37.333 64.667-12.667 64.667 12.667 56 37.333l89.667 89.667q42.667-11.667 88.333-11.667 7.333 0 20.667 0.667-6.667-7.333-10.333-11l-128-128q-37-37-83.833-56t-97.167-19q-50 0-97.167 19.167t-83.833 55.833q-37 37-56 83.833t-19 97.167 19 97.167 56 83.833l128 128q3.667 3.667 11 10.333 35.667 31.667 79.667 48.167t90.333 16.5z" />
<glyph unicode="&#xe006;" d="M512 896q55 0 104-17.833t87-49.167 68.333-74.5 50.5-93.333 31.5-106.5q33.667-169 71.5-267.167t99.167-159.5h-391.333q7.333-21 7.333-42.667 0-53-37.5-90.5t-90.5-37.5-90.5 37.5-37.5 90.5q0 21.667 7.333 42.667h-391.333q61.333 61.333 99.167 159.5t71.5 267.167q11.333 56.333 31.5 106.5t50.5 93.333 68.333 74.5 87 49.167 104 17.833zM512 128q-17.667 0-30.167-12.5t-12.5-30.167 12.5-30.167 30.167-12.5 30.167 12.5 12.5 30.167-12.5 30.167-30.167 12.5zM512 810.667q-38.667 0-72.833-12t-58.5-30.667-45.167-44.833-33.833-50.833-23.5-52.667-15.5-46.167-8.333-35.5q-42.667-215-94-324.667h703.333q-51.333 109.667-94 324.667-3.333 17.333-8.333 35.5t-15.5 46.167-23.5 52.667-33.833 50.833-45.167 44.833-58.5 30.667-72.833 12z" />
<glyph unicode="&#xe007;" d="M512 896q69.667 0 128.5-34.333t93.167-93.167 34.333-128.5v-170.667h85.333q53 0 90.5-37.5t37.5-90.5v-256q0-53-37.5-90.5t-90.5-37.5h-682.667q-53 0-90.5 37.5t-37.5 90.5v256q0 53 37.5 90.5t90.5 37.5h85.333v170.667q0 69.667 34.333 128.5t93.167 93.167 128.5 34.333zM853.333 384h-682.667q-17.667 0-30.167-12.5t-12.5-30.167v-256q0-17.667 12.5-30.167t30.167-12.5h682.667q17.667 0 30.167 12.5t12.5 30.167v256q0 17.667-12.5 30.167t-30.167 12.5zM512 810.667q-70.667 0-120.667-50t-50-120.667v-170.667h341.333v170.667q0 70.667-50 120.667t-120.667 50z" />
<glyph unicode="&#xe008;" d="M512 896q69.667 0 128.5-34.333t93.167-93.167 34.333-128.5v-42.667q0-17.667-12.5-30.167t-30.167-12.5-30.167 12.5-12.5 30.167v42.667q0 70.667-50 120.667t-120.667 50-120.667-50-50-120.667v-170.667h512q53 0 90.5-37.5t37.5-90.5v-256q0-53-37.5-90.5t-90.5-37.5h-682.667q-53 0-90.5 37.5t-37.5 90.5v256q0 53 37.5 90.5t90.5 37.5h85.333v170.667q0 69.667 34.333 128.5t93.167 93.167 128.5 34.333zM853.333 384h-682.667q-17.667 0-30.167-12.5t-12.5-30.167v-256q0-17.667 12.5-30.167t30.167-12.5h682.667q17.667 0 30.167 12.5t12.5 30.167v256q0 17.667-12.5 30.167t-30.167 12.5z" />
<glyph unicode="&#xe013;" d="M426.667 896h170.667q41.333 0 74.333-23.833t46.333-61.5h50q53 0 90.5-37.5t37.5-90.5v-597.333q0-53-37.5-90.5t-90.5-37.5h-512q-53 0-90.5 37.5t-37.5 90.5v597.333q0 53 37.5 90.5t90.5 37.5h50q13.333 37.667 46.333 61.5t74.333 23.833zM768 725.334h-50q-13.333-37.667-46.333-61.5t-74.333-23.833h-170.667q-41.333 0-74.333 23.833t-46.333 61.5h-50q-17.667 0-30.167-12.5t-12.5-30.167v-597.333q0-17.667 12.5-30.167t30.167-12.5h512q17.667 0 30.167 12.5t12.5 30.167v597.333q0 17.667-12.5 30.167t-30.167 12.5zM597.333 810.667h-170.667q-17.667 0-30.167-12.5t-12.5-30.167 12.5-30.167 30.167-12.5h170.667q17.667 0 30.167 12.5t12.5 30.167-12.5 30.167-30.167 12.5z" />
<glyph unicode="&#xe014;" d="M512 896q95.667 0 182.5-37.167t149.667-100 100-149.667 37.167-182.5-37.167-182.5-100-149.667-149.667-100-182.5-37.167-182.5 37.167-149.667 100-100 149.667-37.167 182.5 37.167 182.5 100 149.667 149.667 100 182.5 37.167zM512 810.667q-78 0-149.167-30.5t-122.5-81.833-81.833-122.5-30.5-149.167 30.5-149.167 81.833-122.5 122.5-81.833 149.167-30.5 149.167 30.5 122.5 81.833 81.833 122.5 30.5 149.167-30.5 149.167-81.833 122.5-122.5 81.833-149.167 30.5zM512 725.334q17.667 0 30.167-12.5t12.5-30.167v-238.333l115.667-115.333q12.333-12.333 12.333-30.333t-12.333-30.333-30.333-12.333-30.333 12.333l-128 128q-12.333 12.333-12.333 30.333v256q0 17.667 12.5 30.167t30.167 12.5z" />
<glyph unicode="&#xe01c;" d="M160.461 607.232c47.821 37.12 87.45 11.571 140.339-49.664 5.99-6.861 13.978 1.178 18.483 5.12 4.506 3.994 74.342 66.765 77.722 69.683 3.43 3.021 7.526 8.653 2.099 14.95s-25.293 32-38.042 48.64c-92.57 121.088 253.235 203.213 200.090 204.493-26.982 0.717-135.475 1.946-151.654 0.256-65.69-6.963-148.173-68.352-189.696-96.922-54.272-37.325-74.598-58.982-77.926-62.003-15.36-13.466-2.458-44.39-30.31-68.813-29.44-25.805-47.77-6.298-64.819-21.248-8.499-7.475-32.102-25.139-38.912-31.13-6.758-5.939-7.987-16.026-1.075-24.115 0 0 64.666-71.475 70.144-77.773 5.427-6.298 20.019-11.622 29.082-3.635 9.062 7.936 32.307 28.365 36.25 31.846 3.994 3.43-2.56 44.186 18.227 60.314zM452.762 580.813c-6.144 7.117-13.722 7.27-20.326 1.434l-73.472-64.051c-5.734-5.12-6.502-14.541-1.331-20.48l424.653-483.226c9.882-11.469 27.085-12.646 38.502-2.714l49.715 41.574c11.315 9.933 12.493 27.341 2.611 38.758l-420.352 488.704zM1018.982 786.483c-3.789 25.293-16.896 19.968-23.706 9.216-6.707-10.701-36.915-56.371-49.306-77.005-12.288-20.582-42.496-60.979-99.021-21.094-58.778 41.574-38.298 70.605-28.109 90.112 10.291 19.61 41.882 74.496 46.49 81.408 4.506 6.912-0.819 26.982-18.995 18.586-18.278-8.448-129.178-52.531-144.589-115.712-15.718-64.358 13.21-121.805-43.52-178.893l-68.71-71.68 69.018-80.282 84.685 80.435c20.224 20.275 63.283 39.987 102.298 31.13 83.61-18.944 129.178 12.493 156.723 64.358 24.678 46.438 20.582 144.128 16.742 169.421zM140.288 86.989c-10.65-10.752-10.65-28.16 0-38.861l48.691-47.616c10.65-10.701 27.546-6.195 38.195 4.506l251.238 247.040-77.005 87.706-261.12-252.774z" />
<glyph unicode="&#xe020;" d="M681.258 649.714q6.286 4 14.286 12.571v-0.571q0-1.142-5.429-5.714t-6.571-6.858q-0.571 0.571-2.286 0.571zM677.829 649.142q-0.571 0.571-1.429 1.714t-0.858 1.714q1.714-1.142 5.714-2.858-3.429-2.286-3.429-0.571zM415.542 753.714q-9.142 1.142-14.858 2.858 0.571 0 3.714-0.571t6-1.142 5.142-1.142zM441.258 774.858q4 2.286 7.714 1.429t4.286-4.286q-2.858 1.714-12 2.858zM436.685 771.429l-1.714 1.142q-1.142 1.714-3.142 2.858t-2.571 1.142q1.142-0.571 12-1.714-3.429-2.286-4.571-3.429zM378.4 819.429v1.142q0.571-1.142 1.714-3.142t1.714-3.142zM318.4 796.571q0-1.142-0.571-1.142l-0.571 1.142h1.142zM532.685 200v0zM438.4 886.858q119.429 0 220.286-58.858t159.714-159.714 58.858-220.286-58.858-220.286-159.714-159.714-220.286-58.858-220.286 58.858-159.714 159.714-58.858 220.286 58.858 220.286 159.714 159.714 220.286 58.858zM708.115 174.858l2.858 2.858q-4 5.714-16.571 6.858 0.571 6.858-8 15.142t-15.429 8.858q0 2.286-6 6.286t-10 4.571q-5.142 1.142-15.429-5.142-4-1.714-2.286-2.858-1.714 1.714-6.858 6.286t-9.142 6.286q-1.142 0.571-4.286 0.571t-4.858 1.142q-0.571 0.571-3.429 2.571t-4 2.571-3.714 1.714-4.286 0.858-4.286-1.429-4.858-3.429-2.571-8.858-1.429-8.286q-4.571 3.429-0.286 11.429t0.858 11.429q-4 4-12 0.286t-12-8.858q-0.571-0.571-5.429-3.142t-6.571-4.286q-2.286-3.429-5.142-10t-3.429-7.714q0 1.142-1.429 3.714t-1.429 3.714q-6.858-1.142-9.142 1.714 2.858-9.142 4.571-9.714l-2.286 1.142q-0.571-3.429 1.714-8.571t2.286-6.286q0.571-2.858-0.858-7.429t-1.429-6.286q0-1.142 2.858-6.286 2.286-10.858-1.142-18.286 0-0.571-2-4t-3.714-6.286l-1.142-2.858-1.142 0.571q-0.571 0.571-1.142 0-0.571-3.429-5.142-7.429t-5.714-6.286q-8.571-13.142-5.142-21.714 1.714-4.571 5.714-5.714 1.714-0.571 1.714 1.142 0.571-5.142-6.286-15.429 0.571-0.571 2.286-1.714-9.714 0-5.714-8 115.429 20.571 201.142 103.429h-1.714zM388.114 280.571q9.142 1.714 17.429-9.142t12.858-13.142q23.429-11.429 33.714-6.286 0-5.142 8-16 1.714-2.286 3.714-6.571t3.142-6q2.858-4 10.858-9.142t10.858-9.142q3.429 1.714 5.142 5.142 7.429-20 13.714-19.429 2.858 0 4.571 4.571 0-0.571-0.286-1.714t-0.858-1.714q4 8.571 2.858 14.858l3.429 2.286q2.858 2.286 2.858 2.858-3.429 3.429-5.142-1.714-17.142-8-27.429 12.571-1.142 1.714-2.571 4.571t-2.858 6.858-0.858 6.571 3.429 2.571q6.286 0 7.142 0.858t-1.429 3.429-2.286 4.286q-0.571 2.286-0.858 7.142t-0.858 7.142l-2.858 3.429q-2.858 3.429-6.571 7.714t-4.286 5.429q-2.286-5.714-9.429-4.858t-10.571 5.429q0.571-1.142-0.286-3.714t-0.858-3.714q-8 0-9.714 0.571 0.571 3.429 1.714 12t2.286 12.571q0.571 2.858 3.142 7.714t4.571 8.858 2.571 8-2.571 6-10.571 1.429q-11.429-0.571-16.571-12.571-0.571-1.714-1.714-6.571t-2.858-7.142-5.142-4q-4.571-1.714-15.429-1.142t-14.858 2.858q-8 4.571-13.714 17.429t-6.286 23.714q0 5.714 1.714 15.714t1.714 15.429-3.429 15.142q1.714 1.142 5.714 6t6.286 6.571q1.142 1.142 2.858 1.142h2.858t2.286 1.142 1.714 3.429q-0.571 0.571-2.286 1.714-1.714 1.714-2.286 1.714 2.286-1.714 10.858-0.571t10.858 1.142q0 0.571 12.571 0 9.714-7.429 13.714 1.142 0 0.571-1.429 6t-0.286 8.286q2.858-16.571 18.286-5.714 1.714-2.286 9.429-3.429t10.571-2.858q1.714-1.142 4-3.142t3.429-2.858 3.429-0.286 5.142 4q6.286-9.714 7.429-14.286 6.286-24.571 11.429-27.429 4.571-1.142 7.142-1.142t2.858 6 0 8.858-0.858 7.429l-1.142 21.142q-9.142 1.714-11.429 7.142t0.858 11.429 9.429 11.142q0.571 0.571 9.429 4.571t12.286 6.858q13.714 10.858 9.714 22.286 5.142-1.142 6.286 5.142l-2.858 1.714q-2.286 1.714-4.571 3.142t-2.858 0.858q6.286 4 1.142 10.286 2.858 1.714 4.571 6.571t5.142 6.571q5.142-8 12.571-1.714 4.571 5.142 1.142 10.286 2.858 4.571 12.571 6.571t11.429 5.429q2.858-0.571 4 0t1.142 2.571v4.286t0.571 4.858 1.714 4.286q2.286 3.429 9.142 6t8 3.142l10.858 6.858q2.286 2.286 0 2.286 10.286-1.142 18.286 6.286 7.429 6.858-2.858 13.142 1.142 4-2.286 6t-9.142 3.142q1.714 0.571 6.858 0.286t6.858 0.858q8.571 6.286-4 9.714-11.429 2.858-26.858-7.429-1.714-1.142-7.429-6.858t-9.714-6.286q8.571 10.286 2.858 12.571 4.571-0.571 12.858 5.142t8.858 6.286q2.286 1.142 6 1.429t4.858 0.858q40.571 14.286 52.571-0.571 4.571 6.286 6.286 8.571t5.429 5.142 8.858 4.571q12 4 13.142 5.142l0.571 13.142q-6.858-0.571-10.286 4.571t-4 12.571l-3.429-4.571q0 3.429-2 4.286t-4.286 0.286-5.429-1.142-4.286 0q-5.142 1.142-11.142 8.858t-8.286 9.429q5.142 0 5.142 2.858-1.142 2.858-5.714 4.571 0.571 3.429-1.142 4.571t-5.142 0q-1.142 6.858-0.571 7.429-3.429 0.571-6.286 6.286t-4.571 5.714q-1.142 0-2.571-1.142t-2.858-3.142l-2.858-4t-2-3.142l-1.142-1.142q-6.858 3.429-13.714-5.714-5.142 0.571-9.714-1.142 8.571 3.429 1.142 7.429-6.286 2.858-12 1.142 6.858 2.858 5.714 8t-6.858 9.142q0.571 0 2.286-0.571t2.286-0.571q-0.571 2.858-5.429 5.429t-11.142 5.142-8 3.714q-4 2.858-20.571 6t-20.571 0.858q-2.858-1.714-3.429-3.429t0.858-4.858 2-4.858q3.429-13.142 2.858-15.429-0.571-1.714-4.858-4.571t-3.142-6.858q0.571-2.286 6.571-5.714t7.142-6.858q2.858-7.429-2.286-14.286-2.286-2.858-8.571-6.286t-8-5.714q-2.858-2.858-2-6.571t0.286-5.429q0.571 0.571 0.571 1.429t0.571 1.429q0-7.429 6.286-12.571 4.571-3.429-9.142-10.286-11.429-6.286-11.429-2.286 0.571 4.571-4.286 9.142t-6 6.858-2 10.858-5.429 12q-3.429 2.286-10.858 2.286t-10.286-2.858q0 5.714-28 17.142-9.714 4.571-33.142 2.286 4 0.571 0 9.714-4.571 9.142-12 6.858-4.571 14.286-2.286 20 1.142 2.858 5.142 8t5.142 8.571q0.571 1.714 8.858 3.429t9.429 4.571q0.571 2.286-1.429 3.714t-5.429 2.571q30.286-3.429 36 10.286 2.858 5.142 1.714 8 0-0.571 1.142-0.571t1.142-0.571q6.858 1.714 4 9.714 10.858 4.571 14.858 4.571 2.858-0.571 6.286-3.429t5.714-2.858q9.714-1.714 12.286 5.714t-5.429 13.142q4-2.286 4 3.429-0.571 7.429-4 10.858-1.714 1.142-3.714 1.429t-3.714 0-4 0.286q-0.571 0-4.571 1.142-0.571-0.571-1.142-0.571h-4.571q-2.286-1.142-2.286-2.858v-0.571q-0.571-1.714 2.286-3.429l2.858-0.571 1.714-1.142q-0.571 0-1.429-1.429t-1.429-1.429q0-1.714 1.714-2.858-1.142-0.571-8-4.286t-9.714-6q-0.571-0.571-2.286-1.429t-2.286-1.429q-1.142-0.571-2.286 1.142t-2.286 5.142-2.286 6.571-2.571 5.714-3.142 2.571q-6.858 0-10.286-9.714 1.714 5.714-7.429 10t-14.286 4.286q11.429 8.571-5.142 17.142l-0.571 0.571q-17.142-2.286-25.714-4-1.142-3.429 1.714-6.858-0.571-4 3.429-5.142 0-0.571 0.286-0.571t0.286-0.571q0 0.571-0.286 0.571t-0.286 0.571q1.714-0.571 6-0.858t5.429-0.858q1.714-0.571 2.571-1.142l4.286-2.858t3.142-3.429-1.429-2.858q-1.142-0.571-5.142-2.286t-7.142-3.142-3.714-2q-1.714-2.858 0-9.142t-1.142-8.571q-2.858 2.858-5.714 10.571t-4.571 10q4.571-5.142-17.142-3.429l-4.571 0.571q-2.286 0-8.571-1.142t-9.142-0.571q-4 0-16.571 3.429 4 9.714 2.858 14.286 2.858 0 4 1.142l-3.429 1.714q-1.714-0.571-14.286-5.142 1.142-1.714 4.571-5.429t5.142-6.571q-12.571 3.429-15.429-1.142 0-0.571-5.142 0-14.286 0.571-13.714-4 0.571-2.286 5.142-6.858 0-5.142-0.571-5.142-15.429 12.571-17.142 13.142-98.286-47.429-157.714-141.714 0.571-1.142 1.429-6.286t2-4.858 6.286 2.571q5.142-5.142 1.714-12 1.142 1.142 20.571-12 32-22.858 12.571-30.286v3.142t0.571 3.714q-5.142-0.571-10.858 2.858-1.714-3.429 0.286-11.429t6.571-8q-4.571 0-6-9.714t-1.429-22-0.571-14.571l1.142-0.571q-1.714-7.429 3.429-21.429t13.714-11.714q-2.286-10.286 2.858-12-0.571-2.286 0-4.571t2.571-4.858 3.429-4l7.715-7.715q16-6.286 23.429-16.571 2.286-3.429 6-14t8.858-14.571q-1.142-3.429 5.714-12.286t6.286-14.571q-0.571 0-1.429-0.286t-1.429-0.286q1.714-4.571 9.429-9.142t9.429-8q1.142-1.714 1.429-6t1.714-6.858 4.858-1.429q1.714 13.714-14.858 38.858-9.142 15.429-10.286 17.714-1.714 2.858-3.142 9.429t-2.571 8.858q15.429-5.142 14.858-7.429-2.858-5.714 14.858-29.714 1.142-1.714 5.714-5.714t6.286-6.858q1.714-2.286 5.429-8.286t6-8.858q-0.571 0-1.714-1.142l-1.714-1.714q2.286-1.142 5.142-2.858t4.571-2.571 4.286-2.858 4.286-4.286q9.142-10.286 11.429-18.858 0.571-2.286 0.286-8.858t0.858-9.429q1.142-3.429 3.429-6.286t6.571-5.714 6.571-4 8.286-3.714 6.571-3.142q1.142-0.571 10.286-6.286t14.286-8q5.714-2.286 9.429-2.571t9.142 1.429 8.858 2.286z" horiz-adv-x="877" />
<glyph unicode="&#xe023;" d="M512 938.667q53 0 90.5-37.5t37.5-90.5v-22q15.667-5.333 37.667-15.333l15.333 15.333q37.667 37.667 90.667 37.667 52.667 0 90.333-37.667t37.667-90.333q0-53-37.667-90.667l-15.333-15.333q10-22 15.333-37.667h22q53 0 90.5-37.5t37.5-90.5-37.5-90.5-90.5-37.5h-22q-5.333-15.667-15.333-37.667l15.333-15.333q37.667-37.667 37.667-90.667 0-52.667-37.667-90.333t-90.333-37.667q-53 0-90.667 37.667l-15.333 15.333q-22-10-37.667-15.333v-22q0-53-37.5-90.5t-90.5-37.5-90.5 37.5-37.5 90.5v22q-15.667 5.333-37.667 15.333l-15.333-15.333q-37.667-37.667-90.333-37.667-53 0-90.5 37.667t-37.5 90.333q0 53.333 37.333 90.667l15.333 15.333q-10 22-15.333 37.667h-22q-53 0-90.5 37.5t-37.5 90.5 37.5 90.5 90.5 37.5h22q5.333 15.667 15.333 37.667l-15.333 15.333q-37.333 37.333-37.333 90.667 0 52.667 37.5 90.333t90.5 37.667q52.667 0 90.333-37.667l15.333-15.333q22 10 37.667 15.333v22q0 53 37.5 90.5t90.5 37.5zM512 853.334q-17.667 0-30.167-12.5t-12.5-30.167v-88.333q-74.667-10.667-136.333-56.333l-62.333 62.333q-12.667 12.667-30 12.667-17.667 0-30.167-12.5t-12.5-30.167q0-18 12.333-30.333l62.333-62.333q-45.667-61.667-56.333-136.333h-88.333q-17.667 0-30.167-12.5t-12.5-30.167 12.5-30.167 30.167-12.5h88.333q10.667-74.667 56.333-136.333l-62.333-62.333q-12.333-12.333-12.333-30.333 0-17.667 12.5-30.167t30.167-12.5q17.333 0 30 12.667l62.333 62.333q61.667-45.667 136.333-56.333v-88.333q0-17.667 12.5-30.167t30.167-12.5 30.167 12.5 12.5 30.167v88.333q74.667 10.667 136.333 56.333l62.333-62.333q12.667-12.667 30.333-12.667t30.167 12.5 12.5 30.167-12.667 30.333l-62.333 62.333q45.667 61.667 56.333 136.333h88.333q17.667 0 30.167 12.5t12.5 30.167-12.5 30.167-30.167 12.5h-88.333q-10.667 74.667-56.333 136.333l62.333 62.333q12.667 12.667 12.667 30.333t-12.5 30.167-30.167 12.5-30.333-12.667l-62.333-62.333q-61.667 45.667-136.333 56.333v88.333q0 17.667-12.5 30.167t-30.167 12.5zM512 597.334q70.667 0 120.667-50t50-120.667-50-120.667-120.667-50-120.667 50-50 120.667 50 120.667 120.667 50zM512 512q-35.333 0-60.333-25t-25-60.333 25-60.333 60.333-25 60.333 25 25 60.333-25 60.333-60.333 25z" />
<glyph unicode="&#xe027;" d="M814.182 673.28c-106.445 0-223.078-59.29-302.182-149.248-79.104 89.958-195.789 149.248-302.234 149.248-101.427 0-209.766-59.187-209.766-225.28s108.339-225.229 209.766-225.28v0c106.496 0 223.13 59.29 302.234 149.248 79.104-89.958 195.738-149.248 302.182-149.248 101.478 0 209.818 59.187 209.818 225.28s-108.339 225.28-209.818 225.28zM209.766 312.832c-77.414 0-116.685 45.466-116.685 135.168s39.27 135.219 116.685 135.219c85.606 0 185.037-55.603 246.067-135.219-61.030-79.616-160.41-135.168-246.067-135.168zM814.182 312.832c-85.606 0-185.037 55.552-246.067 135.168 60.979 79.616 160.461 135.219 246.067 135.219 77.466 0 116.685-45.517 116.685-135.219s-39.219-135.168-116.685-135.168z" />
<glyph unicode="&#xe030;" d="M213.333 896h682.667v-938.667h-682.667q-53 0-90.5 37.5t-37.5 90.5v682.667q0 53 37.5 90.5t90.5 37.5zM810.667 42.667v85.333h-597.333q-17.667 0-30.167-12.5t-12.5-30.167 12.5-30.167 30.167-12.5h597.333zM810.667 213.334v597.333h-597.333q-17.667 0-30.167-12.5t-12.5-30.167v-562q21 7.333 42.667 7.333h597.333z" />
<glyph unicode="&#xe031;" d="M0 640l512 256 512-256-512-256zM512 117l416 208.333 96-48-512-256.333-512 256.333 96 48zM512 298.334l416 208 96-48-512-256-512 256 96 48zM833.333 640l-321.333 160.667-321.333-160.667 321.333-160.667z" />
<glyph unicode="&#xe035;" d="M384 938.667h426.667q53 0 90.5-37.5t37.5-90.5v-597.333q0-53-37.5-90.5t-90.5-37.5h-426.667q-53 0-90.5 37.5t-37.5 90.5v597.333q0 53 37.5 90.5t90.5 37.5zM170.667 760.667v-718q0-17.667 12.5-30.167t30.167-12.5h547.333q-13.333-37.667-46.333-61.5t-74.333-23.833h-426.667q-53 0-90.5 37.5t-37.5 90.5v597.333q0 41.333 23.833 74.333t61.5 46.333zM810.667 853.334h-426.667q-17.667 0-30.167-12.5t-12.5-30.167v-597.333q0-17.667 12.5-30.167t30.167-12.5h426.667q17.667 0 30.167 12.5t12.5 30.167v597.333q0 17.667-12.5 30.167t-30.167 12.5z" />
<glyph unicode="&#xe036;" d="M426.667 896q78 0 149.167-30.5t122.5-81.833 81.833-122.5 30.5-149.167q0-67-21.833-128.333t-62.167-111.333l242.333-242q12.333-12.333 12.333-30.333 0-18.333-12.167-30.5t-30.5-12.167q-18 0-30.333 12.333l-242 242.333q-50-40.333-111.333-62.167t-128.333-21.833q-78 0-149.167 30.5t-122.5 81.833-81.833 122.5-30.5 149.167 30.5 149.167 81.833 122.5 122.5 81.833 149.167 30.5zM426.667 810.667q-60.667 0-116-23.667t-95.333-63.667-63.667-95.333-23.667-116 23.667-116 63.667-95.333 95.333-63.667 116-23.667 116 23.667 95.333 63.667 63.667 95.333 23.667 116-23.667 116-63.667 95.333-95.333 63.667-116 23.667z" />
<glyph unicode="&#xe042;" d="M512 896q95.667 0 182.5-37.167t149.667-100 100-149.667 37.167-182.5-37.167-182.5-100-149.667-149.667-100-182.5-37.167-182.5 37.167-149.667 100-100 149.667-37.167 182.5 37.167 182.5 100 149.667 149.667 100 182.5 37.167zM512 810.667q-78 0-149.167-30.5t-122.5-81.833-81.833-122.5-30.5-149.167 30.5-149.167 81.833-122.5 122.5-81.833 149.167-30.5 149.167 30.5 122.5 81.833 81.833 122.5 30.5 149.167-30.5 149.167-81.833 122.5-122.5 81.833-149.167 30.5zM655.667 555q17.667 0 30.167-12.5t12.5-30.167-12.667-30.333l-181-181q-12.333-12.333-30-12.333-18 0-30.333 12.333l-90.667 90.333q-12.333 12.333-12.333 30.333 0 17.667 12.5 30.167t30.167 12.5 30.333-12.667l60.333-60.333 150.667 151q12.667 12.667 30.333 12.667z" />
<glyph unicode="&#xe043;" d="M512 896q95.667 0 182.5-37.167t149.667-100 100-149.667 37.167-182.5-37.167-182.5-100-149.667-149.667-100-182.5-37.167-182.5 37.167-149.667 100-100 149.667-37.167 182.5 37.167 182.5 100 149.667 149.667 100 182.5 37.167zM512 810.667q-78 0-149.167-30.5t-122.5-81.833-81.833-122.5-30.5-149.167 30.5-149.167 81.833-122.5 122.5-81.833 149.167-30.5 149.167 30.5 122.5 81.833 81.833 122.5 30.5 149.167-30.5 149.167-81.833 122.5-122.5 81.833-149.167 30.5zM632.667 590.334q17.667 0 30.333-12.5t12.667-30.167-12.667-30.333l-90.667-90.667 90.667-90.333q12.667-12.667 12.667-30 0-17.667-12.667-30.167t-30.333-12.5-30 12.333l-90.667 90.333-90.333-90.333q-12.333-12.333-30.333-12.333-17.667 0-30.167 12.333t-12.5 30q0 18 12.333 30.333l90.667 90.333-90.667 90.667q-12.333 12.333-12.333 30t12.5 30.333 30.167 12.667 30.333-12.667l90.333-90.667 90.667 90.667q12.667 12.667 30 12.667z" />
<glyph unicode="&#xe049;" d="M512 810.667q78 0 149.167-30.5t122.5-81.833 81.833-122.5 30.5-149.167-30.5-149.167-81.833-122.5-122.5-81.833-149.167-30.5-149.167 30.5-122.5 81.833-81.833 122.5-30.5 149.167 30.5 149.167 81.833 122.5 122.5 81.833 149.167 30.5zM512 725.334q-60.667 0-116-23.667t-95.333-63.667-63.667-95.333-23.667-116 23.667-116 63.667-95.333 95.333-63.667 116-23.667 116 23.667 95.333 63.667 63.667 95.333 23.667 116-23.667 116-63.667 95.333-95.333 63.667-116 23.667z" />
<glyph unicode="&#xe050;" d="M725.333 768q17.667 0 30.167-12.5t12.5-30.167q0-18-12.333-30.333l-268.667-268.333 268.667-268.667q12.333-12.333 12.333-30.333 0-17.667-12.5-30t-30.167-12.333q-18 0-30.333 12.333l-298.667 298.667q-12.333 13-12.333 30.333 0 17 12.333 30l298.667 298.667q12.667 12.667 30.333 12.667zM256 768q17.667 0 30.167-12.5t12.5-30.167v-597.333q0-17.667-12.5-30.167t-30.167-12.5-30.167 12.5-12.5 30.167v597.333q0 17.667 12.5 30.167t30.167 12.5z" />
<glyph unicode="&#xe055;" d="M170.667 384q0 17.667 12.333 30l298.667 298.667q12.667 12.667 30.333 12.667t30.333-12.667l298.667-298.667q12.333-12.333 12.333-30t-12.5-30.167-30.167-12.5q-18 0-30.333 12.333l-268.333 268.333-268.333-268.333q-12.333-12.333-30.333-12.333-18.333 0-30.5 12.167t-12.167 30.5zM170.667 128q0 17.667 12.333 30l298.667 298.667q12.667 12.667 30.333 12.667t30.333-12.667l298.667-298.667q12.333-12.333 12.333-30t-12.5-30.167-30.167-12.5q-18 0-30.333 12.333l-268.333 268.333-268.333-268.333q-12.333-12.333-30.333-12.333-18.333 0-30.5 12.167t-12.167 30.5z" />
<glyph unicode="&#xe056;" d="M853.333 469.334q0-17.667-12.333-30l-298.667-298.667q-12.667-12.667-30.333-12.667t-30.333 12.667l-298.667 298.667q-12.333 12.333-12.333 30t12.5 30.167 30.167 12.5q18 0 30.333-12.333l268.333-268.333 268.333 268.333q12.333 12.333 30.333 12.333 18.333 0 30.5-12.167t12.167-30.5zM853.333 725.334q0-17.667-12.333-30l-298.667-298.667q-12.667-12.667-30.333-12.667t-30.333 12.667l-298.667 298.667q-12.333 12.333-12.333 30t12.5 30.167 30.167 12.5q18 0 30.333-12.333l268.333-268.333 268.333 268.333q12.333 12.333 30.333 12.333 18.333 0 30.5-12.167t12.167-30.5z" />
<glyph unicode="&#xe057;" d="M256 768q17.667 0 30.333-12.667l298.667-298.667q12.333-12.333 12.333-30 0-18-12.333-30.333l-298.667-298.667q-12.333-12.333-30.333-12.333-17.667 0-30.167 12.333t-12.5 30q0 17.333 12.333 30.333l268.667 268.667-268.667 268.333q-12.333 13-12.333 30.333 0 17.667 12.5 30.167t30.167 12.5zM725.333 768q17.667 0 30.167-12.5t12.5-30.167v-597.333q0-17.667-12.5-30.167t-30.167-12.5-30.167 12.5-12.5 30.167v597.333q0 17.667 12.5 30.167t30.167 12.5z" />
<glyph unicode="&#xe059;" d="M170.667 853.334h213.333l85.333-128h384q53 0 90.5-37.5t37.5-90.5v-469.333q0-53-37.5-90.5t-90.5-37.5h-682.667q-53 0-90.5 37.5t-37.5 90.5v597.333q0 53 37.5 90.5t90.5 37.5zM423.667 640l-82.333 128h-170.667q-17.667 0-30.167-12.5t-12.5-30.167v-597.333q0-17.667 12.5-30.167t30.167-12.5h682.667q17.667 0 30.167 12.5t12.5 30.167v469.333q0 17.667-12.5 30.167t-30.167 12.5h-429.667z" />
<glyph unicode="&#xe074;" d="M512 938.667q69.667 0 128.5-34.333t93.167-93.167 34.333-128.5v-128q0-53.333-20.667-101t-57.667-83q97.333-15.333 173-45.167t118.5-70.5 42.833-85.667v-84q0-53-37.5-90.5t-90.5-37.5h-768q-53 0-90.5 37.5t-37.5 90.5v84.333q0 45 42.833 85.667t118.333 70.5 172.833 44.833q-36.667 35.667-57.333 83.167t-20.667 100.833v128q0 69.667 34.333 128.5t93.167 93.167 128.5 34.333zM512 298.667q-92.667 0-178.833-14.833t-150.167-41.5q-25.667-10.667-45.833-22.667t-30.667-21.667-15.833-16.833-5.333-11.5v-84.333q0-17.667 12.5-30.167t30.167-12.5h768q17.667 0 30.167 12.5t12.5 30.167v84q0 4.333-5.333 11.5t-15.833 16.833-30.667 21.667-45.833 23q-64 26.667-150.167 41.5t-178.833 14.833zM512 853.334q-70.667 0-120.667-50t-50-120.667v-128q0-70.667 50-120.667t120.667-50 120.667 50 50 120.667v128q0 70.667-50 120.667t-120.667 50z" />
<glyph unicode="&#xe076;" d="M170.667 896h682.667q53 0 90.5-37.5t37.5-90.5v-469.333q0-53-37.5-90.5t-90.5-37.5h-341.333l-298.667-213.333v213.333h-42.667q-53 0-90.5 37.5t-37.5 90.5v469.333q0 53 37.5 90.5t90.5 37.5zM853.333 810.667h-682.667q-17.667 0-30.167-12.5t-12.5-30.167v-469.333q0-17.667 12.5-30.167t30.167-12.5h128v-133l186 133h368.667q17.667 0 30.167 12.5t12.5 30.167v469.333q0 17.667-12.5 30.167t-30.167 12.5z" />
<glyph unicode="&#xe078;" d="M512 896q12 0 18-0.333 62-2.333 120.5-20.5t108.167-48.833 91.167-73.833 70.333-93.833 45-110.167 16.167-121.833-16.167-121.833-45-110.167-70.333-93.833-91.167-73.833-108.167-48.833-120.5-20.5q-6-0.333-18-0.333t-18 0.333q-62 2.333-120.5 20.5t-108.167 48.833-91.167 73.833-70.333 93.833-45 110.167-16.167 121.833 16.167 121.833 45 110.167 70.333 93.833 91.167 73.833 108.167 48.833 120.5 20.5q6 0.333 18 0.333zM300.333 384h-170q13.333-119 91.667-209t192.667-120q-43.333 65.667-75.5 148.833t-38.833 180.167zM638.333 384h-252.667q3.333-42.667 13.833-85.333t23.5-75.5 30-64.833 30.667-52.667 28.333-39.667q14.667 19 28.333 39.833t30.667 52.833 30 64.833 23.5 75.333 13.833 85.167zM414.667 798.334q-114.333-30-192.667-120t-91.667-209h170q11.667 174 114.333 329zM893.667 384h-169.667q-12.333-174.333-114.667-329 114.333 30 192.667 120t91.667 209zM512 787.334q-14.667-19-28.167-39.833t-30.667-52.833-30.167-64.833-23.5-75.333-13.833-85.167h252.667q-3.333 42.667-13.833 85.333t-23.5 75.5-30 64.833-30.667 52.667-28.333 39.667zM609.333 798.334q102.333-154.667 114.667-329h169.667q-13.333 119-91.667 209t-192.667 120z" />
<glyph unicode="&#xe080;" d="M469.333 853.334q83 0 160.667-31.333 79.667-32.333 141-93.667 0.333-0.333 125-122.333v162q0 17.667 12.5 30.167t30.167 12.5 30.167-12.5 12.5-30.167v-256q0-17.667-12.5-30.167t-30.167-12.5h-256q-17.667 0-30.167 12.5t-12.5 30.167 12.5 30.167 30.167 12.5h144q-92.667 90-116 113.333-49.667 49.667-113 75-61 25-128.333 25t-128.333-25q-63.667-25.333-113-75-49.333-49.333-75-113-25-61-25-128.333t25-128.333q25.667-63.667 75-113 49.333-49.667 113-75 61-25 128.333-25t128.333 25q63.333 25.333 113 75 55.333 55.333 80.667 127.667 5.667 16.667 21.667 24.167t32.667 1.833q16.667-6 24.333-22t1.667-32.667q-15.333-43.667-41.5-85.333t-59.167-74q-61.333-61.333-141-93.667-77.667-31.333-160.667-31.333t-160.667 31.333q-79.667 32.333-141 93.667t-93.667 141q-31.333 77.667-31.333 160.667t31.333 160.667q32.333 79.667 93.667 141t141 93.667q77.667 31.333 160.667 31.333z" />
<glyph unicode="&#xe089;" d="M465 893.667q-86.333-8.667-163.833-47.667t-136.167-103.333q-57.667-63.333-89.667-143.667-32.667-83-32.667-172.333 0-95.667 37-182.667 34.333-82.333 100.333-149.333 67-66 149.333-100.333 87-37 182.667-37 89.333 0 172.333 32.667 80.333 32 143.667 89.667 64.333 58.667 103.333 136.167t47.667 163.833q1.667 19-10.833 33t-31.833 14q-16.333 0-28.5-11t-13.833-27.333q-7-71-38.833-134.333t-84.833-111.333q-51.667-47.667-117.333-73.333-68-26.667-141-26.667-78.333 0-149.333 30-67.333 28.333-122.333 82.333-54 55-82.333 122.333-30 71-30 149.333 0 73 26.667 141 25.667 65.667 73.333 117.333 48 53 111.333 84.833t134.333 38.833q16.333 1.667 27.333 13.833t11 28.5q0 12.667-4.833 21.667t-12.833 13.333-15.167 6-14.167 1.667zM938.667 896h-256q-17.667 0-30.167-12.5t-12.5-30.167 12.5-30.167 30.167-12.5h153l-354-354q-12.333-12-12.333-30 0-18.333 12.167-30.5t30.5-12.167q18 0 30.333 12.333l353.667 354v-153q0-17.667 12.5-30.167t30.167-12.5 30.167 12.5 12.5 30.167v256q0 17.667-12.5 30.167t-30.167 12.5z" />
<glyph unicode="&#xe090;" d="M853.333 896q53 0 90.5-37.5t37.5-90.5v-682.667q0-53-37.5-90.5t-90.5-37.5-90.5 37.5-37.5 90.5v682.667q0 53 37.5 90.5t90.5 37.5zM170.667 384q53 0 90.5-37.5t37.5-90.5v-170.667q0-53-37.5-90.5t-90.5-37.5-90.5 37.5-37.5 90.5v170.667q0 53 37.5 90.5t90.5 37.5zM170.667 298.667q-17.667 0-30.167-12.5t-12.5-30.167v-170.667q0-17.667 12.5-30.167t30.167-12.5 30.167 12.5 12.5 30.167v170.667q0 17.667-12.5 30.167t-30.167 12.5zM512 640q53 0 90.5-37.5t37.5-90.5v-426.667q0-53-37.5-90.5t-90.5-37.5-90.5 37.5-37.5 90.5v426.667q0 53 37.5 90.5t90.5 37.5zM512 554.667q-17.667 0-30.167-12.5t-12.5-30.167v-426.667q0-17.667 12.5-30.167t30.167-12.5 30.167 12.5 12.5 30.167v426.667q0 17.667-12.5 30.167t-30.167 12.5zM853.333 810.667q-17.667 0-30.167-12.5t-12.5-30.167v-682.667q0-17.667 12.5-30.167t30.167-12.5 30.167 12.5 12.5 30.167v682.667q0 17.667-12.5 30.167t-30.167 12.5z" />
<glyph unicode="&#xe093;" d="M396.667 554.667l115.333 355 115.333-355h373.333l-302-209.667 115.333-348.667-302 221-302-219.333 115.333 347-302 209.667h373.333zM565.333 469.334l-53.333 169.667-53.333-169.667h-165.667l133.333-88.333-52.333-157.667 138.333 100 137.667-101-52.333 157.667 133 89.333h-165.333z" />
<glyph unicode="&#xe107;" d="M512 896q95.667 0 182.5-37.167t149.667-100 100-149.667 37.167-182.5-37.167-182.5-100-149.667-149.667-100-182.5-37.167-182.5 37.167-149.667 100-100 149.667-37.167 182.5 37.167 182.5 100 149.667 149.667 100 182.5 37.167zM751.667 126.667l-539.667 539.667q-40-50.333-62-111.667t-22-128q0-78 30.5-149.167t81.833-122.5 122.5-81.833 149.167-30.5q67 0 128.333 21.833t111.333 62.167zM512 810.667q-67 0-128.333-21.833t-111.333-62.167l539.667-539.667q40.333 50 62.167 111.333t21.833 128.333q0 78-30.5 149.167t-81.833 122.5-122.5 81.833-149.167 30.5z" />
<glyph unicode="&#xe109;" d="M426.667 896h170.667q53 0 90.5-37.5t37.5-90.5v-42.667h170.667q17.667 0 30.167-12.5t12.5-30.167-12.5-30.167-30.167-12.5h-42.667v-512q0-53-37.5-90.5t-90.5-37.5h-426.667q-53 0-90.5 37.5t-37.5 90.5v512h-42.667q-17.667 0-30.167 12.5t-12.5 30.167 12.5 30.167 30.167 12.5h170.667v42.667q0 53 37.5 90.5t90.5 37.5zM768 128v512h-512v-512q0-17.667 12.5-30.167t30.167-12.5h426.667q17.667 0 30.167 12.5t12.5 30.167zM597.333 810.667h-170.667q-17.667 0-30.167-12.5t-12.5-30.167v-42.667h256v42.667q0 17.667-12.5 30.167t-30.167 12.5z" />
<glyph unicode="&#xe114;" d="M512 853.334q17.667 0 30.167-12.5t12.5-30.167v-341.333h341.333q17.667 0 30.167-12.5t12.5-30.167-12.5-30.167-30.167-12.5h-341.333v-341.333q0-17.667-12.5-30.167t-30.167-12.5-30.167 12.5-12.5 30.167v341.333h-341.333q-17.667 0-30.167 12.5t-12.5 30.167 12.5 30.167 30.167 12.5h341.333v341.333q0 17.667 12.5 30.167t30.167 12.5z" />
<glyph unicode="&#xe115;" d="M128 469.334h768q17.667 0 30.167-12.5t12.5-30.167-12.5-30.167-30.167-12.5h-768q-17.667 0-30.167 12.5t-12.5 30.167 12.5 30.167 30.167 12.5z" />
<glyph unicode="&#xe116;" d="M896 725.334q18.333 0 30.5-12.167t12.167-30.5q0-18-12.333-30.333l-512-512q-12.333-12.333-30.333-12.333t-30.333 12.333l-256 256q-12.333 12.333-12.333 30.333 0 18.333 12.167 30.5t30.5 12.167q18 0 30.333-12.333l225.667-226 481.667 482q12.333 12.333 30.333 12.333z" />
<glyph unicode="&#xe117;" d="M810.667 768q18.333 0 30.5-12.167t12.167-30.5q0-18-12.333-30.333l-268.667-268.333 268.667-268.333q12.333-12.333 12.333-30.333 0-18.333-12.167-30.5t-30.5-12.167q-18 0-30.333 12.333l-268.333 268.667-268.333-268.667q-12.333-12.333-30.333-12.333-18.333 0-30.5 12.167t-12.167 30.5q0 18 12.333 30.333l268.667 268.333-268.667 268.333q-12.333 12.333-12.333 30.333 0 18.333 12.167 30.5t30.5 12.167q18 0 30.333-12.333l268.333-268.667 268.333 268.667q12.333 12.333 30.333 12.333z" />
<glyph unicode="&#xe121;" d="M256 810.667h512l256-256v-384q0-53-37.5-90.5t-90.5-37.5h-768q-53 0-90.5 37.5t-37.5 90.5v384zM938.667 170.667v298.667h-187.333q-28.333-74-94.5-122.333t-144.833-48.333q-52.333 0-101.667 22.333t-86 61.167-55 87.167h-184v-298.667q0-17.333 12.333-30t30.333-12.667h768q17.667 0 30.167 12.5t12.5 30.167zM903.333 554.667l-169 170.667h-443l-170.667-170.667h220.667q0-42.333 22.667-81.667t62.5-64.167 85.5-24.833 85.5 24.833 62.5 64.167 22.667 81.667h220.667z" />
<glyph unicode="&#xe124;" d="M213.333 938.667h426.667l298.667-298.667v-597.333q0-53-37.5-90.5t-90.5-37.5h-597.333q-53 0-90.5 37.5t-37.5 90.5v768q0 53 37.5 90.5t90.5 37.5zM554.667 554.667v298.667h-341.333q-18 0-30.333-12.333t-12.333-30.333v-768q0-18 12.333-30.333t30.333-12.333h597.333q18 0 30.333 12.333t12.333 30.333v512h-298.667zM818 640l-178 178v-178h178z" />
<glyph unicode="&#xe128;" d="M170.667 896h298.667q17.667 0 30.167-12.5t12.5-30.167-12.5-30.167-30.167-12.5h-298.667q-17.667 0-30.167-12.5t-12.5-30.167v-682.667q0-17.667 12.5-30.167t30.167-12.5h682.667q17.667 0 30.167 12.5t12.5 30.167v298.667q0 17.667 12.5 30.167t30.167 12.5 30.167-12.5 12.5-30.167v-298.667q0-53-37.5-90.5t-90.5-37.5h-682.667q-53 0-90.5 37.5t-37.5 90.5v682.667q0 53 37.5 90.5t90.5 37.5zM682.667 896h256q17.667 0 30.167-12.5t12.5-30.167v-256q0-17.667-12.5-30.167t-30.167-12.5-30.167 12.5-12.5 30.167v153l-354-354q-12.333-12.333-30-12.333-18.333 0-30.5 12.167t-12.167 30.5q0 17.667 12.333 30l354 354h-153q-17.667 0-30.167 12.5t-12.5 30.167 12.5 30.167 30.167 12.5z" />
<glyph unicode="&#xe129;" d="M853.333 554.667q53 0 90.5-37.5t37.5-90.5-37.5-90.5-90.5-37.5-90.5 37.5-37.5 90.5 37.5 90.5 90.5 37.5zM170.667 554.667q53 0 90.5-37.5t37.5-90.5-37.5-90.5-90.5-37.5-90.5 37.5-37.5 90.5 37.5 90.5 90.5 37.5zM170.667 469.334q-17.667 0-30.167-12.5t-12.5-30.167 12.5-30.167 30.167-12.5 30.167 12.5 12.5 30.167-12.5 30.167-30.167 12.5zM512 554.667q53 0 90.5-37.5t37.5-90.5-37.5-90.5-90.5-37.5-90.5 37.5-37.5 90.5 37.5 90.5 90.5 37.5zM512 469.334q-17.667 0-30.167-12.5t-12.5-30.167 12.5-30.167 30.167-12.5 30.167 12.5 12.5 30.167-12.5 30.167-30.167 12.5zM853.333 469.334q-17.667 0-30.167-12.5t-12.5-30.167 12.5-30.167 30.167-12.5 30.167 12.5 12.5 30.167-12.5 30.167-30.167 12.5z" />
<glyph unicode="&#xe600;" d="M512 874.667c80.933 0 157.067-31.467 214.4-88.8 57.2-57.2 88.8-133.333 88.8-214.267 0-43.467-20.933-100.933-38.533-141.467-24-55.333-58.667-118.533-100.267-182.533-36.933-56.8-78.533-113.067-117.067-158.4-22.4-26.267-39.2-43.6-51.067-54.8-12 10.4-29.067 27.2-51.867 53.6-37.467 43.467-78.133 99.2-114.533 157.067-82 130.4-132.933 255.467-132.933 326.533 0 80.933 31.467 157.067 88.8 214.267 57.2 57.333 133.333 88.8 214.267 88.8zM512 960c-214.533 0-388.4-173.867-388.4-388.4 0-214.667 305.067-635.6 388.4-635.6 61.6 0 388.533 420.933 388.533 635.6-0.133 214.533-174 388.4-388.533 388.4v0zM510.267 675.067c53.733 0 97.333-43.6 97.333-97.333s-43.6-97.333-97.333-97.333-97.333 43.6-97.333 97.333 43.6 97.333 97.333 97.333zM510.267 760.4c-100.933 0-182.667-81.733-182.667-182.667s81.733-182.667 182.667-182.667c100.933 0 182.667 81.733 182.667 182.667s-81.867 182.667-182.667 182.667v0z" />
<glyph unicode="&#xe601;" d="M704 576c22.133 0 40.933-7.867 56.533-23.467s23.467-34.4 23.467-56.533v-13.733c6.533-2.267 14.4-5.467 23.6-9.6l9.6 9.6c15.733 15.733 34.533 23.6 56.667 23.6 22 0 40.8-7.867 56.4-23.6s23.6-34.533 23.6-56.4c0-22.133-7.867-40.933-23.6-56.667l-9.6-9.6c4.133-9.2 7.333-17.067 9.6-23.6h13.733c22.133 0 40.933-7.867 56.533-23.467s23.467-34.4 23.467-56.533-7.867-40.933-23.467-56.533-34.4-23.467-56.533-23.467h-13.733c-2.267-6.533-5.467-14.4-9.6-23.6l9.6-9.6c15.733-15.733 23.6-34.533 23.6-56.667 0-22-7.867-40.8-23.6-56.4s-34.533-23.6-56.4-23.6c-22.133 0-40.933 7.867-56.667 23.6l-9.6 9.6c-9.2-4.133-17.067-7.333-23.6-9.6v-13.733c0-22.133-7.867-40.933-23.467-56.533s-34.4-23.467-56.533-23.467-40.933 7.867-56.533 23.467-23.467 34.4-23.467 56.533v13.733c-6.533 2.267-14.4 5.467-23.6 9.6l-9.6-9.6c-15.733-15.733-34.533-23.6-56.4-23.6-22.133 0-40.933 7.867-56.533 23.6s-23.467 34.533-23.467 56.4c0 22.267 7.733 41.067 23.333 56.667l9.6 9.6c-4.133 9.2-7.333 17.067-9.6 23.6h-13.733c-22.133 0-40.933 7.867-56.533 23.467s-23.467 34.4-23.467 56.533 7.867 40.933 23.467 56.533 34.4 23.467 56.533 23.467h13.733c2.267 6.533 5.467 14.4 9.6 23.6l-9.6 9.6c-15.6 15.6-23.333 34.4-23.333 56.667 0 22 7.867 40.8 23.467 56.4s34.533 23.6 56.533 23.6c22 0 40.8-7.867 56.4-23.6l9.6-9.6c9.2 4.133 17.067 7.333 23.6 9.6v13.733c0 22.133 7.867 40.933 23.467 56.533s34.4 23.467 56.533 23.467zM704 522.667c-7.333 0-13.6-2.667-18.8-7.867s-7.867-11.467-7.867-18.8v-55.2c-31.067-4.4-59.467-16.133-85.2-35.2l-38.933 38.933c-5.333 5.333-11.467 7.867-18.8 7.867s-13.6-2.667-18.8-7.867-7.867-11.467-7.867-18.8c0-7.467 2.533-13.867 7.733-18.933l38.933-38.933c-19.067-25.733-30.8-54.133-35.2-85.2h-55.2c-7.333 0-13.6-2.667-18.8-7.867s-7.867-11.467-7.867-18.8 2.667-13.6 7.867-18.8 11.467-7.867 18.8-7.867h55.2c4.4-31.067 16.133-59.467 35.2-85.2l-38.933-38.933c-5.2-5.2-7.733-11.467-7.733-18.933 0-7.333 2.667-13.6 7.867-18.8s11.467-7.867 18.8-7.867c7.2 0 13.467 2.667 18.8 7.867l38.933 38.933c25.733-19.067 54.133-30.8 85.2-35.2v-55.2c0-7.333 2.667-13.6 7.867-18.8s11.467-7.867 18.8-7.867 13.6 2.667 18.8 7.867 7.867 11.467 7.867 18.8v55.2c31.067 4.4 59.467 16.133 85.2 35.2l38.933-38.933c5.333-5.333 11.6-7.867 18.933-7.867s13.6 2.667 18.8 7.867 7.867 11.467 7.867 18.8-2.667 13.733-7.867 18.933l-38.933 38.933c19.067 25.733 30.8 54.133 35.2 85.2h55.2c7.333 0 13.6 2.667 18.8 7.867s7.867 11.467 7.867 18.8-2.667 13.6-7.867 18.8-11.467 7.867-18.8 7.867h-55.2c-4.4 31.067-16.133 59.467-35.2 85.2l38.933 38.933c5.333 5.333 7.867 11.6 7.867 18.933s-2.667 13.6-7.867 18.8-11.467 7.867-18.8 7.867-13.733-2.667-18.933-7.867l-38.933-38.933c-25.733 19.067-54.133 30.8-85.2 35.2v55.2c0 7.333-2.667 13.6-7.867 18.8s-11.467 7.867-18.8 7.867zM704 362.667c29.467 0 54.533-10.4 75.467-31.2s31.2-46 31.2-75.467c0-29.467-10.4-54.533-31.2-75.467s-46-31.2-75.467-31.2c-29.467 0-54.533 10.4-75.467 31.2s-31.2 46-31.2 75.467c0 29.467 10.4 54.533 31.2 75.467s46 31.2 75.467 31.2zM704 309.333c-14.667 0-27.333-5.2-37.733-15.6s-15.6-23.067-15.6-37.733 5.2-27.333 15.6-37.733 23.067-15.6 37.733-15.6 27.333 5.2 37.733 15.6 15.6 23.067 15.6 37.733-5.2 27.333-15.6 37.733-23.067 15.6-37.733 15.6zM359.6 600.4c-30.667-30.667-46-67.6-46-110.8s15.333-80.133 45.733-110.667c5.467 4.667 11.2 8.933 17.2 12.933-2.267 11.067-3.467 22.4-3.467 34 0 28.267 6.933 54.8 20.267 78.4 2.8 15.467 10 29.067 21.733 40.8s25.2 18.933 40.533 21.6c5.467 3.067 11.067 5.867 16.933 8.267 19.467 8.133 40.267 12.133 61.867 12.133 11.6 0 22.933-1.2 34-3.467 3.867 5.867 8.133 11.6 12.8 16.933-30.533 30.533-67.467 45.733-110.667 45.733-43.467 0.133-80.4-15.2-110.933-45.867zM302.667 256c0 3.6 0.133 7.2 0.4 10.8l-54.267-54.267c-7.733-7.733-16.933-11.6-27.6-11.6-10.8 0-20 3.867-27.733 11.467-7.6 7.6-11.467 16.933-11.467 27.733 0 11.067 3.733 20.267 11.333 27.867l57.333 57.333c-28 37.733-45.2 79.467-51.733 125.2h-81.333c-10.8 0-20 3.867-27.733 11.467-7.6 7.6-11.467 16.933-11.467 27.733s3.867 20 11.467 27.733c7.6 7.6 16.933 11.467 27.733 11.467h81.2c6.533 45.733 23.733 87.467 51.733 125.2l-57.333 57.333c-7.6 7.6-11.333 16.8-11.333 27.867 0 10.8 3.867 20 11.467 27.733 7.6 7.6 16.933 11.467 27.733 11.467 10.667 0 19.867-3.867 27.6-11.6l57.333-57.333c37.733 28 79.467 45.2 125.2 51.733v81.067c0 10.8 3.867 20 11.467 27.733 7.6 7.6 16.933 11.467 27.733 11.467s20-3.867 27.733-11.467c7.6-7.6 11.467-16.933 11.467-27.733v-81.2c45.733-6.533 87.467-23.733 125.2-51.733l57.333 57.333c7.733 7.733 17.067 11.6 27.867 11.6s20-3.867 27.733-11.467c7.6-7.6 11.467-16.933 11.467-27.733s-3.867-20.133-11.6-27.867l-54.267-54.267c3.6 0.267 7.067 0.4 10.8 0.4 28.4 0 55.067-6.933 78.667-20.267 2.4 0.667 4 2.533 6.267 4.667l14.133 14.133c23.067 23.067 34.667 50.8 34.667 83.333 0 32.267-11.6 59.867-34.667 82.933s-50.8 34.667-82.933 34.667c-32.4 0-60.267-11.6-83.333-34.667l-14.267-14.133c-13.467 6.133-25.067 10.8-34.667 14.133v20.133c0 32.4-11.467 60.133-34.4 83.2-23.067 22.933-50.667 34.4-83.2 34.4s-60.133-11.467-83.2-34.4c-22.933-22.933-34.4-50.667-34.4-83.2v-20.267c-9.6-3.333-21.067-8-34.667-14.133l-14.133 14.133c-23.067 23.067-50.8 34.667-82.933 34.667-32.4 0-60.133-11.6-83.2-34.667s-34.4-50.8-34.4-82.933c0-32.667 11.467-60.4 34.267-83.333l14.133-14.133c-6.133-13.467-10.8-25.067-14.133-34.667h-20.133c-32.4 0-60.133-11.467-83.2-34.4-22.933-22.933-34.4-50.667-34.4-83.067s11.467-60.133 34.4-83.2c22.933-22.933 50.667-34.4 83.2-34.4h20.267c3.333-9.6 8-21.067 14.133-34.667l-14.133-14.133c-22.933-22.933-34.267-50.667-34.267-83.333 0-32.267 11.467-59.867 34.4-82.933s50.667-34.667 83.2-34.667c32.267 0 59.867 11.6 82.933 34.667l14.133 14.133c5.733 6.8 5.6 5.2 3.6 8.267-12.667 23.2-19.2 49.067-19.2 76.667z" />
<glyph unicode="&#xe602;" d="M512 832c52 0 101.733-10.133 149.2-30.533s88.267-47.6 122.533-81.867 61.467-75.067 81.867-122.533 30.4-97.067 30.4-149.067-10.133-101.733-30.533-149.2-47.6-88.267-81.867-122.533-75.067-61.467-122.533-81.867-97.067-30.4-149.067-30.4-101.733 10.133-149.2 30.533-88.267 47.6-122.533 81.867-61.467 75.067-81.867 122.533-30.4 97.067-30.4 149.067 10.133 101.733 30.533 149.2 47.6 88.267 81.867 122.533 75.067 61.467 122.533 81.867 97.067 30.4 149.067 30.4z" />
<glyph unicode="&#xe603;" d="M981.333 448c0-63.733-12.4-124.667-37.2-182.533s-58.133-107.733-100-149.6-91.733-75.2-149.6-100-118.8-37.2-182.533-37.2-124.667 12.4-182.533 37.2-107.733 58.133-149.6 100-75.2 91.733-100 149.6-37.2 118.8-37.2 182.533 12.4 124.667 37.2 182.533 58.133 107.733 100 149.6 91.733 75.2 149.6 100 118.8 37.2 182.533 37.2 124.667-12.4 182.533-37.2 107.733-58.133 149.6-100 75.2-91.733 100-149.6 37.2-118.8 37.2-182.533zM896 448c0 52-10.133 101.733-30.533 149.2s-47.6 88.267-81.867 122.533-75.067 61.467-122.533 81.867-97.067 30.4-149.067 30.4-101.733-10.133-149.2-30.533-88.267-47.6-122.533-81.867-61.467-75.067-81.867-122.533-30.4-97.067-30.4-149.067 10.133-101.733 30.533-149.2 47.6-88.267 81.867-122.533 75.067-61.467 122.533-81.867 97.067-30.4 149.067-30.4 101.733 10.133 149.2 30.533 88.267 47.6 122.533 81.867 61.467 75.067 81.867 122.533 30.4 97.067 30.4 149.067zM469.333 190.667c0 23.6 19.067 42.667 42.667 42.667s42.667-19.067 42.667-42.667-19.067-42.667-42.667-42.667-42.667 19.067-42.667 42.667zM620.8 340.133c-3.6-1.6-7.2-3.333-10.533-5.333 3.6 1.733 7.067 3.467 10.533 5.333zM582.667 416.4c-3.6-1.733-7.067-3.467-10.533-5.333 3.467 1.733 7.067 3.467 10.533 5.333zM526.8 746.4c-100.8 0-183.333-82-183.867-182.8l-0.133-11.467h87.067l0.133 11.2c0.533 52.8 44 95.867 96.8 95.867 53.333 0 96.8-43.467 96.8-96.8 0-35.2-19.2-67.733-50.133-84.8-2.4-1.333-4.8-2.533-7.2-3.6l-0.667-0.4c-32.533-17.333-58.933-43.867-76.133-76.4-14-26.267-21.333-56-21.333-85.867v-11.333h87.067v11.333c0 35.2 19.2 67.733 50.133 84.8 2.4 1.333 4.8 2.533 7.2 3.6l0.667 0.4c32.533 17.333 58.933 43.867 76.133 76.4 14 26.267 21.333 56 21.333 85.867 0.133 101.467-82.4 184-183.867 184z" />
<glyph unicode="&#xe604;" d="M981.333 448c0-63.733-12.4-124.667-37.2-182.533s-58.133-107.733-100-149.6-91.733-75.2-149.6-100-118.8-37.2-182.533-37.2-124.667 12.4-182.533 37.2-107.733 58.133-149.6 100-75.2 91.733-100 149.6-37.2 118.8-37.2 182.533 12.4 124.667 37.2 182.533 58.133 107.733 100 149.6 91.733 75.2 149.6 100 118.8 37.2 182.533 37.2 124.667-12.4 182.533-37.2 107.733-58.133 149.6-100 75.2-91.733 100-149.6 37.2-118.8 37.2-182.533zM896 448c0 52-10.133 101.733-30.533 149.2s-47.6 88.267-81.867 122.533-75.067 61.467-122.533 81.867-97.067 30.4-149.067 30.4-101.733-10.133-149.2-30.533-88.267-47.6-122.533-81.867-61.467-75.067-81.867-122.533-30.4-97.067-30.4-149.067 10.133-101.733 30.533-149.2 47.6-88.267 81.867-122.533 75.067-61.467 122.533-81.867 97.067-30.4 149.067-30.4 101.733 10.133 149.2 30.533 88.267 47.6 122.533 81.867 61.467 75.067 81.867 122.533 30.4 97.067 30.4 149.067zM554.667 532v-341.333c0-11.733-4.133-21.867-12.533-30.133s-18.4-12.533-30.133-12.533-21.867 4.133-30.133 12.533-12.533 18.4-12.533 30.133v341.333c0 11.733 4.133 21.867 12.533 30.133s18.4 12.533 30.133 12.533 21.867-4.133 30.133-12.533 12.533-18.4 12.533-30.133zM554.667 704c0-23.6-19.067-42.667-42.667-42.667s-42.667 19.067-42.667 42.667 19.067 42.667 42.667 42.667 42.667-19.067 42.667-42.667z" />
<glyph unicode="&#xe605;" d="M362.667 128c-10.933 0-20.4 3.867-28.133 11.467l-280 280c-7.867 7.867-11.867 17.333-11.867 28.533s4 20.533 11.867 28.533l280 280c7.733 7.733 17.067 11.467 28.133 11.467s20.533-3.867 28.267-11.733c7.733-7.867 11.733-17.2 11.733-28.267 0-11.2-3.867-20.8-11.467-28.533l-251.6-251.467 251.467-251.467c7.733-7.733 11.467-17.2 11.467-28.533 0-11.467-3.733-21.067-11.333-28.667-7.467-7.6-17.067-11.333-28.533-11.333zM632.8 139.333c-7.6 7.6-11.333 17.067-11.333 28.667 0 11.2 3.733 20.8 11.467 28.533l251.467 251.467-251.6 251.467c-7.6 7.733-11.467 17.2-11.467 28.533 0 10.933 4 20.4 11.733 28.267s17.2 11.733 28.267 11.733 20.4-3.733 28.133-11.467l280-280c7.867-8 11.867-17.333 11.867-28.533s-4-20.667-11.867-28.533l-280-280c-7.733-7.6-17.067-11.467-28.133-11.467-11.467 0-21.067 3.733-28.533 11.333z" />
<glyph unicode="&#xe606;" d="M661.333 106.667c-11.733 0-21.733 4.133-30 12.267l-298.667 298.667c-8.4 8.4-12.667 18.533-12.667 30.4s4.267 21.867 12.667 30.4l298.667 298.667c8.267 8.267 18.267 12.267 30 12.267s21.867-4.133 30.133-12.533 12.533-18.4 12.533-30.133c0-12-4.133-22.133-12.267-30.4l-268.4-268.267 268.267-268.267c8.267-8.267 12.267-18.4 12.267-30.4 0-12.267-4-22.4-12.133-30.533-8-8.133-18.133-12.133-30.4-12.133z" />
<glyph unicode="&#xe607;" d="M332.133 118.8c-8.133 8.133-12.133 18.267-12.133 30.533 0 12 4.133 22.133 12.267 30.4l268.4 268.267-268.4 268.267c-8.267 8.267-12.267 18.4-12.267 30.4 0 11.733 4.133 21.867 12.533 30.133s18.4 12.533 30.133 12.533 21.733-4.133 30-12.267l298.667-298.667c8.4-8.4 12.667-18.533 12.667-30.4s-4.267-21.867-12.667-30.4l-298.667-298.667c-8.267-8.267-18.267-12.267-30-12.267-12.267 0-22.4 4-30.533 12.133z" />
<glyph unicode="&#xe608;" d="M841.2 268.133c-8.133-8.133-18.267-12.133-30.533-12.133-12 0-22.133 4.133-30.4 12.267l-268.267 268.4-268.267-268.4c-8.267-8.267-18.4-12.267-30.4-12.267-11.733 0-21.867 4.133-30.133 12.533s-12.533 18.4-12.533 30.133 4.133 21.733 12.267 30l298.667 298.667c8.4 8.4 18.533 12.667 30.4 12.667s21.867-4.267 30.4-12.667l298.667-298.667c8.267-8.267 12.267-18.267 12.267-30 0-12.267-4-22.4-12.133-30.533z" />
<glyph unicode="&#xe609;" d="M853.333 597.333c0-11.733-4.133-21.733-12.267-30l-298.667-298.667c-8.4-8.4-18.533-12.667-30.4-12.667s-21.867 4.267-30.4 12.667l-298.667 298.667c-8.267 8.267-12.267 18.267-12.267 30s4.133 21.867 12.533 30.133 18.4 12.533 30.133 12.533c12 0 22.133-4.133 30.4-12.267l268.267-268.4 268.267 268.267c8.267 8.267 18.4 12.267 30.4 12.267 12.267 0 22.4-4 30.533-12.133s12.133-18.133 12.133-30.4z" />
<glyph unicode="&#xe60a;" d="M986.533 217.733c-24.933 23.733-59.6 44.267-103.733 61.733s-94.533 30.533-151.333 39.467c21.6 20.667 38.4 44.8 50.4 72.667s18.133 57.333 18.133 88.4v112c0 40.667-10 78.133-30 112.4s-47.2 61.467-81.467 81.467c-10.667 6.267-21.733 11.467-32.933 15.867-3.467 8.267-7.6 17.467-12.133 25.333-20 34.267-47.2 61.467-81.467 81.467s-72 30.133-112.667 30.133-78.133-10-112.4-30-61.467-47.2-81.467-81.467-30.133-71.867-30.133-112.533v-112c0-31.067 6-60.533 18.133-88.267s28.8-52 50.133-72.8c-56.8-8.8-107.2-21.867-151.2-39.2s-78.533-38-103.6-61.733c-24.933-23.6-37.467-48.667-37.467-74.933v-73.733c0-30.933 10.933-57.333 32.8-79.2s48.267-32.8 79.2-32.8h14.667v-10.667c0-30.933 10.933-57.333 32.8-79.2s48.267-32.8 79.2-32.8h672c30.933 0 57.333 10.933 79.2 32.8s32.8 48.267 32.8 79.2v73.467c0 26.267-12.533 51.333-37.467 74.933zM725.333 592v-112c0-41.2-14.533-76.4-43.733-105.6s-64.4-43.733-105.6-43.733-76.4 14.533-105.6 43.733-43.733 64.4-43.733 105.6v112c0 41.2 14.533 76.4 43.733 105.6s64.4 43.733 105.6 43.733 76.4-14.533 105.6-43.733 43.733-64.4 43.733-105.6zM300 714.667c0 41.2 14.533 76.4 43.733 105.6s64.4 43.733 105.6 43.733 76.4-14.533 105.6-43.733c1.2-1.2 2.4-3.333 3.6-4.933-34-2.533-65.6-12.267-94.933-29.333-34.267-20-61.467-47.2-81.467-81.467s-30.133-71.867-30.133-112.533v-101.467c-2.667 2.133-6 4.267-8.267 6.667-29.2 29.067-43.733 64.267-43.733 105.467v112zM128.8 154.667c0 0 0 0 0 0h-15.467c-10.267 0-19.067 3.6-26.4 10.933s-10.933 16.133-10.933 26.4v73.733c0 2.533 1.6 5.867 4.667 10s7.733 9.067 13.867 14.667c6.133 5.6 15.067 12 26.8 18.933s25.067 13.6 40.133 19.867c37.333 15.6 81.067 27.6 131.333 36.267 27.333 4.667 56.4 8.133 84.8 10.267 11.2-21.2 25.333-40.133 42.533-56.933-56.8-8.8-107.2-21.867-151.2-39.2s-78.533-38-103.6-61.733c-21.2-20-33.333-41.2-36.533-63.2zM128 143.067c0 1.333 0 2.667 0.133 4-0.133-1.2-0.133-2.667-0.133-4zM128.267 148.8c0 0.667 0.133 1.333 0.133 2-0.133-0.667-0.133-1.333-0.133-2zM949.333 69.333c0-10.267-3.6-19.067-10.933-26.4s-16.133-10.933-26.4-10.933h-672c-10.267 0-19.067 3.6-26.4 10.933s-10.933 16.133-10.933 26.4v73.733c0 2.533 1.6 5.867 4.667 10s7.733 9.067 13.867 14.667c6.133 5.6 15.067 12 26.8 18.933s25.067 13.6 40.133 19.867c37.333 15.6 81.067 27.6 131.333 36.267s102.533 13.2 156.533 13.2 106.267-4.267 156.533-12.933c50.267-8.667 94-20.8 131.333-36.267 14.933-6.4 28.4-13.067 40.133-20.133s20.667-13.333 26.8-18.933c6.133-5.6 10.8-10.533 13.867-14.667s4.667-7.6 4.667-10v-73.733z" />
<glyph unicode="&#xe60b;" d="M191.867 264.133c-32.267 39.467-56.4 83.333-72.4 131.733s-22.8 98.133-20.4 149.2c2.4 50.267 13.6 98.667 33.6 145.333 20.933 48 49.867 90.533 86.933 127.733 39.733 39.733 85.333 70 136.8 90.667 48.4 19.867 100.267 30.133 155.467 30.533 55.2-0.4 107.067-10.533 155.467-30.533 51.467-20.8 97.067-51.067 136.8-90.667 37.067-37.067 66.133-79.6 86.933-127.733 20.133-46.667 31.333-95.067 33.6-145.333 2.4-51.067-4.4-100.8-20.4-149.2s-40.133-92.267-72.4-131.733c-7.2-8.533-16.267-13.2-27.333-13.867s-20.533 3.067-28.533 11.067c-6.8 6.8-10.4 14.933-10.933 24.667-0.533 9.6 2.267 18.133 8.4 25.6 26.533 32.4 46.4 68.4 59.467 107.867s18.533 80.267 16.533 122.133c-1.6 41.2-10.8 80.8-27.467 118.8-17.2 39.333-40.933 74.133-71.2 104.4-32.533 32.533-69.733 57.333-111.733 74.267-39.733 16.133-82.267 24.533-127.467 24.933-45.2-0.4-87.733-8.667-127.467-24.933-42-17.067-79.2-41.733-111.733-74.267-30.267-30.267-54-65.067-71.2-104.4-16.667-37.867-25.733-77.467-27.467-118.8-2.133-42 3.467-82.667 16.533-122.133s32.933-75.467 59.467-107.867c6.133-7.467 8.933-16 8.4-25.6s-4.133-17.867-10.933-24.667c-5.2-5.2-10.8-8.8-16.533-10.533s-11.2-1.867-16.267-0.267-9.467 3.467-13.2 5.733-6.4 4.933-9.333 7.867zM512 563.733c10.4 0 19.2-3.733 26.533-11.067l159.467-159.333c7.333-7.333 11.067-16.133 11.067-26.533s-3.733-19.2-11.067-26.533c-7.333-7.333-16.133-11.067-26.533-11.067s-19.2 3.733-26.533 11.067l-95.333 95.333 0.267-440.8c0-10.267-3.733-19.067-11.2-26.533-7.6-7.6-16.533-11.467-26.533-11.467s-18.933 3.867-26.533 11.467c-7.467 7.467-11.2 16.267-11.067 26.4v440.8l-95.333-95.333c-7.333-7.333-16.133-11.067-26.533-11.067s-19.2 3.733-26.533 11.067c-7.333 7.333-11.067 16.133-11.067 26.533s3.733 19.2 11.067 26.533l159.467 159.467c7.2 7.467 16 11.067 26.4 11.067z" />
<glyph unicode="&#xe60c;" d="M328.133 768.133c39.467 32.267 83.333 56.4 131.733 72.4s98.133 22.8 149.2 20.4c50.267-2.4 98.667-13.6 145.333-33.6 48-20.933 90.533-49.867 127.733-86.933 39.733-39.733 70-85.333 90.667-136.8 19.867-48.4 30.133-100.267 30.533-155.467-0.4-55.2-10.533-107.067-30.533-155.467-20.8-51.467-51.067-97.067-90.667-136.8-37.067-37.067-79.6-66.133-127.733-86.933-46.667-20.133-95.067-31.333-145.333-33.6-51.067-2.4-100.8 4.4-149.2 20.4s-92.267 40.133-131.733 72.4c-8.533 7.2-13.2 16.267-13.867 27.333s3.067 20.533 11.067 28.533c6.8 6.8 14.933 10.4 24.667 10.933 9.6 0.533 18.133-2.267 25.6-8.4 32.4-26.533 68.4-46.4 107.867-59.467s80.267-18.533 122.133-16.533c41.2 1.6 80.8 10.8 118.8 27.467 39.333 17.2 74.133 40.933 104.4 71.2 32.533 32.533 57.333 69.733 74.267 111.733 16.133 39.733 24.533 82.267 24.933 127.467-0.4 45.2-8.667 87.733-24.933 127.467-17.067 42-41.733 79.2-74.267 111.733-30.267 30.267-65.067 54-104.4 71.2-37.867 16.667-77.467 25.733-118.8 27.467-42 2.133-82.667-3.467-122.133-16.533s-75.467-32.933-107.867-59.467c-7.467-6.133-16-8.933-25.6-8.4s-17.867 4.133-24.667 10.933c-5.2 5.2-8.8 10.8-10.533 16.533s-1.867 11.2-0.267 16.267 3.467 9.467 5.733 13.2c2.4 3.2 4.933 6.4 7.867 9.333zM627.733 448c0-10.4-3.733-19.2-11.067-26.533l-159.333-159.467c-7.333-7.333-16.133-11.067-26.533-11.067s-19.2 3.733-26.533 11.067c-7.333 7.333-11.067 16.133-11.067 26.533s3.733 19.2 11.067 26.533l95.333 95.333-440.933-0.133c-10.267 0-19.067 3.733-26.533 11.2-7.6 7.6-11.467 16.533-11.467 26.533s3.867 18.933 11.467 26.533c7.467 7.467 16.267 11.2 26.4 11.067h440.933l-95.333 95.333c-7.333 7.333-11.067 16.133-11.067 26.533s3.733 19.2 11.067 26.533c7.333 7.333 16.133 11.067 26.533 11.067s19.2-3.733 26.533-11.067l159.467-159.467c7.467-7.333 11.067-16.133 11.067-26.533z" />
<glyph unicode="&#xe60d;" d="M703.6 758.267c2.267-3.733 4.133-8 5.733-13.2s1.467-10.533-0.267-16.267c-1.733-5.733-5.2-11.2-10.533-16.533-6.8-6.8-14.933-10.4-24.667-10.933s-18.133 2.267-25.6 8.4c-32.4 26.533-68.4 46.4-107.867 59.467s-80.267 18.533-122.133 16.533c-41.2-1.6-80.8-10.8-118.8-27.467-39.333-17.2-74.133-40.933-104.4-71.2-32.533-32.533-57.333-69.733-74.267-111.733-16.133-39.733-24.533-82.267-24.933-127.467 0.4-45.2 8.667-87.733 24.933-127.467 17.067-42 41.733-79.2 74.267-111.733 30.267-30.267 65.067-54 104.4-71.2 37.867-16.667 77.467-25.733 118.8-27.467 42-2.133 82.667 3.467 122.133 16.533s75.467 32.933 107.867 59.467c7.467 6.133 16 8.933 25.6 8.4s17.867-4.133 24.667-10.933c8-8 11.733-17.6 11.067-28.533-0.667-11.067-5.2-20.133-13.867-27.333-39.467-32.267-83.333-56.4-131.733-72.4s-98.133-22.8-149.2-20.4c-50.267 2.4-98.667 13.6-145.333 33.6-48 20.933-90.533 49.867-127.733 86.933-39.733 39.733-70 85.333-90.667 136.8-19.733 48.8-30 100.667-30.4 155.867 0.4 55.2 10.533 107.067 30.533 155.467 20.8 51.467 51.067 97.067 90.667 136.8 37.067 37.067 79.6 66.133 127.733 86.933 46.667 20.133 95.067 31.333 145.333 33.6 51.067 2.4 100.8-4.4 149.2-20.4s92.267-40.133 131.733-72.4c2.933-2.8 5.467-6 7.733-9.733zM1003.333 448c0-10.4-3.733-19.2-11.067-26.533l-159.467-159.467c-7.333-7.333-16.133-11.067-26.533-11.067s-19.2 3.733-26.533 11.067-11.067 16.133-11.067 26.533c0 10.4 3.733 19.2 11.067 26.533l95.333 95.333-440.8-0.267c-10.267 0-19.067 3.733-26.533 11.2-7.6 7.6-11.467 16.533-11.467 26.533s3.867 18.933 11.467 26.533c7.467 7.467 16.267 11.2 26.4 11.067h440.933l-95.333 95.333c-7.333 7.333-11.067 16.133-11.067 26.533s3.733 19.2 11.067 26.533 16.133 11.067 26.533 11.067c10.4 0 19.2-3.733 26.533-11.067l159.467-159.467c7.333-7.2 11.067-16 11.067-26.4z" />
<glyph unicode="&#xe60e;" d="M822.267 255.467c-3.733-2.267-8-4.133-13.2-5.733-5.067-1.467-10.533-1.467-16.267 0.267s-11.2 5.2-16.533 10.533c-6.8 6.8-10.4 14.933-10.933 24.667-0.533 9.6 2.267 18.133 8.4 25.6 26.533 32.4 46.4 68.4 59.467 107.867s18.533 80.267 16.533 122.133c-1.6 41.2-10.8 80.8-27.467 118.8-17.2 39.333-40.933 74.133-71.2 104.4-32.533 32.533-69.733 57.333-111.733 74.267-39.733 16.133-82.267 24.533-127.467 24.933-45.2-0.4-87.733-8.667-127.467-24.933-41.867-16.933-79.067-41.733-111.6-74.267-30.267-30.267-54-65.067-71.2-104.4-16.667-37.867-25.733-77.467-27.467-118.8-2.133-42 3.467-82.667 16.533-122.133s32.933-75.467 59.467-107.867c6.133-7.467 8.933-16 8.4-25.6s-4.133-17.867-10.933-24.667c-8-8-17.6-11.733-28.533-11.067-11.067 0.667-20.133 5.2-27.333 13.867-32.267 39.467-56.4 83.333-72.4 131.733s-22.8 98.133-20.4 149.2c2.4 50.267 13.6 98.667 33.6 145.333 20.933 48 49.867 90.533 86.933 127.733 39.733 39.733 85.333 70 136.8 90.667 48.4 19.867 100.267 30.133 155.467 30.533 55.2-0.4 107.067-10.533 155.467-30.533 51.467-20.8 97.067-51.067 136.8-90.667 37.067-37.067 66.133-79.6 86.933-127.733 20.133-46.667 31.333-95.067 33.6-145.333 2.4-51.067-4.4-100.8-20.4-149.2s-40.133-92.267-72.4-131.733c-2.533-2.933-5.733-5.6-9.467-7.867zM512-44.267c-10.4 0-19.2 3.733-26.533 11.067l-159.467 159.467c-7.333 7.333-11.067 16.133-11.067 26.533s3.733 19.2 11.067 26.533 16.133 11.067 26.533 11.067 19.2-3.733 26.533-11.067l95.333-95.333-0.267 440.8c0 10.267 3.733 19.067 11.2 26.533 7.6 7.6 16.533 11.467 26.533 11.467 10.133 0 18.933-3.867 26.533-11.467 7.467-7.467 11.2-16.267 11.067-26.4v-440.933l95.333 95.333c7.333 7.333 16.133 11.067 26.533 11.067s19.2-3.733 26.533-11.067c7.333-7.333 11.067-16.133 11.067-26.533s-3.733-19.2-11.067-26.533l-159.333-159.467c-7.333-7.333-16.133-11.067-26.533-11.067z" />
<glyph unicode="&#xe60f;" d="M597.867 696.933c-7.333 7.333-16 10.933-26.4 10.933-10.267 0-19.067-3.6-26.4-10.933s-10.933-16-10.933-26.4v-223.467c0-10.533 3.6-19.333 10.8-26.533l111.733-111.733c7.2-7.2 16-10.8 26.533-10.8s19.333 3.6 26.533 10.8c7.2 7.2 10.8 16 10.8 26.533s-3.6 19.333-10.8 26.533l-100.933 100.667v208.133c0 10.267-3.6 19.067-10.933 26.267zM948.933 606.4c-21.6 50.533-50.8 94.133-87.333 130.667s-80.133 65.733-130.667 87.333c-50.533 21.6-103.6 32.4-159.333 32.4s-108.8-10.8-159.333-32.4-94.133-50.8-130.667-87.333c-15.467-15.467-29.467-32.133-42.267-50-17.467-24.533-32.533-51.467-45.067-80.667-15.2-35.467-29.6-95.2-29.6-147.6 0-6.933 0-11.733 0-11.733l-59.6 59.6c-7.333 7.333-16 10.933-26.4 10.933-10.267 0-19.067-3.6-26.4-10.933s-10.933-16-10.933-26.4c0-10.267 3.6-19.067 10.933-26.4l123.2-123.2c7.333-7.333 16-10.933 26.4-10.933 10.267 0 19.067 3.6 26.4 10.933l123.2 123.2c7.333 7.333 10.933 16 10.933 26.4 0 10.267-3.6 19.067-10.933 26.4s-16 10.933-26.4 10.933c-10.267 0-19.067-3.6-26.4-10.933l-59.6-59.6v13.6c0 48.267 11.867 88.933 23.733 116.667 17.733 41.467 41.6 77.067 71.467 106.933s65.6 53.733 106.933 71.467c41.467 17.733 84.8 26.667 130.267 26.667s88.8-8.933 130.267-26.667 77.067-41.6 106.933-71.467 53.733-65.6 71.467-106.933 26.667-84.8 26.667-130.267-8.933-88.8-26.667-130.267c-17.733-41.467-41.6-77.067-71.467-106.933s-65.6-53.733-106.933-71.467c-31.067-13.333-63.2-21.6-96.533-24.933-19.067-1.867-33.733-17.733-33.733-36.933v-0.267c0-21.867 18.8-39.067 40.533-36.933 41.067 4 80.667 14.133 118.8 30.533 50.533 21.6 94.133 50.8 130.667 87.333s65.733 80.133 87.333 130.667c21.6 50.533 32.4 103.6 32.4 159.333s-10.667 108.667-32.267 159.2z" />
<glyph unicode="&#xe610;" d="M396.667 576l115.333 354.933 115.333-354.933h373.333l-302-209.6 115.333-348.667-302 220.933-302-219.333 115.333 347.067-302 209.6h373.333z" />
<glyph unicode="&#xe611;" d="M512 928c-265.080 0-480-214.92-480-480s214.92-480 480-480 480 214.92 480 480-214.92 480-480 480zM512 48c-220.56 0-400 179.44-400 400s179.44 400 400 400 400-179.44 400-400-179.44-400-400-400zM316.32 701.24c0 0-0.12-0.12-0.16-0.12 0-0.040 0-0.040 0-0.040-0.080-0.040-0.12-0.12-0.16-0.12-0.040-0.040-0.040-0.040-0.080-0.080-0.080-0.040-0.2-0.16-0.28-0.2-0.040-0.040-0.040-0.040-0.040-0.040-0.080-0.080-0.12-0.080-0.16-0.12l-0.080-0.040c-0.040-0.040-0.080-0.040-0.12-0.12-0.040 0-0.12-0.040-0.16-0.080 0 0-0.040-0.040-0.080-0.080-0.080-0.040-0.12-0.080-0.2-0.16 0 0-0.080-0.040-0.080-0.080-0.080 0-0.12-0.080-0.16-0.080 0 0-0.040-0.080-0.080-0.080l-0.12-0.12c-0.040-0.040-0.040-0.040-0.040-0.040-0.12-0.080-0.2-0.16-0.28-0.2v-0.040c-0.080-0.040-0.16-0.080-0.2-0.16 0 0-0.040 0-0.080 0-0.040-0.080-0.12-0.12-0.16-0.16 0 0-0.040-0.040-0.080-0.080-0.16-0.080-0.28-0.2-0.44-0.28-0.040-0.040-0.040-0.040-0.040-0.040-0.080-0.040-0.16-0.12-0.2-0.2v0c-0.28-0.2-0.52-0.4-0.76-0.56v-0.040c-4.28-3.48-8.52-7-12.64-10.68-0.24-0.2-0.48-0.4-0.68-0.6h-0.040c-0.080-0.080-0.12-0.16-0.2-0.24h-0.040c-0.16-0.12-0.28-0.24-0.44-0.4h-0.040c-0.040-0.080-0.12-0.16-0.16-0.2 0-0.040-0.040-0.040-0.040-0.040-0.080-0.080-0.12-0.12-0.2-0.16v-0.040c-0.080 0-0.16-0.080-0.24-0.16 0 0-0.040 0-0.040-0.040l-0.16-0.16c-0.040-0.040-0.040-0.040-0.040-0.040-0.080-0.080-0.16-0.12-0.16-0.12-0.080-0.080-0.080-0.080-0.080-0.080-0.080-0.080-0.16-0.12-0.24-0.2 0 0 0 0-0.040-0.040l-0.16-0.16c-0.040-0.040-0.040-0.040-0.040-0.040-0.080-0.080-0.12-0.12-0.2-0.16 0-0.040-0.040-0.040-0.040-0.040l-0.16-0.2c0 0-0.040-0.040-0.080-0.080s-0.080-0.080-0.16-0.12c0 0-0.080-0.080-0.080-0.12 0 0-0.080-0.040-0.12-0.080s-0.080-0.040-0.12-0.040c0 0-0.040-0.080-0.080-0.12-0.080-0.040-0.12-0.12-0.16-0.12-0.040-0.080-0.080-0.080-0.16-0.16 0 0-0.040-0.080-0.080-0.080l-0.080-0.080c-0.080-0.040-0.12-0.080-0.16-0.12 0-0.040-0.040-0.040-0.040-0.040l-0.44-0.48h-0.040c-0.040-0.080-0.080-0.12-0.16-0.16 0 0 0 0-0.040-0.040s-0.080-0.040-0.080-0.040l27.28-29.28c8.48 7.88 17.6 15.4 27 22.2l-23.44 32.4c-2.84-2-5.64-4.12-8.44-6.28zM246.2 536.36l-37.96 12.6c-2.4-7.24-4.52-14.52-6.4-21.96-0.080-0.36-0.16-0.68-0.24-0.96h-0.040c0-0.080-0.040-0.16-0.040-0.24l-0.24-0.92c-0.040-0.080-0.040-0.16-0.080-0.24 0 0 0 0 0-0.040-0.080-0.32-0.16-0.6-0.24-0.88v-0.080c0-0.080-0.040-0.16-0.040-0.16v-0.080c-0.080-0.24-0.12-0.48-0.2-0.72 0-0.080-0.040-0.16-0.040-0.24-0.040-0.080-0.040-0.16-0.080-0.24v-0.040c-0.040-0.2-0.12-0.44-0.16-0.68 0 0 0 0 0-0.040-0.040-0.080-0.040-0.12-0.040-0.2 0-0.040 0-0.080-0.040-0.080 0-0.080-0.040-0.16-0.040-0.2v-0.040c-0.040-0.24-0.12-0.44-0.16-0.68 0-0.040 0-0.040 0-0.040-0.040-0.080-0.040-0.16-0.080-0.24-0.080-0.32-0.12-0.64-0.2-0.92v-0.040c-0.040-0.080-0.040-0.12-0.080-0.2v-0.080c-0.080-0.32-0.12-0.64-0.2-0.88v-0.040c0-0.040 0-0.12-0.040-0.2-0.040-0.24-0.080-0.48-0.16-0.72 0-0.080-0.040-0.16-0.040-0.24 0 0 0-0.040 0-0.080-0.040-0.040-0.040-0.12-0.040-0.2l-0.040-0.040c-0.040-0.32-0.12-0.64-0.2-0.92s-0.12-0.64-0.2-0.96c-0.040-0.080-0.040-0.16-0.040-0.24-0.28-1.28-0.56-2.6-0.84-3.88l39.24-7.76c2.32 11.4 5.32 22.8 8.96 33.8zM512 728c3.2 0 6.36-0.080 9.52-0.16l1.32 40c-2.68 0.080-5.36 0.12-8.12 0.16h-0.040c-0.080 0-0.2 0-0.2 0h-0.8c0 0 0 0-0.040 0h-0.28c-0.040 0-0.040 0-0.040 0h-0.68c0 0-0.040 0-0.080 0h-0.16c0 0-0.040 0-0.080 0h-0.64c0 0-0.040 0-0.080 0h-0.32c0 0-0.12 0-0.2 0 0 0-0.040 0-0.080 0h-0.2c0 0-0.040 0-0.080 0h-0.28c-0.040 0-0.040 0-0.040 0h-2.16c0 0-0.040 0-0.080 0h-0.28c-0.12 0-0.2 0-0.32-0.040h-0.32c0 0-0.040 0-0.080 0h-0.2c-0.040 0-0.080 0-0.080 0h-0.24c-0.040 0-0.040 0-0.040 0-0.24 0-0.44-0.040-0.64-0.040-0.040 0-0.040 0-0.040 0h-0.28c-0.040 0-0.040 0-0.040 0h-1.24c0 0 0 0-0.040 0h-0.28c-0.32 0-0.64-0.040-0.92-0.040-0.12 0-0.24 0-0.32-0.040h-1.6c-8.88-0.32-17.68-0.96-26.4-1.96-0.28-0.080-0.6-0.080-0.88-0.16h-0.32c-0.080 0-0.16-0.040-0.16-0.040-0.080 0-0.12 0-0.16-0.040h-0.2c-0.040 0-0.040 0-0.040 0-0.12 0-0.24-0.040-0.32-0.040-0.040 0-0.080-0.040-0.12-0.040h-0.32l-0.12-0.040h-0.12l4.96-39.68c11.56 1.44 23.32 2.16 35 2.16zM206.6 352.2v-0.080c0.040-0.16 0.12-0.36 0.16-0.56 0.040-0.12 0.080-0.2 0.080-0.32h0.040c3.96-12.48 8.64-24.64 14.040-36.4l36.36 16.64c-4.84 10.6-9.040 21.56-12.48 32.64l-38.2-11.92zM819 538.64c-3.16 10.8-6.92 21.4-11.2 31.68v0.040c-0.040 0.080-0.040 0.12-0.040 0.12l-0.040 0.12c-0.080 0.2-0.2 0.4-0.28 0.64v0c-0.040 0.040-0.080 0.12-0.080 0.2l-0.040 0.040c-0.040 0.040-0.040 0.12-0.080 0.2 0 0 0 0.040-0.040 0.080-0.040 0.080-0.080 0.16-0.12 0.28 0 0.040-0.040 0.080-0.040 0.12 0 0-0.040 0.080-0.040 0.12-0.040 0.040-0.040 0.12-0.040 0.12-0.040 0.080-0.080 0.080-0.080 0.16-0.040 0.040-0.040 0.080-0.080 0.16l-0.16 0.32c0 0.040 0 0.080 0 0.080-0.040 0.080-0.080 0.16-0.12 0.2 0 0 0 0.040 0 0.12-0.040 0.040-0.080 0.080-0.080 0.16-0.040 0-0.040 0.080-0.040 0.080l-0.12 0.24v-0.040c-0.040 0.080-0.080 0.2-0.12 0.28l-0.040 0.040c0 0.040-0.040 0.12-0.080 0.2 0 0.080 0 0.080 0 0.080-0.080 0.080-0.080 0.16-0.12 0.24l-0.4 0.88c-0.080 0.24-0.16 0.4-0.24 0.6l-36.68-16.040c4.68-10.64 8.72-21.64 12-32.8l38.4 11.28zM785.76 388.8c-2.48-11.36-5.68-22.68-9.48-33.64l37.72-13.24c0.84 2.36 1.64 4.76 2.44 7.2l1.040 3.28c2.84 9.16 5.32 18.48 7.4 27.96l-39.12 8.44zM700.36 706.72c0 0 0 0.040 0 0-0.2 0.16-0.36 0.28-0.56 0.44h-0.080c-0.040 0.040-0.080 0.040-0.12 0.080s-0.080 0.040-0.080 0.040c-0.040 0.080-0.12 0.080-0.12 0.080-0.080 0.080-0.16 0.16-0.16 0.16-0.040 0.080-0.080 0.080-0.12 0.080-0.040 0.080-0.080 0.080-0.16 0.12 0 0.040-0.040 0.040-0.080 0.080s-0.12 0.040-0.16 0.12c0 0-0.040 0-0.080 0.040-0.080 0.040-0.16 0.12-0.24 0.16s-0.16 0.12-0.24 0.2h-0.040c-0.080 0.080-0.12 0.12-0.2 0.16l-0.040 0.040c-7.48 5.32-15.12 10.36-23.040 15l-20.36-34.4c9.96-5.92 19.72-12.52 28.92-19.68l24.52 31.64c-2.44 1.88-4.88 3.72-7.4 5.56-0.040 0-0.080 0.040-0.16 0.080zM438.16 598.080c0 0-59.36-237.8-41.88-301.72 17.44-63.96 83.44-101.56 147.4-84.080 63.96 17.44 101.6 83.44 84.12 147.4-17.52 63.92-189.64 238.4-189.64 238.4zM533.080 250.84c-42.56-11.68-86.56 13.44-98.2 56.040s13.36 86.6 56.040 98.28c42.6 11.64 86.6-13.44 98.24-56.080 11.68-42.56-13.4-86.56-56.080-98.24z" />
<glyph unicode="&#xe612;" d="M512 960c-194.432 0-352-157.568-352-352 0-128.992 118.016-265.696 160.992-385.76 64.096-179.040 56.992-286.24 191.008-286.24 136 0 126.88 106.688 191.008 285.504 43.104 120.32 160.992 258.496 160.992 386.496 0 194.432-157.632 352-352 352zM594.944 90.368l-158.656-19.808c-5.664 16.384-11.744 35.552-19.136 60.576-0.096 0.32-0.224 0.672-0.288 0.992l198.016 24.736c-2.816-9.44-5.824-19.36-8.448-28.256-4.192-14.368-7.936-26.848-11.488-38.24zM407.552 162.944c-5.824 19.264-12.384 39.552-19.68 61.056h248.512c-3.936-11.488-7.872-23.008-11.264-33.888l-217.568-27.168zM512 0c-32.416 0-47.328 3.744-63.904 40l135.616 16.992c-19.648-52.928-33.952-56.992-71.712-56.992zM661.504 288h-298.656c-15.936 34.56-35.072 69.12-53.952 102.944-41.76 74.72-84.896 152-84.896 217.056 0 158.816 129.184 288 288 288s288-129.184 288-288c0-64.576-43.2-142.272-84.992-217.44-18.688-33.696-37.696-68.192-53.504-102.56zM512 800c8.8 0 16-7.168 16-16s-7.168-16-16-16c-88.224 0-160-71.776-160-160 0-8.832-7.168-16-16-16s-16 7.168-16 16c0 105.888 86.112 192 192 192z" />
<glyph unicode="&#xe613;" d="M552.515 934.036l-391.747-699.214 2.003-1.024 19.813-314.501 287.032 142.559 1.825-1.024 391.747 699.169-310.673 174.035zM247.319 30.424l-2.716 157.562 142.425-79.827-139.709-77.735zM437.292 181.976l-155.291 87.040 239.394 427.275 155.381-86.996-239.482-427.32zM543.121 735.158l43.587 77.69 155.291-87.040-43.497-77.646-155.381 86.996z" />
<glyph unicode="&#xe614;" d="M842.667 828.533l-244.4-281.733v-443.2l-169.733 112.133v331.067l-21.2 24.4-223.067 257.333h658.4zM939.6 915.2h-852.267c-18.667 0-31.733-8.667-39.333-26-7.6-18.133-4.4-33.733 9.333-46.667l284.533-328.267v-323.6c0-11.6 4.267-21.467 12.667-30l257.733-170.4c8-8.4 18-12.667 30-12.667 5.333 0 10.933 1.067 16.667 3.333 17.333 7.6 26 20.667 26 39.333v494.133l284.667 328.267c13.733 12.933 16.933 28.4 9.333 46.667-7.6 17.2-20.667 25.867-39.333 25.867v0z" />
<glyph unicode="&#xe627;" d="M512 819.2c-197.939 0-358.4-160.461-358.4-358.4s160.461-358.4 358.4-358.4c197.888 0 358.4 160.461 358.4 358.4s-160.512 358.4-358.4 358.4z" />
<glyph unicode="&#xf0ac;" d="M128 725.334h768q17.667 0 30.167-12.5t12.5-30.167-12.5-30.167-30.167-12.5h-768q-17.667 0-30.167 12.5t-12.5 30.167 12.5 30.167 30.167 12.5zM128 213.334h768q17.667 0 30.167-12.5t12.5-30.167-12.5-30.167-30.167-12.5h-768q-17.667 0-30.167 12.5t-12.5 30.167 12.5 30.167 30.167 12.5zM128 469.334h768q17.667 0 30.167-12.5t12.5-30.167-12.5-30.167-30.167-12.5h-768q-17.667 0-30.167 12.5t-12.5 30.167 12.5 30.167 30.167 12.5z" />
<glyph unicode="&#xf11c;" d="M0 155.429v512q0 30.286 21.429 51.714t51.714 21.429h950.857q30.286 0 51.714-21.429t21.429-51.714v-512q0-30.286-21.429-51.714t-51.714-21.429h-950.857q-30.286 0-51.714 21.429t-21.429 51.714zM73.143 155.429h950.857v512h-950.857v-512zM146.286 237.714v54.857q0 9.143 9.143 9.143h54.857q9.143 0 9.143-9.143v-54.857q0-9.143-9.143-9.143h-54.857q-9.143 0-9.143 9.143zM146.286 384v54.857q0 9.143 9.143 9.143h128q9.143 0 9.143-9.143v-54.857q0-9.143-9.143-9.143h-128q-9.143 0-9.143 9.143zM146.286 530.286v54.857q0 9.143 9.143 9.143h54.857q9.143 0 9.143-9.143v-54.857q0-9.143-9.143-9.143h-54.857q-9.143 0-9.143 9.143zM292.571 237.714v54.857q0 9.143 9.143 9.143h493.714q9.143 0 9.143-9.143v-54.857q0-9.143-9.143-9.143h-493.714q-9.143 0-9.143 9.143zM292.571 530.286v54.857q0 9.143 9.143 9.143h54.857q9.143 0 9.143-9.143v-54.857q0-9.143-9.143-9.143h-54.857q-9.143 0-9.143 9.143zM365.714 384v54.857q0 9.143 9.143 9.143h54.857q9.143 0 9.143-9.143v-54.857q0-9.143-9.143-9.143h-54.857q-9.143 0-9.143 9.143zM438.857 530.286v54.857q0 9.143 9.143 9.143h54.857q9.143 0 9.143-9.143v-54.857q0-9.143-9.143-9.143h-54.857q-9.143 0-9.143 9.143zM512 384v54.857q0 9.143 9.143 9.143h54.857q9.143 0 9.143-9.143v-54.857q0-9.143-9.143-9.143h-54.857q-9.143 0-9.143 9.143zM585.143 530.286v54.857q0 9.143 9.143 9.143h54.857q9.143 0 9.143-9.143v-54.857q0-9.143-9.143-9.143h-54.857q-9.143 0-9.143 9.143zM658.286 384v54.857q0 9.143 9.143 9.143h54.857q9.143 0 9.143-9.143v-54.857q0-9.143-9.143-9.143h-54.857q-9.143 0-9.143 9.143zM731.429 530.286v54.857q0 9.143 9.143 9.143h54.857q9.143 0 9.143-9.143v-54.857q0-9.143-9.143-9.143h-54.857q-9.143 0-9.143 9.143zM804.571 384v54.857q0 9.143 9.143 9.143h64v137.143q0 9.143 9.143 9.143h54.857q9.143 0 9.143-9.143v-201.143q0-9.143-9.143-9.143h-128q-9.143 0-9.143 9.143zM877.714 237.714v54.857q0 9.143 9.143 9.143h54.857q9.143 0 9.143-9.143v-54.857q0-9.143-9.143-9.143h-54.857q-9.143 0-9.143 9.143z" horiz-adv-x="1097" />
</font>
</defs>
</svg>
