<?xml version="1.0" encoding="utf-8"?>
<!-- Generator: Adobe Illustrator 16.2.1, SVG Export Plug-In . SVG Version: 6.00 Build 0)  -->
<!DOCTYPE svg PUBLIC "-//W3C//DTD SVG 1.1//EN" "http://www.w3.org/Graphics/SVG/1.1/DTD/svg11.dtd">
<svg version="1.1" id="Layer_1" xmlns="http://www.w3.org/2000/svg" xmlns:xlink="http://www.w3.org/1999/xlink" x="0px" y="0px"
	 width="116.903px" height="115.901px" viewBox="0 0 116.903 115.901" enable-background="new 0 0 116.903 115.901"
	 xml:space="preserve">
<g>
	<g>
		<path fill="#444445" d="M116.438,50.569c0.12,0.966,0.221,1.942,0.294,2.921C116.659,52.511,116.559,51.536,116.438,50.569z"/>
		<path fill="#444445" d="M12.589,23.181C7.262,30.266,3.526,38.612,1.904,47.693C3.526,38.612,7.262,30.266,12.589,23.181
			L12.589,23.181z"/>
		<path fill="#444445" d="M58.946,0c28.51,0,52.203,20.579,57.051,47.693C111.149,20.579,87.456,0,58.946,0
			C49.713,0,40.98,2.162,33.232,6.009v0.002C40.98,2.162,49.713,0,58.946,0z"/>
		<path fill="#444445" d="M1.168,53.491c0.076-0.979,0.174-1.955,0.294-2.921C1.342,51.536,1.244,52.511,1.168,53.491z"/>
		<path fill="#444445" d="M1,57.949c0,28.506,20.579,52.2,47.693,57.046C21.579,110.148,1,86.455,1,57.949z"/>
		<path fill="#444445" d="M54.49,115.73c-0.981-0.073-1.955-0.17-2.923-0.294C52.535,115.561,53.509,115.657,54.49,115.73z"/>
		<path fill="#444445" d="M66.333,115.437c-0.976,0.124-1.943,0.221-2.923,0.294C64.39,115.657,65.357,115.561,66.333,115.437z"/>
		<path fill="#4E9FDD" d="M20.487,87.654l22.375-27.017l3.482,4.736l16.922-2.065l2.518,3.99l-7.728,9.271l46.908,16.605
			c7.49-9.764,11.939-21.975,11.939-35.227c0-1.499-0.062-2.985-0.171-4.458c-0.073-0.979-0.174-1.955-0.294-2.921
			c-0.124-0.966-0.268-1.926-0.441-2.876C111.149,20.579,87.456,0,58.946,0C49.713,0,40.98,2.162,33.232,6.011L97.89,28.768
			L73.624,57.887l-4.441-7.04l-17.485,2.131l-1.173-1.593l9.401-11.359L12.589,23.181C7.262,30.266,3.526,38.612,1.904,47.693
			c-0.17,0.95-0.318,1.91-0.441,2.876c-0.12,0.966-0.219,1.942-0.294,2.921C1.056,54.964,1,56.45,1,57.949
			c0,28.506,20.579,52.2,47.693,57.046c0.953,0.171,1.909,0.317,2.875,0.441c0.968,0.124,1.941,0.221,2.923,0.294
			c1.472,0.117,2.962,0.171,4.456,0.171c1.502,0,2.989-0.054,4.464-0.171c0.979-0.073,1.947-0.17,2.923-0.294
			c0.969-0.124,1.925-0.271,2.873-0.441c5.23-0.933,10.217-2.57,14.859-4.804L20.487,87.654z"/>
	</g>
	<g opacity="0.5">
		<path opacity="0.1" fill="#231F20" d="M38.23,96.18c-9.991,0-19.43-2.354-27.802-6.543c8.564,13.086,22.275,22.506,38.264,25.358
			c0.953,0.171,1.909,0.317,2.875,0.441c0.968,0.124,1.941,0.221,2.923,0.294c1.472,0.117,2.962,0.171,4.456,0.171
			c1.502,0,2.989-0.054,4.464-0.171c0.979-0.073,1.947-0.17,2.923-0.294c0.969-0.124,1.925-0.271,2.873-0.441
			c5.23-0.933,10.217-2.57,14.859-4.8L43.818,95.924C41.978,96.095,40.115,96.18,38.23,96.18z"/>
		<path opacity="0.1" fill="#231F20" d="M116.732,53.491c-0.073-0.979-0.174-1.955-0.294-2.921
			c-0.124-0.966-0.268-1.926-0.441-2.876c-2.33-13.045-9.032-24.567-18.525-33.024c1.963,6.059,3.031,12.524,3.031,19.238
			c0,19.991-9.423,37.778-24.064,49.171l28.525,10.098c7.49-9.764,11.939-21.975,11.939-35.225
			C116.903,56.45,116.841,54.964,116.732,53.491z"/>
	</g>
</g>
</svg>
