<?xml version="1.0" encoding="utf-8"?>
<!-- Generator: Adobe Illustrator 18.0.0, SVG Export Plug-In . SVG Version: 6.00 Build 0)  -->
<!DOCTYPE svg PUBLIC "-//W3C//DTD SVG 1.1//EN" "http://www.w3.org/Graphics/SVG/1.1/DTD/svg11.dtd">
<svg version="1.1" id="Layer_1" xmlns="http://www.w3.org/2000/svg" xmlns:xlink="http://www.w3.org/1999/xlink" x="0px" y="0px"
	 width="768px" height="768px" viewBox="0 0 768 768" enable-background="new 0 0 768 768" xml:space="preserve">
<g>
	<line opacity="0.3" fill="none" stroke="#449FDB" enable-background="new    " x1="16" y1="0" x2="16" y2="768"/>
	<line fill="none" stroke="#449FDB" x1="32" y1="0" x2="32" y2="768"/>
	<line opacity="0.3" fill="none" stroke="#449FDB" enable-background="new    " x1="48" y1="0" x2="48" y2="768"/>
	<line fill="none" stroke="#449FDB" x1="64" y1="0" x2="64" y2="768"/>
	<line opacity="0.3" fill="none" stroke="#449FDB" enable-background="new    " x1="80" y1="0" x2="80" y2="768"/>
	<line fill="none" stroke="#449FDB" x1="96" y1="0" x2="96" y2="768"/>
	<line opacity="0.3" fill="none" stroke="#449FDB" enable-background="new    " x1="112" y1="0" x2="112" y2="768"/>
	<line fill="none" stroke="#449FDB" x1="128" y1="0" x2="128" y2="768"/>
	<line opacity="0.3" fill="none" stroke="#449FDB" enable-background="new    " x1="144" y1="0" x2="144" y2="768"/>
	<line fill="none" stroke="#449FDB" x1="160" y1="0" x2="160" y2="768"/>
	<line opacity="0.3" fill="none" stroke="#449FDB" enable-background="new    " x1="176" y1="0" x2="176" y2="768"/>
	<line fill="none" stroke="#449FDB" x1="192" y1="0" x2="192" y2="768"/>
	<line opacity="0.3" fill="none" stroke="#449FDB" enable-background="new    " x1="208" y1="0" x2="208" y2="768"/>
	<line fill="none" stroke="#449FDB" x1="224" y1="0" x2="224" y2="768"/>
	<line opacity="0.3" fill="none" stroke="#449FDB" enable-background="new    " x1="240" y1="0" x2="240" y2="768"/>
	<line fill="none" stroke="#449FDB" x1="256" y1="0" x2="256" y2="768"/>
	<line opacity="0.3" fill="none" stroke="#449FDB" enable-background="new    " x1="272" y1="0" x2="272" y2="768"/>
	<line fill="none" stroke="#449FDB" x1="288" y1="0" x2="288" y2="768"/>
	<line opacity="0.3" fill="none" stroke="#449FDB" enable-background="new    " x1="304" y1="0" x2="304" y2="768"/>
	<line fill="none" stroke="#449FDB" x1="320" y1="0" x2="320" y2="768"/>
	<line opacity="0.3" fill="none" stroke="#449FDB" enable-background="new    " x1="336" y1="0" x2="336" y2="768"/>
	<line fill="none" stroke="#449FDB" x1="352" y1="0" x2="352" y2="768"/>
	<line opacity="0.3" fill="none" stroke="#449FDB" enable-background="new    " x1="368" y1="0" x2="368" y2="768"/>
	<line fill="none" stroke="#449FDB" x1="384" y1="0" x2="384" y2="768"/>
	<line opacity="0.3" fill="none" stroke="#449FDB" enable-background="new    " x1="400" y1="0" x2="400" y2="768"/>
	<line fill="none" stroke="#449FDB" x1="416" y1="0" x2="416" y2="768"/>
	<line opacity="0.3" fill="none" stroke="#449FDB" enable-background="new    " x1="432" y1="0" x2="432" y2="768"/>
	<line fill="none" stroke="#449FDB" x1="448" y1="0" x2="448" y2="768"/>
	<line opacity="0.3" fill="none" stroke="#449FDB" enable-background="new    " x1="464" y1="0" x2="464" y2="768"/>
	<line fill="none" stroke="#449FDB" x1="480" y1="0" x2="480" y2="768"/>
	<line opacity="0.3" fill="none" stroke="#449FDB" enable-background="new    " x1="496" y1="0" x2="496" y2="768"/>
	<line fill="none" stroke="#449FDB" x1="512" y1="0" x2="512" y2="768"/>
	<line opacity="0.3" fill="none" stroke="#449FDB" enable-background="new    " x1="528" y1="0" x2="528" y2="768"/>
	<line fill="none" stroke="#449FDB" x1="544" y1="0" x2="544" y2="768"/>
	<line opacity="0.3" fill="none" stroke="#449FDB" enable-background="new    " x1="560" y1="0" x2="560" y2="768"/>
	<line fill="none" stroke="#449FDB" x1="576" y1="0" x2="576" y2="768"/>
	<line opacity="0.3" fill="none" stroke="#449FDB" enable-background="new    " x1="592" y1="0" x2="592" y2="768"/>
	<line fill="none" stroke="#449FDB" x1="608" y1="0" x2="608" y2="768"/>
	<line opacity="0.3" fill="none" stroke="#449FDB" enable-background="new    " x1="624" y1="0" x2="624" y2="768"/>
	<line fill="none" stroke="#449FDB" x1="640" y1="0" x2="640" y2="768"/>
	<line opacity="0.3" fill="none" stroke="#449FDB" enable-background="new    " x1="656" y1="0" x2="656" y2="768"/>
	<line fill="none" stroke="#449FDB" x1="672" y1="0" x2="672" y2="768"/>
	<line opacity="0.3" fill="none" stroke="#449FDB" enable-background="new    " x1="688" y1="0" x2="688" y2="768"/>
	<line fill="none" stroke="#449FDB" x1="704" y1="0" x2="704" y2="768"/>
	<line opacity="0.3" fill="none" stroke="#449FDB" enable-background="new    " x1="720" y1="0" x2="720" y2="768"/>
	<line fill="none" stroke="#449FDB" x1="736" y1="0" x2="736" y2="768"/>
	<line opacity="0.3" fill="none" stroke="#449FDB" enable-background="new    " x1="752" y1="0" x2="752" y2="768"/>
	<line opacity="0.3" fill="none" stroke="#449FDB" enable-background="new    " x1="0" y1="16" x2="768" y2="16"/>
	<line fill="none" stroke="#449FDB" x1="0" y1="32" x2="768" y2="32"/>
	<line opacity="0.3" fill="none" stroke="#449FDB" enable-background="new    " x1="0" y1="48" x2="768" y2="48"/>
	<line fill="none" stroke="#449FDB" x1="0" y1="64" x2="768" y2="64"/>
	<line opacity="0.3" fill="none" stroke="#449FDB" enable-background="new    " x1="0" y1="80" x2="768" y2="80"/>
	<line fill="none" stroke="#449FDB" x1="0" y1="96" x2="768" y2="96"/>
	<line opacity="0.3" fill="none" stroke="#449FDB" enable-background="new    " x1="0" y1="112" x2="768" y2="112"/>
	<line fill="none" stroke="#449FDB" x1="0" y1="128" x2="768" y2="128"/>
	<line opacity="0.3" fill="none" stroke="#449FDB" enable-background="new    " x1="0" y1="144" x2="768" y2="144"/>
	<line fill="none" stroke="#449FDB" x1="0" y1="160" x2="768" y2="160"/>
	<line opacity="0.3" fill="none" stroke="#449FDB" enable-background="new    " x1="0" y1="176" x2="768" y2="176"/>
	<line fill="none" stroke="#449FDB" x1="0" y1="192" x2="768" y2="192"/>
	<line opacity="0.3" fill="none" stroke="#449FDB" enable-background="new    " x1="0" y1="208" x2="768" y2="208"/>
	<line fill="none" stroke="#449FDB" x1="0" y1="224" x2="768" y2="224"/>
	<line opacity="0.3" fill="none" stroke="#449FDB" enable-background="new    " x1="0" y1="240" x2="768" y2="240"/>
	<line fill="none" stroke="#449FDB" x1="0" y1="256" x2="768" y2="256"/>
	<line opacity="0.3" fill="none" stroke="#449FDB" enable-background="new    " x1="0" y1="272" x2="768" y2="272"/>
	<line fill="none" stroke="#449FDB" x1="0" y1="288" x2="768" y2="288"/>
	<line opacity="0.3" fill="none" stroke="#449FDB" enable-background="new    " x1="0" y1="304" x2="768" y2="304"/>
	<line fill="none" stroke="#449FDB" x1="0" y1="320" x2="768" y2="320"/>
	<line opacity="0.3" fill="none" stroke="#449FDB" enable-background="new    " x1="0" y1="336" x2="768" y2="336"/>
	<line fill="none" stroke="#449FDB" x1="0" y1="352" x2="768" y2="352"/>
	<line opacity="0.3" fill="none" stroke="#449FDB" enable-background="new    " x1="0" y1="368" x2="768" y2="368"/>
	<line fill="none" stroke="#449FDB" x1="0" y1="384" x2="768" y2="384"/>
	<line opacity="0.3" fill="none" stroke="#449FDB" enable-background="new    " x1="0" y1="400" x2="768" y2="400"/>
	<line fill="none" stroke="#449FDB" x1="0" y1="416" x2="768" y2="416"/>
	<line opacity="0.3" fill="none" stroke="#449FDB" enable-background="new    " x1="0" y1="432" x2="768" y2="432"/>
	<line fill="none" stroke="#449FDB" x1="0" y1="448" x2="768" y2="448"/>
	<line opacity="0.3" fill="none" stroke="#449FDB" enable-background="new    " x1="0" y1="464" x2="768" y2="464"/>
	<line fill="none" stroke="#449FDB" x1="0" y1="480" x2="768" y2="480"/>
	<line opacity="0.3" fill="none" stroke="#449FDB" enable-background="new    " x1="0" y1="496" x2="768" y2="496"/>
	<line fill="none" stroke="#449FDB" x1="0" y1="512" x2="768" y2="512"/>
	<line opacity="0.3" fill="none" stroke="#449FDB" enable-background="new    " x1="0" y1="528" x2="768" y2="528"/>
	<line fill="none" stroke="#449FDB" x1="0" y1="544" x2="768" y2="544"/>
	<line opacity="0.3" fill="none" stroke="#449FDB" enable-background="new    " x1="0" y1="560" x2="768" y2="560"/>
	<line fill="none" stroke="#449FDB" x1="0" y1="576" x2="768" y2="576"/>
	<line opacity="0.3" fill="none" stroke="#449FDB" enable-background="new    " x1="0" y1="592" x2="768" y2="592"/>
	<line fill="none" stroke="#449FDB" x1="0" y1="608" x2="768" y2="608"/>
	<line opacity="0.3" fill="none" stroke="#449FDB" enable-background="new    " x1="0" y1="624" x2="768" y2="624"/>
	<line fill="none" stroke="#449FDB" x1="0" y1="640" x2="768" y2="640"/>
	<line opacity="0.3" fill="none" stroke="#449FDB" enable-background="new    " x1="0" y1="656" x2="768" y2="656"/>
	<line fill="none" stroke="#449FDB" x1="0" y1="672" x2="768" y2="672"/>
	<line opacity="0.3" fill="none" stroke="#449FDB" enable-background="new    " x1="0" y1="688" x2="768" y2="688"/>
	<line fill="none" stroke="#449FDB" x1="0" y1="704" x2="768" y2="704"/>
	<line opacity="0.3" fill="none" stroke="#449FDB" enable-background="new    " x1="0" y1="720" x2="768" y2="720"/>
	<line fill="none" stroke="#449FDB" x1="0" y1="736" x2="768" y2="736"/>
	<line opacity="0.3" fill="none" stroke="#449FDB" enable-background="new    " x1="0" y1="752" x2="768" y2="752"/>
</g>
<g>
	<path d="M384,64c60.7,0,117.8,23.6,160.8,66.6c42.9,42.9,66.6,100,66.6,160.7c0,32.6-15.7,75.7-28.9,106.1
		c-18,41.5-44,88.9-75.2,136.9c-27.7,42.6-58.9,84.8-87.8,118.8c-16.8,19.7-29.4,32.7-38.3,41.1c-9-7.8-21.8-20.4-38.9-40.2
		c-28.1-32.6-58.6-74.4-85.9-117.8c-61.5-97.8-99.7-191.6-99.7-244.9c0-60.7,23.6-117.8,66.6-160.7C266.2,87.6,323.3,64,384,64
		 M384,0C223.1,0,92.7,130.4,92.7,291.3C92.7,452.3,321.5,768,384,768c46.2,0,291.4-315.7,291.4-476.7C675.3,130.4,544.9,0,384,0
		L384,0z"/>
</g>
<g>
	<path d="M382.7,213.7c40.3,0,73,32.7,73,73s-32.7,73-73,73s-73-32.7-73-73S342.4,213.7,382.7,213.7 M382.7,149.7
		c-75.7,0-137,61.3-137,137s61.3,137,137,137c75.7,0,137-61.3,137-137S458.3,149.7,382.7,149.7L382.7,149.7z"/>
</g>
</svg>
