<?xml version="1.0" encoding="utf-8"?>
<!-- Generator: Adobe Illustrator 18.0.0, SVG Export Plug-In . SVG Version: 6.00 Build 0)  -->
<!DOCTYPE svg PUBLIC "-//W3C//DTD SVG 1.1//EN" "http://www.w3.org/Graphics/SVG/1.1/DTD/svg11.dtd">
<svg version="1.1" id="Layer_1" xmlns="http://www.w3.org/2000/svg" xmlns:xlink="http://www.w3.org/1999/xlink" x="0px" y="0px"
	 width="768px" height="768px" viewBox="0 0 768 768" enable-background="new 0 0 768 768" xml:space="preserve">
<g>
	<line opacity="0.3" fill="none" stroke="#449FDB" enable-background="new    " x1="16" y1="0" x2="16" y2="768"/>
	<line fill="none" stroke="#449FDB" x1="32" y1="0" x2="32" y2="768"/>
	<line opacity="0.3" fill="none" stroke="#449FDB" enable-background="new    " x1="48" y1="0" x2="48" y2="768"/>
	<line fill="none" stroke="#449FDB" x1="64" y1="0" x2="64" y2="768"/>
	<line opacity="0.3" fill="none" stroke="#449FDB" enable-background="new    " x1="80" y1="0" x2="80" y2="768"/>
	<line fill="none" stroke="#449FDB" x1="96" y1="0" x2="96" y2="768"/>
	<line opacity="0.3" fill="none" stroke="#449FDB" enable-background="new    " x1="112" y1="0" x2="112" y2="768"/>
	<line fill="none" stroke="#449FDB" x1="128" y1="0" x2="128" y2="768"/>
	<line opacity="0.3" fill="none" stroke="#449FDB" enable-background="new    " x1="144" y1="0" x2="144" y2="768"/>
	<line fill="none" stroke="#449FDB" x1="160" y1="0" x2="160" y2="768"/>
	<line opacity="0.3" fill="none" stroke="#449FDB" enable-background="new    " x1="176" y1="0" x2="176" y2="768"/>
	<line fill="none" stroke="#449FDB" x1="192" y1="0" x2="192" y2="768"/>
	<line opacity="0.3" fill="none" stroke="#449FDB" enable-background="new    " x1="208" y1="0" x2="208" y2="768"/>
	<line fill="none" stroke="#449FDB" x1="224" y1="0" x2="224" y2="768"/>
	<line opacity="0.3" fill="none" stroke="#449FDB" enable-background="new    " x1="240" y1="0" x2="240" y2="768"/>
	<line fill="none" stroke="#449FDB" x1="256" y1="0" x2="256" y2="768"/>
	<line opacity="0.3" fill="none" stroke="#449FDB" enable-background="new    " x1="272" y1="0" x2="272" y2="768"/>
	<line fill="none" stroke="#449FDB" x1="288" y1="0" x2="288" y2="768"/>
	<line opacity="0.3" fill="none" stroke="#449FDB" enable-background="new    " x1="304" y1="0" x2="304" y2="768"/>
	<line fill="none" stroke="#449FDB" x1="320" y1="0" x2="320" y2="768"/>
	<line opacity="0.3" fill="none" stroke="#449FDB" enable-background="new    " x1="336" y1="0" x2="336" y2="768"/>
	<line fill="none" stroke="#449FDB" x1="352" y1="0" x2="352" y2="768"/>
	<line opacity="0.3" fill="none" stroke="#449FDB" enable-background="new    " x1="368" y1="0" x2="368" y2="768"/>
	<line fill="none" stroke="#449FDB" x1="384" y1="0" x2="384" y2="768"/>
	<line opacity="0.3" fill="none" stroke="#449FDB" enable-background="new    " x1="400" y1="0" x2="400" y2="768"/>
	<line fill="none" stroke="#449FDB" x1="416" y1="0" x2="416" y2="768"/>
	<line opacity="0.3" fill="none" stroke="#449FDB" enable-background="new    " x1="432" y1="0" x2="432" y2="768"/>
	<line fill="none" stroke="#449FDB" x1="448" y1="0" x2="448" y2="768"/>
	<line opacity="0.3" fill="none" stroke="#449FDB" enable-background="new    " x1="464" y1="0" x2="464" y2="768"/>
	<line fill="none" stroke="#449FDB" x1="480" y1="0" x2="480" y2="768"/>
	<line opacity="0.3" fill="none" stroke="#449FDB" enable-background="new    " x1="496" y1="0" x2="496" y2="768"/>
	<line fill="none" stroke="#449FDB" x1="512" y1="0" x2="512" y2="768"/>
	<line opacity="0.3" fill="none" stroke="#449FDB" enable-background="new    " x1="528" y1="0" x2="528" y2="768"/>
	<line fill="none" stroke="#449FDB" x1="544" y1="0" x2="544" y2="768"/>
	<line opacity="0.3" fill="none" stroke="#449FDB" enable-background="new    " x1="560" y1="0" x2="560" y2="768"/>
	<line fill="none" stroke="#449FDB" x1="576" y1="0" x2="576" y2="768"/>
	<line opacity="0.3" fill="none" stroke="#449FDB" enable-background="new    " x1="592" y1="0" x2="592" y2="768"/>
	<line fill="none" stroke="#449FDB" x1="608" y1="0" x2="608" y2="768"/>
	<line opacity="0.3" fill="none" stroke="#449FDB" enable-background="new    " x1="624" y1="0" x2="624" y2="768"/>
	<line fill="none" stroke="#449FDB" x1="640" y1="0" x2="640" y2="768"/>
	<line opacity="0.3" fill="none" stroke="#449FDB" enable-background="new    " x1="656" y1="0" x2="656" y2="768"/>
	<line fill="none" stroke="#449FDB" x1="672" y1="0" x2="672" y2="768"/>
	<line opacity="0.3" fill="none" stroke="#449FDB" enable-background="new    " x1="688" y1="0" x2="688" y2="768"/>
	<line fill="none" stroke="#449FDB" x1="704" y1="0" x2="704" y2="768"/>
	<line opacity="0.3" fill="none" stroke="#449FDB" enable-background="new    " x1="720" y1="0" x2="720" y2="768"/>
	<line fill="none" stroke="#449FDB" x1="736" y1="0" x2="736" y2="768"/>
	<line opacity="0.3" fill="none" stroke="#449FDB" enable-background="new    " x1="752" y1="0" x2="752" y2="768"/>
	<line opacity="0.3" fill="none" stroke="#449FDB" enable-background="new    " x1="0" y1="16" x2="768" y2="16"/>
	<line fill="none" stroke="#449FDB" x1="0" y1="32" x2="768" y2="32"/>
	<line opacity="0.3" fill="none" stroke="#449FDB" enable-background="new    " x1="0" y1="48" x2="768" y2="48"/>
	<line fill="none" stroke="#449FDB" x1="0" y1="64" x2="768" y2="64"/>
	<line opacity="0.3" fill="none" stroke="#449FDB" enable-background="new    " x1="0" y1="80" x2="768" y2="80"/>
	<line fill="none" stroke="#449FDB" x1="0" y1="96" x2="768" y2="96"/>
	<line opacity="0.3" fill="none" stroke="#449FDB" enable-background="new    " x1="0" y1="112" x2="768" y2="112"/>
	<line fill="none" stroke="#449FDB" x1="0" y1="128" x2="768" y2="128"/>
	<line opacity="0.3" fill="none" stroke="#449FDB" enable-background="new    " x1="0" y1="144" x2="768" y2="144"/>
	<line fill="none" stroke="#449FDB" x1="0" y1="160" x2="768" y2="160"/>
	<line opacity="0.3" fill="none" stroke="#449FDB" enable-background="new    " x1="0" y1="176" x2="768" y2="176"/>
	<line fill="none" stroke="#449FDB" x1="0" y1="192" x2="768" y2="192"/>
	<line opacity="0.3" fill="none" stroke="#449FDB" enable-background="new    " x1="0" y1="208" x2="768" y2="208"/>
	<line fill="none" stroke="#449FDB" x1="0" y1="224" x2="768" y2="224"/>
	<line opacity="0.3" fill="none" stroke="#449FDB" enable-background="new    " x1="0" y1="240" x2="768" y2="240"/>
	<line fill="none" stroke="#449FDB" x1="0" y1="256" x2="768" y2="256"/>
	<line opacity="0.3" fill="none" stroke="#449FDB" enable-background="new    " x1="0" y1="272" x2="768" y2="272"/>
	<line fill="none" stroke="#449FDB" x1="0" y1="288" x2="768" y2="288"/>
	<line opacity="0.3" fill="none" stroke="#449FDB" enable-background="new    " x1="0" y1="304" x2="768" y2="304"/>
	<line fill="none" stroke="#449FDB" x1="0" y1="320" x2="768" y2="320"/>
	<line opacity="0.3" fill="none" stroke="#449FDB" enable-background="new    " x1="0" y1="336" x2="768" y2="336"/>
	<line fill="none" stroke="#449FDB" x1="0" y1="352" x2="768" y2="352"/>
	<line opacity="0.3" fill="none" stroke="#449FDB" enable-background="new    " x1="0" y1="368" x2="768" y2="368"/>
	<line fill="none" stroke="#449FDB" x1="0" y1="384" x2="768" y2="384"/>
	<line opacity="0.3" fill="none" stroke="#449FDB" enable-background="new    " x1="0" y1="400" x2="768" y2="400"/>
	<line fill="none" stroke="#449FDB" x1="0" y1="416" x2="768" y2="416"/>
	<line opacity="0.3" fill="none" stroke="#449FDB" enable-background="new    " x1="0" y1="432" x2="768" y2="432"/>
	<line fill="none" stroke="#449FDB" x1="0" y1="448" x2="768" y2="448"/>
	<line opacity="0.3" fill="none" stroke="#449FDB" enable-background="new    " x1="0" y1="464" x2="768" y2="464"/>
	<line fill="none" stroke="#449FDB" x1="0" y1="480" x2="768" y2="480"/>
	<line opacity="0.3" fill="none" stroke="#449FDB" enable-background="new    " x1="0" y1="496" x2="768" y2="496"/>
	<line fill="none" stroke="#449FDB" x1="0" y1="512" x2="768" y2="512"/>
	<line opacity="0.3" fill="none" stroke="#449FDB" enable-background="new    " x1="0" y1="528" x2="768" y2="528"/>
	<line fill="none" stroke="#449FDB" x1="0" y1="544" x2="768" y2="544"/>
	<line opacity="0.3" fill="none" stroke="#449FDB" enable-background="new    " x1="0" y1="560" x2="768" y2="560"/>
	<line fill="none" stroke="#449FDB" x1="0" y1="576" x2="768" y2="576"/>
	<line opacity="0.3" fill="none" stroke="#449FDB" enable-background="new    " x1="0" y1="592" x2="768" y2="592"/>
	<line fill="none" stroke="#449FDB" x1="0" y1="608" x2="768" y2="608"/>
	<line opacity="0.3" fill="none" stroke="#449FDB" enable-background="new    " x1="0" y1="624" x2="768" y2="624"/>
	<line fill="none" stroke="#449FDB" x1="0" y1="640" x2="768" y2="640"/>
	<line opacity="0.3" fill="none" stroke="#449FDB" enable-background="new    " x1="0" y1="656" x2="768" y2="656"/>
	<line fill="none" stroke="#449FDB" x1="0" y1="672" x2="768" y2="672"/>
	<line opacity="0.3" fill="none" stroke="#449FDB" enable-background="new    " x1="0" y1="688" x2="768" y2="688"/>
	<line fill="none" stroke="#449FDB" x1="0" y1="704" x2="768" y2="704"/>
	<line opacity="0.3" fill="none" stroke="#449FDB" enable-background="new    " x1="0" y1="720" x2="768" y2="720"/>
	<line fill="none" stroke="#449FDB" x1="0" y1="736" x2="768" y2="736"/>
	<line opacity="0.3" fill="none" stroke="#449FDB" enable-background="new    " x1="0" y1="752" x2="768" y2="752"/>
</g>
<path d="M528,288c16.6,0,30.7,5.9,42.4,17.6S588,331.4,588,348v10.3c4.9,1.7,10.8,4.1,17.7,7.2l7.2-7.2
	c11.8-11.8,25.9-17.7,42.5-17.7c16.5,0,30.6,5.9,42.3,17.7s17.7,25.9,17.7,42.3c0,16.6-5.9,30.7-17.7,42.5l-7.2,7.2
	c3.1,6.9,5.5,12.8,7.2,17.7H708c16.6,0,30.7,5.9,42.4,17.6S768,511.4,768,528s-5.9,30.7-17.6,42.4S724.6,588,708,588h-10.3
	c-1.7,4.9-4.1,10.8-7.2,17.7l7.2,7.2c11.8,11.8,17.7,25.9,17.7,42.5c0,16.5-5.9,30.6-17.7,42.3s-25.9,17.7-42.3,17.7
	c-16.6,0-30.7-5.9-42.5-17.7l-7.2-7.2c-6.9,3.1-12.8,5.5-17.7,7.2V708c0,16.6-5.9,30.7-17.6,42.4S544.6,768,528,768
	s-30.7-5.9-42.4-17.6S468,724.6,468,708v-10.3c-4.9-1.7-10.8-4.1-17.7-7.2l-7.2,7.2c-11.8,11.8-25.9,17.7-42.3,17.7
	c-16.6,0-30.7-5.9-42.4-17.7s-17.6-25.9-17.6-42.3c0-16.7,5.8-30.8,17.5-42.5l7.2-7.2c-3.1-6.9-5.5-12.8-7.2-17.7H348
	c-16.6,0-30.7-5.9-42.4-17.6S288,544.6,288,528s5.9-30.7,17.6-42.4S331.4,468,348,468h10.3c1.7-4.9,4.1-10.8,7.2-17.7l-7.2-7.2
	c-11.7-11.7-17.5-25.8-17.5-42.5c0-16.5,5.9-30.6,17.6-42.3s25.9-17.7,42.4-17.7c16.5,0,30.6,5.9,42.3,17.7l7.2,7.2
	c6.9-3.1,12.8-5.5,17.7-7.2V348c0-16.6,5.9-30.7,17.6-42.4S511.4,288,528,288z M528,328c-5.5,0-10.2,2-14.1,5.9s-5.9,8.6-5.9,14.1
	v41.4c-23.3,3.3-44.6,12.1-63.9,26.4l-29.2-29.2c-4-4-8.6-5.9-14.1-5.9c-5.5,0-10.2,2-14.1,5.9s-5.9,8.6-5.9,14.1
	c0,5.6,1.9,10.4,5.8,14.2l29.2,29.2c-14.3,19.3-23.1,40.6-26.4,63.9H348c-5.5,0-10.2,2-14.1,5.9s-5.9,8.6-5.9,14.1s2,10.2,5.9,14.1
	s8.6,5.9,14.1,5.9h41.4c3.3,23.3,12.1,44.6,26.4,63.9l-29.2,29.2c-3.9,3.9-5.8,8.6-5.8,14.2c0,5.5,2,10.2,5.9,14.1s8.6,5.9,14.1,5.9
	c5.4,0,10.1-2,14.1-5.9l29.2-29.2c19.3,14.3,40.6,23.1,63.9,26.4V708c0,5.5,2,10.2,5.9,14.1s8.6,5.9,14.1,5.9s10.2-2,14.1-5.9
	s5.9-8.6,5.9-14.1v-41.4c23.3-3.3,44.6-12.1,63.9-26.4l29.2,29.2c4,4,8.7,5.9,14.2,5.9s10.2-2,14.1-5.9s5.9-8.6,5.9-14.1
	s-2-10.3-5.9-14.2l-29.2-29.2c14.3-19.3,23.1-40.6,26.4-63.9H708c5.5,0,10.2-2,14.1-5.9s5.9-8.6,5.9-14.1s-2-10.2-5.9-14.1
	s-8.6-5.9-14.1-5.9h-41.4c-3.3-23.3-12.1-44.6-26.4-63.9l29.2-29.2c4-4,5.9-8.7,5.9-14.2s-2-10.2-5.9-14.1s-8.6-5.9-14.1-5.9
	s-10.3,2-14.2,5.9l-29.2,29.2c-19.3-14.3-40.6-23.1-63.9-26.4V348c0-5.5-2-10.2-5.9-14.1S533.5,328,528,328z M528,448
	c22.1,0,40.9,7.8,56.6,23.4S608,505.9,608,528c0,22.1-7.8,40.9-23.4,56.6S550.1,608,528,608c-22.1,0-40.9-7.8-56.6-23.4
	S448,550.1,448,528c0-22.1,7.8-40.9,23.4-56.6S505.9,448,528,448z M528,488c-11,0-20.5,3.9-28.3,11.7S488,517,488,528
	s3.9,20.5,11.7,28.3S517,568,528,568s20.5-3.9,28.3-11.7S568,539,568,528s-3.9-20.5-11.7-28.3S539,488,528,488z"/>
<g>
	<path d="M352.8,235.2c-32.5,0-60.2,11.5-83.1,34.5c-23,23-34.5,50.7-34.5,83.1s11.5,60.2,34.5,83.1c7.5,7.5,15.6,13.8,24.1,18.9
		c7.8-5.9,16.4-10.3,25.5-13.3c-6.2-12.4-9.5-26.2-9.5-40.9c0-2.5,0.1-5,0.3-7.4C299.4,382,294,368.5,294,352.8
		c0-16.2,5.7-30.1,17.2-41.6c11.5-11.5,25.3-17.2,41.6-17.2c15.6,0,29,5.3,40.3,16c2.6-0.2,5.1-0.3,7.7-0.3
		c14.6,0,28.3,3.3,40.7,9.5c3-9.1,7.5-17.6,13.3-25.4c-5.1-8.6-11.4-16.6-18.9-24.1C413,246.7,385.3,235.2,352.8,235.2z"/>
	<path d="M309.8,655.3c0-14.7,3.2-28.4,9.5-40.9c-13.2-4.4-25.3-11.8-35.6-22.1c-15.7-15.7-24.7-35.3-26.4-57.1
		c-9.6-5-18.9-10.9-27.8-17.5l-43,43c-5.8,5.8-12.7,8.7-20.7,8.7c-8.1,0-15-2.9-20.8-8.6c-5.7-5.7-8.6-12.7-8.6-20.8
		c0-8.3,2.8-15.2,8.5-20.9l43-43c-21-28.3-33.9-59.6-38.8-93.9H88.2c-8.1,0-15-2.9-20.8-8.6c-5.7-5.7-8.6-12.7-8.6-20.8
		s2.9-15,8.6-20.8c5.7-5.7,12.7-8.6,20.8-8.6h60.9c4.9-34.3,17.8-65.6,38.8-93.9l-43-43c-5.7-5.7-8.5-12.6-8.5-20.9
		c0-8.1,2.9-15,8.6-20.8c5.7-5.7,12.7-8.6,20.8-8.6c8,0,14.9,2.9,20.7,8.7l43,43c28.3-21,59.6-33.9,93.9-38.8V88.2
		c0-8.1,2.9-15,8.6-20.8c5.7-5.7,12.7-8.6,20.8-8.6s15,2.9,20.8,8.6c5.7,5.7,8.6,12.7,8.6,20.8v60.9c34.3,4.9,65.6,17.8,93.9,38.8
		l43-43c5.8-5.8,12.8-8.7,20.9-8.7s15,2.9,20.8,8.6c5.7,5.7,8.6,12.7,8.6,20.8s-2.9,15.1-8.7,20.9l-43,43c6.6,9,12.5,18.3,17.5,27.8
		c21.8,1.6,41.4,10.6,57.1,26.4c10.3,10.3,17.8,22.3,22.1,35.6c12.5-6.3,26.2-9.6,40.9-9.6c16.2,0,31.3,4,44.8,11.8
		c-4.3-11.4-11-21.7-20.3-31c-17.2-17.2-38-25.8-62.4-25.8h-15.2c-2.5-7.2-6-15.8-10.6-26l10.6-10.6c17.3-17.3,26-38.1,26-62.5
		c0-24.2-8.7-44.9-26-62.2s-38.1-26-62.2-26c-24.3,0-45.2,8.7-62.5,26L467,113.9c-10.1-4.6-18.8-8.1-26-10.6V88.2
		c0-24.3-8.6-45.1-25.8-62.4C397.9,8.6,377.2,0,352.8,0s-45.1,8.6-62.4,25.8c-17.2,17.2-25.8,38-25.8,62.4v15.2
		c-7.2,2.5-15.8,6-26,10.6l-10.6-10.6c-17.3-17.3-38.1-26-62.2-26c-24.3,0-45.1,8.7-62.4,26s-25.8,38.1-25.8,62.2
		c0,24.5,8.6,45.3,25.7,62.5l10.6,10.6c-4.6,10.1-8.1,18.8-10.6,26H88.2c-24.3,0-45.1,8.6-62.4,25.8C8.6,307.7,0,328.5,0,352.8
		s8.6,45.1,25.8,62.4c17.2,17.2,38,25.8,62.4,25.8h15.2c2.5,7.2,6,15.8,10.6,26l-10.6,10.6c-17.2,17.2-25.7,38-25.7,62.5
		c0,24.2,8.6,44.9,25.8,62.2s38,26,62.4,26c24.2,0,44.9-8.7,62.2-26l10.6-10.6c10.1,4.6,18.8,8.1,26,10.6v15.2
		c0,24.3,8.6,45.1,25.8,62.4c9.3,9.3,19.7,16.1,31.1,20.4C313.8,686.7,309.8,671.5,309.8,655.3z"/>
</g>
</svg>
