<?xml version="1.0" encoding="utf-8"?>
<!DOCTYPE svg PUBLIC "-//W3C//DTD SVG 1.1//EN" "http://www.w3.org/Graphics/SVG/1.1/DTD/svg11.dtd">
<svg version="1.1" id="Layer_1" xmlns="http://www.w3.org/2000/svg" xmlns:xlink="http://www.w3.org/1999/xlink" x="0px" y="0px"
	 width="119px" height="119px" viewBox="-1.049 -1.549 119 119" enable-background="new -1.049 -1.549 119 119"
	 xml:space="preserve">
<g>
	<path fill="#FFFFFF" d="M19.987,87.654l22.375-27.017l3.482,4.736l16.922-2.065l2.518,3.99l-7.728,9.271l46.908,16.605
		c7.49-9.764,11.939-21.975,11.939-35.227c0-1.499-0.062-2.985-0.171-4.458c-0.073-0.979-0.174-1.955-0.294-2.921
		c-0.124-0.966-0.268-1.926-0.441-2.876C110.649,20.579,86.956,0,58.446,0C49.213,0,40.48,2.162,32.732,6.011L97.39,28.768
		L73.124,57.887l-4.441-7.04l-17.485,2.131l-1.173-1.593l9.401-11.359L12.089,23.181C6.762,30.266,3.026,38.612,1.404,47.693
		c-0.17,0.95-0.318,1.91-0.441,2.876c-0.12,0.966-0.219,1.942-0.294,2.921C0.556,54.964,0.5,56.45,0.5,57.949
		c0,28.506,20.579,52.2,47.693,57.046c0.953,0.171,1.909,0.317,2.875,0.441c0.968,0.124,1.941,0.221,2.923,0.294
		c1.472,0.117,2.962,0.171,4.456,0.171c1.502,0,2.989-0.054,4.464-0.171c0.979-0.073,1.947-0.17,2.923-0.294
		c0.969-0.124,1.925-0.271,2.873-0.441c5.23-0.933,10.217-2.57,14.859-4.804L19.987,87.654z"/>
</g>
</svg>
