<svg style="position: absolute; width: 0; height: 0; overflow: hidden;" version="1.1" xmlns="http://www.w3.org/2000/svg" xmlns:xlink="http://www.w3.org/1999/xlink">
<defs>
<symbol id="code" viewBox="0 0 32 32">
<title>code</title>
<path class="path1" d="M12.179 6.813c-0.587-0.552-1.381-0.552-1.97 0l-10.21 9.187 10.21 9.186c0.589 0.554 1.382 0.554 1.97 0s0.587-1.45 0-2.003l-7.926-7.182 7.928-7.181c0.586-0.554 0.586-1.451-0.002-2.006zM21.79 6.813c-0.589-0.552-1.381-0.552-1.97 0-0.587 0.555-0.557 1.451 0.034 2.005l7.893 7.182-7.894 7.182c-0.589 0.554-0.621 1.45-0.034 2.003 0.589 0.554 1.381 0.554 1.97 0l10.211-9.186-10.21-9.187z"></path>
</symbol>
<symbol id="star" viewBox="0 0 32 32">
<title>star</title>
<path class="path1" d="M16 1.92l3.821 10.755h10.259l-8.371 6.317 2.992 11.088-8.701-6.646-8.701 6.646 2.992-11.088-8.371-6.317h10.259z"></path>
</symbol>
<symbol id="eye" viewBox="0 0 32 32">
<title>eye</title>
<path class="path1" d="M16 7.040c-10.498 0-16 7.733-16 8.96s5.502 8.96 16 8.96 16-7.733 16-8.96-5.502-8.96-16-8.96zM16 22.893c-3.926 0-7.11-3.086-7.11-6.893s3.184-6.893 7.11-6.893c3.928 0 7.112 3.086 7.112 6.893s-3.184 6.893-7.112 6.893zM16 16c-0.65-0.714 1.062-3.445 0-3.445-1.963 0-3.555 1.542-3.555 3.445s1.592 3.446 3.555 3.446c1.965 0 3.557-1.544 3.557-3.446 0-0.874-3.002 0.608-3.557 0z"></path>
</symbol>
<symbol id="globe" viewBox="0 0 27 32">
<title>globe</title>
<path class="path1" d="M21.289 9.696q0.196-0.125 0.446-0.393v0.018q0 0.036-0.17 0.179t-0.205 0.214q-0.018-0.018-0.071-0.018zM21.182 9.714q-0.018-0.018-0.045-0.054t-0.027-0.054q0.054 0.036 0.179 0.089-0.107 0.071-0.107 0.018zM12.986 6.446q-0.286-0.036-0.464-0.089 0.018 0 0.116 0.018t0.188 0.036 0.161 0.036zM13.789 5.786q0.125-0.071 0.241-0.045t0.134 0.134q-0.089-0.054-0.375-0.089zM13.646 5.893l-0.054-0.036q-0.036-0.054-0.098-0.089t-0.080-0.036q0.036 0.018 0.375 0.054-0.107 0.071-0.143 0.107zM11.825 4.393v-0.036q0.018 0.036 0.054 0.098t0.054 0.098zM9.95 5.107q0 0.036-0.018 0.036l-0.018-0.036h0.036zM16.646 23.75v0zM13.7 2.286q3.732 0 6.884 1.839t4.991 4.991 1.839 6.884-1.839 6.884-4.991 4.991-6.884 1.839-6.884-1.839-4.991-4.991-1.839-6.884 1.839-6.884 4.991-4.991 6.884-1.839zM22.129 24.536l0.089-0.089q-0.125-0.179-0.518-0.214 0.018-0.214-0.25-0.473t-0.482-0.277q0-0.071-0.188-0.196t-0.313-0.143q-0.161-0.036-0.482 0.161-0.125 0.054-0.071 0.089-0.054-0.054-0.214-0.196t-0.286-0.196q-0.036-0.018-0.134-0.018t-0.152-0.036q-0.018-0.018-0.107-0.080t-0.125-0.080-0.116-0.054-0.134-0.027-0.134 0.045-0.152 0.107-0.080 0.277-0.045 0.259q-0.143-0.107-0.009-0.357t0.027-0.357q-0.125-0.125-0.375-0.009t-0.375 0.277q-0.018 0.018-0.17 0.098t-0.205 0.134q-0.071 0.107-0.161 0.313t-0.107 0.241q0-0.036-0.045-0.116t-0.045-0.116q-0.214 0.036-0.286-0.054 0.089 0.286 0.143 0.304l-0.071-0.036q-0.018 0.107 0.054 0.268t0.071 0.196q0.018 0.089-0.027 0.232t-0.045 0.196q0 0.036 0.089 0.196 0.071 0.339-0.036 0.571 0 0.018-0.063 0.125t-0.116 0.196l-0.036 0.089-0.036-0.018q-0.018-0.018-0.036 0-0.018 0.107-0.161 0.232t-0.179 0.196q-0.268 0.411-0.161 0.679 0.054 0.143 0.179 0.179 0.054 0.018 0.054-0.036 0.018 0.161-0.196 0.482 0.018 0.018 0.071 0.054-0.304 0-0.179 0.25 3.607-0.643 6.286-3.232h-0.054zM12.129 21.232q0.286-0.054 0.545 0.286t0.402 0.411q0.732 0.357 1.054 0.196 0 0.161 0.25 0.5 0.054 0.071 0.116 0.205t0.098 0.188q0.089 0.125 0.339 0.286t0.339 0.286q0.107-0.054 0.161-0.161 0.232 0.625 0.429 0.607 0.089 0 0.143-0.143 0 0.018-0.009 0.054t-0.027 0.054q0.125-0.268 0.089-0.464l0.107-0.071q0.089-0.071 0.089-0.089-0.107-0.107-0.161 0.054-0.536 0.25-0.857-0.393-0.036-0.054-0.080-0.143t-0.089-0.214-0.027-0.205 0.107-0.080q0.196 0 0.223-0.027t-0.045-0.107-0.071-0.134q-0.018-0.071-0.027-0.223t-0.027-0.223l-0.089-0.107q-0.089-0.107-0.205-0.241t-0.134-0.17q-0.071 0.179-0.295 0.152t-0.33-0.17q0.018 0.036-0.009 0.116t-0.027 0.116q-0.25 0-0.304-0.018 0.018-0.107 0.054-0.375t0.071-0.393q0.018-0.089 0.098-0.241t0.143-0.277 0.080-0.25-0.080-0.188-0.33-0.045q-0.357 0.018-0.518 0.393-0.018 0.054-0.054 0.205t-0.089 0.223-0.161 0.125q-0.143 0.054-0.482 0.036t-0.464-0.089q-0.25-0.143-0.429-0.545t-0.196-0.741q0-0.179 0.054-0.491t0.054-0.482-0.107-0.473q0.054-0.036 0.179-0.188t0.196-0.205q0.036-0.036 0.089-0.036h0.089t0.071-0.036 0.054-0.107q-0.018-0.018-0.071-0.054-0.054-0.054-0.071-0.054 0.071 0.054 0.339 0.018t0.339-0.036q0-0.018 0.393 0 0.304 0.232 0.429-0.036 0-0.018-0.045-0.188t-0.009-0.259q0.089 0.518 0.571 0.179 0.054 0.071 0.295 0.107t0.33 0.089q0.054 0.036 0.125 0.098t0.107 0.089 0.107 0.009 0.161-0.125q0.196 0.304 0.232 0.446 0.196 0.768 0.357 0.857 0.143 0.036 0.223 0.036t0.089-0.188 0-0.277-0.027-0.232l-0.036-0.661q-0.286-0.054-0.357-0.223t0.027-0.357 0.295-0.348q0.018-0.018 0.295-0.143t0.384-0.214q0.429-0.339 0.304-0.696 0.161 0.036 0.196-0.161l-0.089-0.054q-0.071-0.054-0.143-0.098t-0.089-0.027q0.196-0.125 0.036-0.321 0.089-0.054 0.143-0.205t0.161-0.205q0.161 0.25 0.393 0.054 0.143-0.161 0.036-0.321 0.089-0.143 0.393-0.205t0.357-0.17q0.089 0.018 0.125 0t0.036-0.080v-0.134t0.018-0.152 0.054-0.134q0.071-0.107 0.286-0.188t0.25-0.098l0.339-0.214q0.071-0.071 0-0.071 0.321 0.036 0.571-0.196 0.232-0.214-0.089-0.411 0.036-0.125-0.071-0.188t-0.286-0.098q0.054-0.018 0.214-0.009t0.214-0.027q0.268-0.196-0.125-0.304-0.357-0.089-0.839 0.232-0.054 0.036-0.232 0.214t-0.304 0.196q0.268-0.321 0.089-0.393 0.143 0.018 0.402-0.161t0.277-0.196q0.071-0.036 0.188-0.045t0.152-0.027q1.268-0.446 1.643 0.018 0.143-0.196 0.196-0.268t0.17-0.161 0.277-0.143q0.375-0.125 0.411-0.161l0.018-0.411q-0.214 0.018-0.321-0.143t-0.125-0.393l-0.107 0.143q0-0.107-0.063-0.134t-0.134-0.009-0.17 0.036-0.134 0q-0.161-0.036-0.348-0.277t-0.259-0.295q0.161 0 0.161-0.089-0.036-0.089-0.179-0.143 0.018-0.107-0.036-0.143t-0.161 0q-0.036-0.214-0.018-0.232-0.107-0.018-0.196-0.196t-0.143-0.179q-0.036 0-0.080 0.036t-0.089 0.098l-0.089 0.125t-0.063 0.098l-0.036 0.036q-0.214-0.107-0.429 0.179-0.161-0.018-0.304 0.036 0.268-0.107 0.036-0.232-0.196-0.089-0.375-0.036 0.214-0.089 0.179-0.25t-0.214-0.286q0.018 0 0.071 0.018t0.071 0.018q-0.018-0.089-0.17-0.17t-0.348-0.161-0.25-0.116q-0.125-0.089-0.643-0.188t-0.643-0.027q-0.089 0.054-0.107 0.107t0.027 0.152 0.063 0.152q0.107 0.411 0.089 0.482-0.018 0.054-0.152 0.143t-0.098 0.214q0.018 0.071 0.205 0.179t0.223 0.214q0.089 0.232-0.071 0.446-0.071 0.089-0.268 0.196t-0.25 0.179q-0.089 0.089-0.063 0.205t0.009 0.17q0.018-0.018 0.018-0.045t0.018-0.045q0 0.232 0.196 0.393 0.143 0.107-0.286 0.321-0.357 0.196-0.357 0.071 0.018-0.143-0.134-0.286t-0.188-0.214-0.063-0.339-0.17-0.375q-0.107-0.071-0.339-0.071t-0.321 0.089q0-0.179-0.875-0.536-0.304-0.143-1.036-0.071 0.125-0.018 0-0.304-0.143-0.286-0.375-0.214-0.143-0.446-0.071-0.625 0.036-0.089 0.161-0.25t0.161-0.268q0.018-0.054 0.277-0.107t0.295-0.143q0.018-0.071-0.045-0.116t-0.17-0.080q0.946 0.107 1.125-0.321 0.089-0.161 0.054-0.25 0 0.018 0.036 0.018t0.036 0.018q0.214-0.054 0.125-0.304 0.339-0.143 0.464-0.143 0.089 0.018 0.196 0.107t0.179 0.089q0.304 0.054 0.384-0.179t-0.17-0.411q0.125 0.071 0.125-0.107-0.018-0.232-0.125-0.339-0.054-0.036-0.116-0.045t-0.116 0-0.125-0.009q-0.018 0-0.143-0.036-0.018 0.018-0.036 0.018h-0.143q-0.071 0.036-0.071 0.089v0.018q-0.018 0.054 0.071 0.107l0.089 0.018 0.054 0.036q-0.018 0-0.045 0.045t-0.045 0.045q0 0.054 0.054 0.089-0.036 0.018-0.25 0.134t-0.304 0.188q-0.018 0.018-0.071 0.045t-0.071 0.045q-0.036 0.018-0.071-0.036t-0.071-0.161-0.071-0.205-0.080-0.179-0.098-0.080q-0.214 0-0.321 0.304 0.054-0.179-0.232-0.313t-0.446-0.134q0.357-0.268-0.161-0.536l-0.018-0.018q-0.536 0.071-0.804 0.125-0.036 0.107 0.054 0.214-0.018 0.125 0.107 0.161 0 0.018 0.009 0.018t0.009 0.018q0-0.018-0.009-0.018t-0.009-0.018q0.054 0.018 0.188 0.027t0.17 0.027q0.054 0.018 0.080 0.036l0.134 0.089t0.098 0.107-0.045 0.089q-0.036 0.018-0.161 0.071t-0.223 0.098-0.116 0.063q-0.054 0.089 0 0.286t-0.036 0.268q-0.089-0.089-0.179-0.33t-0.143-0.313q0.143 0.161-0.536 0.107l-0.143-0.018q-0.071 0-0.268 0.036t-0.286 0.018q-0.125 0-0.518-0.107 0.125-0.304 0.089-0.446 0.089 0 0.125-0.036l-0.107-0.054q-0.054 0.018-0.446 0.161 0.036 0.054 0.143 0.17t0.161 0.205q-0.393-0.107-0.482 0.036 0 0.018-0.161 0-0.446-0.018-0.429 0.125 0.018 0.071 0.161 0.214 0 0.161-0.018 0.161-0.482-0.393-0.536-0.411-3.071 1.482-4.929 4.429 0.018 0.036 0.045 0.196t0.063 0.152 0.196-0.080q0.161 0.161 0.054 0.375 0.036-0.036 0.643 0.375 1 0.714 0.393 0.946v-0.098t0.018-0.116q-0.161 0.018-0.339-0.089-0.054 0.107 0.009 0.357t0.205 0.25q-0.143 0-0.188 0.304t-0.045 0.688-0.018 0.455l0.036 0.018q-0.054 0.232 0.107 0.67t0.429 0.366q-0.071 0.321 0.089 0.375-0.018 0.071 0 0.143t0.080 0.152 0.107 0.125l0.241 0.241q0.5 0.196 0.732 0.518 0.071 0.107 0.188 0.437t0.277 0.455q-0.036 0.107 0.179 0.384t0.196 0.455q-0.018 0-0.045 0.009t-0.045 0.009q0.054 0.143 0.295 0.286t0.295 0.25q0.036 0.054 0.045 0.188t0.054 0.214 0.152 0.045q0.054-0.429-0.464-1.214-0.286-0.482-0.321-0.554-0.054-0.089-0.098-0.295t-0.080-0.277q0.482 0.161 0.464 0.232-0.089 0.179 0.464 0.929 0.036 0.054 0.179 0.179t0.196 0.214q0.054 0.071 0.17 0.259t0.188 0.277q-0.018 0-0.054 0.036l-0.054 0.054q0.071 0.036 0.161 0.089t0.143 0.080 0.134 0.089 0.134 0.134q0.286 0.321 0.357 0.589 0.018 0.071 0.009 0.277t0.027 0.295q0.036 0.107 0.107 0.196t0.205 0.179 0.205 0.125 0.259 0.116 0.205 0.098q0.036 0.018 0.321 0.196t0.446 0.25q0.179 0.071 0.295 0.080t0.286-0.045 0.277-0.071z"></path>
</symbol>
<symbol id="alert" viewBox="0 0 32 32">
<title>alert</title>
<path class="path1" d="M23.44 13.621c-3.648-7.851-5.544-10.834-11.506-10.709-2.123 0.043-1.613-1.538-3.232-0.938-1.618 0.598-0.229 1.477-1.885 2.835-4.643 3.811-4.216 7.338-2.062 15.744 0.909 3.539-2.187 3.714-0.963 7.146 0.894 2.501 7.486 3.55 14.442 0.968 6.955-2.579 11.344-7.701 10.45-10.205-1.224-3.43-3.706-1.536-5.243-4.842zM17.478 26.554c-6.21 2.304-11.315 0.949-11.531 0.347-0.371-1.038 2.005-4.506 9.106-7.141s11.064-1.658 11.478-0.498c0.245 0.685-2.84 4.986-9.053 7.291zM15.483 20.963c-3.248 1.205-5.504 2.582-6.965 3.824 1.029 0.934 2.954 1.162 4.874 0.45 2.443-0.907 3.944-2.989 3.35-4.648-0.006-0.021-0.018-0.038-0.026-0.058-0.4 0.13-0.811 0.274-1.234 0.432z"></path>
</symbol>
<symbol id="clipboard" viewBox="0 0 32 32">
<title>clipboard</title>
<path class="path1" d="M24.96 3.2l-1.92 4.8h-14.080l-1.92-4.8c-1.232 0-2.24 1.008-2.24 2.24v24.32c0 1.232 1.008 2.24 2.24 2.24h17.92c1.234 0 2.24-1.008 2.24-2.24v-24.32c0-1.232-1.008-2.24-2.24-2.24zM21.76 6.4l1.44-3.2h-3.488l-1.152-3.2h-5.12l-1.152 3.2h-3.488l1.44 3.2h11.52z"></path>
</symbol>
<symbol id="cross" viewBox="0 0 32 32">
<title>cross</title>
<path class="path1" d="M22.958 21.043l-4.413-5.043 4.413-5.043c0.75-0.75 0.75-1.966 0-2.715s-1.966-0.749-2.715 0l-4.243 4.85-4.242-4.848c-0.75-0.75-1.966-0.75-2.715 0s-0.749 1.966 0 2.715l4.411 5.042-4.413 5.043c-0.749 0.75-0.749 1.963 0 2.712 0.75 0.75 1.966 0.75 2.715 0l4.243-4.846 4.242 4.846c0.75 0.75 1.966 0.75 2.715 0s0.75-1.962 0.002-2.712z"></path>
</symbol>
<symbol id="page" viewBox="0 0 24 32">
<title>page</title>
<path class="path1" d="M14 0h-14v32h24v-22.002l-10-9.998zM11.918 12v-8l8 8h-8z"></path>
</symbol>
<symbol id="clock" viewBox="0 0 32 32">
<title>clock</title>
<path class="path1" d="M16 1.28c-8.13 0-14.72 6.592-14.72 14.72 0 8.13 6.59 14.72 14.72 14.72s14.72-6.59 14.72-14.72c0-8.13-6.59-14.72-14.72-14.72zM16 27.52c-6.363 0-11.52-5.158-11.52-11.52s5.157-11.52 11.52-11.52 11.52 5.158 11.52 11.52-5.157 11.52-11.52 11.52zM17.12 7.68h-2.24v8.784l5.448 5.448 1.584-1.584-4.792-4.792z"></path>
</symbol>
<symbol id="time" viewBox="0 0 32 32">
<title>time</title>
<path class="path1" d="M17.963 2.88c-7.114 0-12.898 5.699-13.070 12.792h-3.933l5.886 6.562 5.885-6.562h-4.57c0.173-5.282 4.493-9.512 9.802-9.512 5.418 0 9.808 4.405 9.808 9.84s-4.39 9.84-9.808 9.84c-2.173 0-4.179-0.71-5.805-1.909l-2.25 2.406c2.221 1.742 5.016 2.782 8.054 2.782 7.222 0 13.078-5.874 13.078-13.12-0.002-7.246-5.858-13.12-13.078-13.12zM16.8 8.96v7.504l4.808 4.808 1.584-1.584-4.152-4.152v-6.576h-2.24z"></path>
</symbol>
<symbol id="infinity" viewBox="0 0 32 32">
<title>infinity</title>
<path class="path1" d="M25.443 8.96c-3.326 0-6.971 1.853-9.443 4.664-2.472-2.811-6.118-4.664-9.445-4.664-3.17 0-6.555 1.85-6.555 7.040s3.386 7.038 6.555 7.040v0c3.328 0 6.973-1.853 9.445-4.664 2.472 2.811 6.117 4.664 9.443 4.664 3.171 0 6.557-1.85 6.557-7.040s-3.386-7.040-6.557-7.040zM6.555 20.224c-2.419 0-3.646-1.421-3.646-4.224s1.227-4.226 3.646-4.226c2.675 0 5.782 1.738 7.69 4.226-1.907 2.488-5.013 4.224-7.69 4.224zM25.443 20.224c-2.675 0-5.782-1.736-7.69-4.224 1.906-2.488 5.014-4.226 7.69-4.226 2.421 0 3.646 1.422 3.646 4.226s-1.226 4.224-3.646 4.224z"></path>
</symbol>
<symbol id="globe-alt" viewBox="0 0 32 32">
<title>globe-alt</title>
<path class="path1" d="M8.437 11.062c0.322 0 0.632 0.048 0.923 0.139 1.104-1.237 2.328-2.363 3.653-3.362-0.054-0.232-0.088-0.475-0.088-0.726 0-0.349 0.058-0.682 0.163-0.992-1.483-1.066-3.099-1.958-4.814-2.65-1.611 0.995-3.014 2.293-4.133 3.813 0.83 1.47 1.819 2.842 2.941 4.091 0.411-0.2 0.87-0.314 1.355-0.314zM5.306 14.194c0-0.438 0.091-0.858 0.254-1.237-1.003-1.104-1.915-2.294-2.714-3.565-1 1.987-1.566 4.232-1.566 6.608 0 2.754 0.758 5.328 2.074 7.531 0.469-2.648 1.362-5.152 2.592-7.446-0.4-0.525-0.64-1.179-0.64-1.891zM16.056 3.981c0.829 0 1.578 0.323 2.138 0.846 1.634-0.702 3.355-1.242 5.146-1.586-2.162-1.245-4.666-1.962-7.339-1.962-1.822 0-3.566 0.334-5.176 0.941 1.278 0.632 2.498 1.366 3.642 2.198 0.467-0.277 1.010-0.438 1.59-0.438zM20.741 18.733c0.195-0.406 0.472-0.765 0.814-1.050-0.925-2.845-2.389-5.446-4.275-7.686-0.376 0.16-0.789 0.248-1.224 0.248-0.678 0-1.306-0.219-1.819-0.586-1.136 0.862-2.186 1.83-3.141 2.886 0.298 0.478 0.472 1.042 0.472 1.648 0 0.328-0.050 0.642-0.142 0.939 2.747 1.835 5.909 3.094 9.315 3.6zM24.803 22.962c0.042 0.592 0.066 1.19 0.066 1.794 0 1.064-0.069 2.109-0.197 3.138 2.498-1.824 4.397-4.411 5.357-7.422-1.136 0.275-2.301 0.472-3.49 0.586-0.28 0.856-0.917 1.55-1.736 1.906zM20.006 20.837c-3.634-0.602-7.003-1.987-9.934-3.974-0.477 0.293-1.034 0.464-1.634 0.464-0.221 0-0.434-0.024-0.642-0.067-1.403 2.662-2.301 5.632-2.56 8.778 1.402 1.502 3.112 2.712 5.034 3.525 2.384-3.666 5.718-6.701 9.736-8.725zM25.882 5.091c-2.358 0.227-4.611 0.819-6.709 1.709 0.013 0.102 0.018 0.208 0.018 0.314 0 0.494-0.117 0.96-0.322 1.374 2.096 2.461 3.723 5.328 4.752 8.466 1.272 0.024 2.362 0.803 2.83 1.912 1.418-0.144 2.797-0.416 4.126-0.806 0.091-0.672 0.142-1.358 0.142-2.059 0-4.326-1.867-8.218-4.838-10.909zM21.582 22.51c-3.752 1.757-6.886 4.462-9.158 7.77 1.144 0.286 2.342 0.44 3.576 0.44 2.222 0 4.325-0.494 6.213-1.374 0.302-1.483 0.464-3.018 0.464-4.59 0-0.566-0.027-1.13-0.069-1.688-0.378-0.12-0.725-0.31-1.026-0.557z"></path>
</symbol>
<symbol id="users" viewBox="0 0 32 32">
<title>users</title>
<path class="path1" d="M32 30.080c0 0-0.062-6.059-0.434-6.686-0.552-0.936-1.834-1.578-4.214-2.573-2.373-0.992-3.133-1.83-3.133-3.621 0-1.077 0.725-0.725 1.043-2.694 0.131-0.818 0.771-0.014 0.894-1.878 0-0.744-0.349-0.93-0.349-0.93s0.176-1.101 0.246-1.947c0.086-1.056-0.533-3.781-3.827-3.781s-3.91 2.726-3.826 3.781c0.069 0.846 0.245 1.947 0.245 1.947s-0.349 0.186-0.349 0.93c0.123 1.866 0.763 1.062 0.896 1.878 0.317 1.97 1.042 1.618 1.042 2.694 0 1.218-0.352 1.995-1.323 2.678 5.184 2.595 5.88 3.125 5.88 5.445v4.757h7.208zM16.358 21.72c-3.166-1.322-4.176-2.438-4.176-4.827 0-1.434 0.966-0.966 1.39-3.594 0.174-1.090 1.030-0.018 1.192-2.504 0-0.992-0.466-1.238-0.466-1.238s0.237-1.467 0.33-2.597c0.115-1.405-0.71-5.040-5.102-5.040s-5.216 3.634-5.101 5.040c0.093 1.13 0.328 2.597 0.328 2.597s-0.464 0.246-0.464 1.238c0.165 2.488 1.018 1.416 1.194 2.504 0.424 2.627 1.39 2.158 1.39 3.594 0 2.389-1.013 3.506-4.176 4.827-0.965 0.403-2.698 1.029-2.698 2.53v5.83h22.23c0 0 0-3.448 0-4.37 0-1.371-2.699-2.662-5.872-3.99z"></path>
</symbol>
<symbol id="tick" viewBox="0 0 32 32">
<title>tick</title>
<path class="path1" d="M13.272 27.2c-0.696 0-1.355-0.325-1.778-0.885l-5.718-7.549c-0.744-0.982-0.55-2.381 0.432-3.125 0.984-0.746 2.381-0.55 3.125 0.432l3.762 4.966 9.459-15.186c0.651-1.045 2.027-1.365 3.074-0.714 1.045 0.65 1.365 2.027 0.712 3.072l-11.173 17.936c-0.389 0.626-1.059 1.018-1.794 1.050-0.034 0.002-0.067 0.002-0.101 0.002z"></path>
</symbol>
<symbol id="user" viewBox="0 0 32 32">
<title>user</title>
<path class="path1" d="M23.712 23.117c-3.944-1.437-5.205-2.65-5.205-5.246 0-1.558 1.205-1.050 1.733-3.904 0.219-1.184 1.283-0.019 1.488-2.722 0-1.077-0.581-1.346-0.581-1.346s0.296-1.595 0.411-2.821c0.141-1.53-0.883-5.478-6.358-5.478-5.474 0-6.501 3.949-6.357 5.478 0.115 1.226 0.411 2.821 0.411 2.821s-0.582 0.267-0.582 1.346c0.203 2.702 1.267 1.538 1.486 2.722 0.53 2.854 1.734 2.346 1.734 3.904 0 2.597-1.261 3.81-5.205 5.246-3.958 1.44-6.528 2.91-6.528 3.914 0 1.002 0 3.368 0 3.368h30.080c0 0 0-2.366 0-3.368s-2.571-2.472-6.528-3.914z"></path>
</symbol>
<symbol id="cog" viewBox="0 0 32 32">
<title>cog</title>
<path class="path1" d="M26.856 16c0-1.677 1.032-3 2.584-3.909-0.282-0.934-0.65-1.832-1.106-2.675-1.744 0.456-3.154-0.227-4.338-1.411-1.187-1.186-1.55-2.597-1.094-4.338-0.843-0.456-1.738-0.829-2.675-1.107-0.909 1.554-2.552 2.586-4.227 2.586s-3.317-1.032-4.227-2.586c-0.938 0.278-1.832 0.651-2.675 1.106 0.454 1.742 0.093 3.154-1.093 4.339-1.186 1.184-2.597 1.867-4.338 1.413-0.456 0.842-0.827 1.739-1.107 2.674 1.554 0.909 2.586 2.232 2.586 3.909 0 1.675-1.032 3.318-2.586 4.229 0.28 0.936 0.651 1.832 1.107 2.675 1.742-0.456 3.152-0.093 4.338 1.093s1.547 2.595 1.093 4.338c0.843 0.456 1.739 0.829 2.675 1.107 0.91-1.555 2.552-2.586 4.227-2.586s3.32 1.032 4.229 2.586c0.938-0.28 1.832-0.651 2.675-1.107-0.456-1.742-0.094-3.152 1.094-4.338 1.184-1.184 2.594-1.867 4.338-1.413 0.456-0.843 0.826-1.739 1.106-2.675-1.554-0.91-2.586-2.234-2.586-3.909zM16 21.845c-3.227 0-5.843-2.618-5.843-5.845s2.616-5.845 5.843-5.845c3.229 0 5.845 2.618 5.845 5.845s-2.616 5.845-5.845 5.845z"></path>
</symbol>
<symbol id="left-caret" viewBox="0 0 32 32">
<title>left-caret</title>
<path class="path1" d="M19.838 21.469c0.429 0.434 0.429 1.134 0 1.566-0.429 0.434-1.122 0.434-1.55 0l-6.128-6.251c-0.429-0.434-0.429-1.134 0-1.566l6.128-6.253c0.429-0.434 1.122-0.434 1.55 0s0.429 1.133 0 1.566l-5.024 5.469 5.024 5.469z"></path>
</symbol>
<symbol id="plus" viewBox="0 0 32 32">
<title>plus</title>
<path class="path1" d="M24.318 14.4h-6.72v-6.72c0-0.883-0.715-0.96-1.6-0.96-0.883 0-1.6 0.075-1.6 0.96v6.72h-6.718c-0.885 0-0.96 0.717-0.96 1.6s0.075 1.6 0.96 1.6h6.718v6.72c0 0.883 0.717 0.96 1.6 0.96 0.885 0 1.6-0.077 1.6-0.96v-6.72h6.72c0.885 0 0.962-0.717 0.962-1.6s-0.077-1.6-0.962-1.6z"></path>
</symbol>
<symbol id="down-caret" viewBox="0 0 32 32">
<title>down-caret</title>
<path class="path1" d="M21.469 12.162c0.434-0.429 1.134-0.429 1.566 0 0.434 0.429 0.434 1.122 0 1.55l-6.251 6.128c-0.434 0.429-1.134 0.429-1.566 0l-6.253-6.128c-0.432-0.429-0.432-1.122 0-1.55 0.434-0.429 1.133-0.429 1.566 0l5.469 5.024 5.469-5.024z"></path>
</symbol>
<symbol id="up-caret" viewBox="0 0 32 32">
<title>up-caret</title>
<path class="path1" d="M10.53 19.838c-0.434 0.429-1.133 0.429-1.566 0-0.432-0.429-0.434-1.122 0-1.552l6.253-6.125c0.434-0.429 1.134-0.429 1.566 0l6.253 6.126c0.434 0.43 0.434 1.123 0 1.552s-1.133 0.429-1.566 0l-5.47-5.026-5.469 5.024z"></path>
</symbol>
<symbol id="pencil" viewBox="0 0 32 32">
<title>pencil</title>
<path class="path1" d="M26.498 5.501c-2.307-2.309-4.040-1.963-4.040-1.963l-17.322 17.322-1.616 7.621 7.621-1.616 17.32-17.32c0 0 0.347-1.733-1.963-4.043zM10.686 25.947l-2.597 0.56c-0.251-0.469-0.554-0.938-1.106-1.491-0.552-0.552-1.022-0.853-1.491-1.104l0.562-2.598 0.75-0.75c0 0 1.414 0.029 3.010 1.624 1.597 1.597 1.626 3.011 1.626 3.011l-0.754 0.749z"></path>
</symbol>
<symbol id="right-caret" viewBox="0 0 32 32">
<title>right-caret</title>
<path class="path1" d="M12.162 21.469c-0.429 0.434-0.429 1.134 0 1.566 0.427 0.434 1.122 0.434 1.55 0l6.128-6.251c0.429-0.434 0.429-1.134 0-1.566l-6.128-6.253c-0.429-0.434-1.122-0.434-1.55 0s-0.429 1.133-0.002 1.565l5.026 5.47-5.024 5.469z"></path>
</symbol>
<symbol id="star2" viewBox="0 0 32 32">
<title>star2</title>
<path class="path1" d="M30.080 12.675h-10.261l-3.821-10.755-3.819 10.755h-10.259l8.37 6.317-2.992 11.088 8.701-6.646 8.701 6.646-2.992-11.088 8.373-6.317zM15.998 20.294l-4.819 4.002 1.987-5.699-4.562-3.68 5.634 0.16 1.758-6.464 1.76 6.464 5.634-0.16-4.562 3.68 1.989 5.699-4.819-4.002z"></path>
</symbol>
<symbol id="search" viewBox="0 0 32 32">
<title>search</title>
<path class="path1" d="M28.072 24.749l-6.046-6.046c0.912-1.499 1.437-3.256 1.437-5.139 0-5.466-4.738-10.203-10.205-10.203-5.466 0-9.898 4.432-9.898 9.898 0 5.467 4.736 10.205 10.203 10.205 1.818 0 3.52-0.493 4.984-1.349l6.078 6.080c0.597 0.595 1.56 0.595 2.154 0l1.509-1.507c0.594-0.595 0.378-1.344-0.216-1.938zM6.406 13.258c0-3.784 3.067-6.853 6.851-6.853 3.786 0 7.158 3.373 7.158 7.158s-3.067 6.853-6.853 6.853-7.157-3.373-7.157-7.158z"></path>
</symbol>
<symbol id="keyboard" viewBox="0 0 32 32">
<title>keyboard</title>
<path class="path1" d="M29.76 6.4h-27.52c-1.232 0-2.24 1.008-2.24 2.24v14.722c0 1.23 1.008 2.238 2.24 2.238h27.52c1.234 0 2.24-1.008 2.24-2.238v-14.722c0-1.232-1.008-2.24-2.24-2.24zM17.6 9.6h3.2v3.2h-3.2v-3.2zM22.4 14.4v3.2h-3.2v-3.2h3.2zM12.8 9.6h3.2v3.2h-3.2v-3.2zM17.6 14.4v3.2h-3.2v-3.2h3.2zM8 9.6h3.2v3.2h-3.2v-3.2zM12.8 14.4v3.2h-3.2v-3.2h3.2zM3.2 9.6h3.2v3.2h-3.2v-3.2zM8 14.4v3.2h-3.2v-3.2h3.2zM6.4 22.4h-3.2v-3.2h3.2v3.2zM24 22.4h-16v-3.2h16v3.2zM28.8 22.4h-3.2v-3.2h3.2v3.2zM24 17.6v-3.2h3.2v3.2h-3.2zM28.8 12.8h-6.4v-3.2h6.4v3.2z"></path>
</symbol>
<symbol id="comment" viewBox="0 0 32 32">
<title>comment</title>
<path class="path1" d="M25.6 4.8h-19.2c-1.76 0-3.2 1.44-3.2 3.2v11.2c0 1.76 1.44 3.2 3.2 3.2h6.4l6.4 4.8v-4.8h6.4c1.76 0 3.2-1.44 3.2-3.2v-11.2c0-1.76-1.44-3.2-3.2-3.2z"></path>
</symbol>
<symbol id="version" viewBox="0 0 32 32">
<title>version</title>
<path class="path1" d="M24.985 2.286h-17.969c-2.612 0-4.73 2.118-4.73 4.73v17.97c0 2.611 2.118 4.729 4.73 4.729h17.97c2.611 0 4.729-2.118 4.729-4.73v-17.969c0-2.612-2.118-4.73-4.73-4.73zM17.949 24.471h-3.229l-5.885-16.345h2.858l3.095 9.283c0.47 1.614 1.009 3.262 1.514 4.81h0.133c0.47-1.548 1.009-3.195 1.479-4.81l3.093-9.283h2.725l-5.785 16.345z"></path>
</symbol>
<symbol id="tm" viewBox="0 0 32 32">
<title>tm</title>
<path class="path1" d="M29 16c0.552 0 1-0.448 1-1s-0.448-1-1-1h-3v-2h3c0.552 0 1-0.448 1-1s-0.448-1-1-1h-3v-3l-1-1h-3v-3c0-0.552-0.448-1-1-1s-1 0.448-1 1v3h-2v-3c0-0.552-0.448-1-1-1s-1 0.448-1 1v3h-2v-3c0-0.552-0.448-1-1-1s-1 0.448-1 1v3h-2v-3c0-0.552-0.448-1-1-1s-1 0.448-1 1v3h-3l-1 1v3h-3c-0.552 0-1 0.448-1 1s0.448 1 1 1h3v2h-3c-0.552 0-1 0.448-1 1s0.448 1 1 1h3v2h-3c-0.552 0-1 0.448-1 1s0.448 1 1 1h3v2h-3c-0.552 0-1 0.448-1 1s0.448 1 1 1h3v3l1 1h3v3c0 0.552 0.448 1 1 1s1-0.448 1-1v-3h2v3c0 0.552 0.448 1 1 1s1-0.448 1-1v-3h2v3c0 0.552 0.448 1 1 1s1-0.448 1-1v-3h2v3c0 0.552 0.448 1 1 1s1-0.448 1-1v-3h3l1-1v-3h3c0.552 0 1-0.448 1-1s-0.448-1-1-1h-3v-2h3c0.552 0 1-0.448 1-1s-0.448-1-1-1h-3v-2h3zM18 20h-6v-6h6v6z"></path>
</symbol>
<symbol id="user-roles" viewBox="0 0 32 32">
<title>user-roles</title>
<path class="path1" d="M12 23c0-4.726 2.996-8.765 7.189-10.319 0.509-1.142 0.811-2.411 0.811-3.681 0-4.971 0-9-6-9s-6 4.029-6 9c0 3.096 1.797 6.191 4 7.432v1.649c-6.784 0.555-12 3.888-12 7.918h12.416c-0.271-0.954-0.416-1.96-0.416-3zM23 14c-4.971 0-9 4.029-9 9s4.029 9 9 9c4.971 0 9-4.029 9-9s-4.029-9-9-9zM28 24h-4v4h-2v-4h-4v-2h4v-4h2v4h4v2z"></path>
</symbol>
<symbol id="stats" viewBox="0 0 32 32">
<title>stats</title>
<path class="path1" d="M14 18v-14c-7.732 0-14 6.268-14 14s6.268 14 14 14 14-6.268 14-14c0-2.251-0.532-4.378-1.476-6.262l-12.524 6.262zM28.524 7.738c-2.299-4.588-7.043-7.738-12.524-7.738v14l12.524-6.262z"></path>
</symbol>
<symbol id="upload1" viewBox="0 0 32 32">
<title>upload1</title>
<path class="path1" d="M23 0l3.438-0.001 0.616 0.045 0.901 0.134 1.074-1.209 2.264-2.31 3.554-3.287-0.054-0.226-0.087-0.463-0.088-0.708-0.001-0.34 0.055-0.665 0.157-0.968-1.449-1.035-3.027-1.902-4.701-2.572-1.569 0.974-2.934 2.243-4.021 3.728 0.813 1.432 1.781 2.766 2.878 3.982 0.4-0.196 0.848-0.308 1.321-0.309zM16.025 4.28c0.808-0.002 1.539 0.311 2.086 0.82 1.591-0.689 3.269-1.219 5.014-1.559-2.111-1.208-4.554-1.901-7.161-1.895-1.777 0.004-3.477 0.335-5.045 0.93 1.248 0.613 2.439 1.326 3.556 2.135 0.455-0.271 0.983-0.43 1.55-0.431zM5.567 14.265c-0.001-0.428 0.087-0.837 0.245-1.207-0.981-1.074-1.873-2.233-2.655-3.47-0.97 1.94-1.517 4.131-1.511 6.447 0.007 2.685 0.753 5.194 2.040 7.339 0.451-2.583 1.315-5.027 2.509-7.267-0.391-0.511-0.627-1.148-0.629-1.843zM28.059 8.214c-0.688-1.064-1.513-2.031-2.45-2.875-2.299 0.227-4.494 0.81-6.538 1.683 0.013 0.1 0.018 0.203 0.018 0.306 0.001 0.482-0.096 0.945-0.31 1.341-0.254 0.47-0.652 1.097-1.546 1.475-0.385 0.163-0.769 0.244-1.193 0.245-0.662 0.002-1.274-0.211-1.775-0.567-1.106 0.844-2.127 1.79-3.056 2.822 0.291 0.466 0.463 1.015 0.464 1.606 0.002 0.778-0.266 1.55-0.833 2.094-0.477 0.457-1.001 0.825-1.665 0.929-0.179 0.028-0.364 0.040-0.546 0.040-0.215 0-0.423-0.022-0.626-0.064-1.362 2.6-2.23 5.498-2.475 8.566 0.624 0.666 1.312 1.272 2.052 1.809l-0.002 0.002c1.658 1.222 3.524 2.035 5.46 2.442l0-8.033-4.073 0.001 7.037-8.084 7.034 8.083-4.081 0.001c0 0 0.001 8.024 0.001 8.024 0-0.026 1.55-0.419 1.694-0.469 0.572-0.196 1.132-0.428 1.674-0.695 1.094-0.539 2.137-1.227 3.058-2.027 0.628-0.545 1.209-1.147 1.736-1.792 0.018-0.021 0.035-0.043 0.052-0.065 3.94-4.868 4.238-11.688 0.888-16.798z"></path>
</symbol>
<symbol id="settings" viewBox="0 0 32 32">
<title>settings</title>
<path class="path1" d="M5.014 11.024c1.494-1.16 2.733-0.362 4.386 1.552 0.187 0.214 0.437-0.037 0.578-0.16 0.141-0.125 2.323-2.086 2.429-2.178 0.107-0.094 0.235-0.27 0.066-0.467s-0.79-1-1.189-1.52c-2.893-3.784 7.914-6.35 6.253-6.39-0.843-0.022-4.234-0.061-4.739-0.008-2.053 0.218-4.63 2.136-5.928 3.029-1.696 1.166-2.331 1.843-2.435 1.938-0.48 0.421-0.077 1.387-0.947 2.15-0.92 0.806-1.493 0.197-2.026 0.664-0.266 0.234-1.003 0.786-1.216 0.973-0.211 0.186-0.25 0.501-0.034 0.754 0 0 2.021 2.234 2.192 2.43 0.17 0.197 0.626 0.363 0.909 0.114 0.283-0.248 1.010-0.886 1.133-0.995 0.125-0.107-0.080-1.381 0.57-1.885zM14.149 11.85c-0.192-0.222-0.429-0.227-0.635-0.045l-2.296 2.002c-0.179 0.16-0.203 0.454-0.042 0.64l13.27 15.101c0.309 0.358 0.846 0.395 1.203 0.085l1.554-1.299c0.354-0.31 0.39-0.854 0.082-1.211l-13.136-15.272zM31.843 5.422c-0.118-0.79-0.528-0.624-0.741-0.288-0.21 0.334-1.154 1.762-1.541 2.406-0.384 0.643-1.328 1.906-3.094 0.659-1.837-1.299-1.197-2.206-0.878-2.816 0.322-0.613 1.309-2.328 1.453-2.544 0.141-0.216-0.026-0.843-0.594-0.581-0.571 0.264-4.037 1.642-4.518 3.616-0.491 2.011 0.413 3.806-1.36 5.59l-2.147 2.24 2.157 2.509 2.646-2.514c0.632-0.634 1.978-1.25 3.197-0.973 2.613 0.592 4.037-0.39 4.898-2.011 0.771-1.451 0.643-4.504 0.523-5.294zM4.384 27.282c-0.333 0.336-0.333 0.88 0 1.214l1.522 1.488c0.333 0.334 0.861 0.194 1.194-0.141l7.851-7.72-2.406-2.741-8.16 7.899z"></path>
</symbol>
<symbol id="dashboard" viewBox="0 0 32 32">
<title>dashboard</title>
<path class="path1" d="M13.005 21.683c-1.104 1.914-0.362 3.488 1.17 4.371s3.267 0.742 4.371-1.171c1.104-1.912 8.075-18.986 7.469-19.336-0.605-0.35-11.906 14.222-13.010 16.136zM16 9.523c0.701 0 1.384 0.061 2.050 0.173 0.701-0.877 1.486-1.843 2.25-2.763-1.363-0.395-2.802-0.61-4.299-0.61-8.971 0-16 7.565-16 17.222 0 0.595 0.027 1.189 0.078 1.768 0.078 0.88 0.864 1.528 1.736 1.451 0.88-0.080 1.53-0.856 1.451-1.736-0.043-0.485-0.066-0.984-0.066-1.483 0-7.862 5.624-14.022 12.8-14.022zM27.55 11.522c-0.446 1.2-0.918 2.422-1.334 3.48 1.627 2.352 2.584 5.301 2.584 8.544 0 0.507-0.022 1.018-0.067 1.512-0.080 0.88 0.568 1.658 1.448 1.739 0.050 0.005 0.098 0.006 0.147 0.006 0.818 0 1.515-0.626 1.59-1.454 0.054-0.592 0.082-1.198 0.082-1.803 0-4.722-1.683-8.942-4.45-12.024z"></path>
</symbol>
<symbol id="folder" viewBox="0 0 32 32">
<title>folder</title>
<path class="path1" d="M30.512 10.8h-29.024c-1.472 0-1.547 0.717-1.466 1.594l1.32 14.413c0.080 0.877 0.288 1.594 1.758 1.594h25.8c1.501 0 1.678-0.717 1.758-1.594l1.32-14.413c0.078-0.877 0.006-1.594-1.467-1.594zM29.446 7.28c-0.176-0.704-1.048-1.28-1.934-1.28h-10.902c-0.888 0-2.126-0.507-2.755-1.13l-0.954-0.941c-0.627-0.622-1.867-1.13-2.754-1.13h-5.21c-0.886 0-1.693 0.715-1.79 1.59l-0.467 4.17h27.090l-0.323-1.28z"></path>
</symbol>
<symbol id="book" viewBox="0 0 32 32">
<title>book</title>
<path class="path1" d="M26.637 7.829l-14.397-7.422c-1.973-1.038-5.861 0.968-6.978 2.734-0.498 0.79-0.462 1.36-0.462 1.683l0.178 16.76c0.011 0.357 0.461 0.835 0.843 1.072 0.798 0.49 12.896 8.040 13.237 8.254 0.184 0.115 0.403 0.168 0.618 0.168 0.182 0 0.366-0.040 0.533-0.123 0.365-0.179 0.592-0.525 0.592-0.904v-17.602c0-0.366-0.214-0.704-0.563-0.888l-13.085-7.306c0.147-0.288 0.73-0.896 1.8-1.456 1.128-0.592 1.971-0.368 2.165-0.293 0 0 12.56 6.722 12.944 6.922 0.382 0.2 0.39 0.23 0.39 0.571 0 0.342 0 16.704 0 16.704 0 0.834 0.845 1.174 1.467 1.174 0.619 0 1.282-0.608 1.282-1.174v-17.987c0-0.366-0.216-0.706-0.563-0.888z"></path>
</symbol>
<symbol id="info" viewBox="0 0 32 32">
<title>info</title>
<path class="path1" d="M15.803 0.882c-8.128 0.109-14.63 6.787-14.522 14.917 0.109 8.125 6.787 14.629 14.915 14.52s14.63-6.787 14.522-14.917c-0.107-8.126-6.787-14.629-14.915-14.52zM17.435 5.787c1.496 0 1.938 0.867 1.938 1.861 0 1.24-0.994 2.387-2.688 2.387-1.418 0-2.091-0.714-2.051-1.891 0-0.994 0.832-2.357 2.802-2.357zM13.598 24.8c-1.022 0-1.771-0.621-1.056-3.35l1.173-4.838c0.203-0.776 0.237-1.086 0-1.086-0.306 0-1.634 0.536-2.419 1.064l-0.51-0.837c2.488-2.077 5.349-3.296 6.574-3.296 1.022 0 1.192 1.21 0.682 3.070l-1.344 5.088c-0.237 0.899-0.134 1.21 0.102 1.21 0.306 0 1.312-0.371 2.301-1.149l0.578 0.776c-2.418 2.418-5.056 3.349-6.080 3.349z"></path>
</symbol>
<symbol id="question" viewBox="0 0 32 32">
<title>question</title>
<path class="path1" d="M15.805 0.882c-8.13 0.109-14.632 6.787-14.523 14.917 0.109 8.125 6.787 14.629 14.917 14.52 8.126-0.109 14.63-6.787 14.52-14.917-0.107-8.126-6.786-14.629-14.914-14.52zM15.762 24.56h-0.082c-1.251-0.037-2.134-0.96-2.099-2.194 0.035-1.211 0.939-2.093 2.15-2.093l0.074 0.002c1.286 0.038 2.16 0.952 2.122 2.221-0.035 1.214-0.926 2.064-2.165 2.064zM21.027 14.109c-0.296 0.418-0.942 0.938-1.758 1.573l-0.899 0.621c-0.493 0.384-0.79 0.744-0.901 1.098-0.090 0.282-0.131 0.354-0.139 0.922l-0.002 0.146h-3.429l0.010-0.291c0.042-1.194 0.072-1.894 0.566-2.475 0.776-0.91 2.488-2.013 2.56-2.059 0.245-0.186 0.451-0.395 0.606-0.619 0.36-0.496 0.518-0.888 0.518-1.27 0-0.533-0.158-1.026-0.47-1.464-0.301-0.424-0.872-0.638-1.698-0.638-0.819 0-1.379 0.261-1.715 0.794-0.347 0.549-0.52 1.123-0.52 1.712v0.147h-3.536l0.006-0.154c0.091-2.166 0.864-3.725 2.298-4.635 0.899-0.581 2.019-0.874 3.325-0.874 1.71 0 3.157 0.416 4.293 1.235 1.152 0.83 1.736 2.075 1.736 3.698 0 0.909-0.286 1.762-0.851 2.536z"></path>
</symbol>
<symbol id="logout" viewBox="0 0 32 32">
<title>logout</title>
<path class="path1" d="M17.634 26.8h-12.866v-22.4h12.864v4.8h3.168v-4.8c0-1.76-1.438-3.2-3.2-3.2h-12.8c-1.76 0-3.2 1.44-3.2 3.2v22.4c0 1.76 1.44 3.2 3.2 3.2h12.8c1.762 0 3.2-1.44 3.2-3.2v-3.2h-3.166v3.2zM30.4 16.4l-6.366-6.24v3.84h-14.4v4.8h14.4v3.84l6.366-6.24z"></path>
</symbol>
<symbol id="archive" viewBox="0 0 32 32">
<title>archive</title>
<path class="path1" d="M29.44 2.8h-26.88c-0.53 0-0.96 0.43-0.96 0.96v3.84h28.8v-3.84c0-0.53-0.43-0.96-0.96-0.96zM3.2 26.16c0 1.232 1.008 2.24 2.24 2.24h21.12c1.234 0 2.24-1.008 2.24-2.24v-16.96h-25.6v16.96zM11.2 12.4h9.6v3.2h-9.6v-3.2z"></path>
</symbol>
<symbol id="attachment" viewBox="0 0 32 32">
<title>attachment</title>
<path class="path1" d="M7.938 31.6c-2.138 0-4.139-0.906-5.586-2.354-2.8-2.8-3.582-7.69 0.344-11.616 2.302-2.299 11.518-11.515 16.118-16.115 1.634-1.634 3.71-2.264 5.701-1.73 1.954 0.522 3.557 2.123 4.080 4.078 0.533 1.99-0.099 4.069-1.731 5.701l-15.411 15.413c-0.88 0.88-1.874 1.402-2.874 1.506-0.989 0.104-1.933-0.214-2.595-0.875-1.2-1.198-1.37-3.454 0.624-5.446l10.824-10.827c0.445-0.443 1.166-0.443 1.611 0 0.445 0.445 0.445 1.166 0 1.611l-10.826 10.826c-0.936 0.936-1.022 1.83-0.624 2.229 0.174 0.173 0.44 0.253 0.746 0.221 0.469-0.050 1.003-0.354 1.502-0.853l15.411-15.411c1.058-1.058 1.462-2.301 1.141-3.502-0.317-1.182-1.286-2.152-2.469-2.469-1.202-0.322-2.445 0.085-3.502 1.141-4.598 4.6-13.814 13.816-16.115 16.115-3.002 3.002-2.283 6.456-0.346 8.395 1.939 1.938 5.394 2.658 8.397-0.346l16.117-16.115c0.443-0.445 1.166-0.445 1.61 0 0.445 0.445 0.445 1.166 0 1.61l-16.117 16.117c-1.899 1.901-4.024 2.698-6.030 2.698z"></path>
</symbol>
<symbol id="cogs" viewBox="0 0 34 32">
<title>cogs</title>
<path class="path1" d="M16 16.286q0-1.893-1.339-3.232t-3.232-1.339-3.232 1.339-1.339 3.232 1.339 3.232 3.232 1.339 3.232-1.339 1.339-3.232zM29.714 25.429q0-0.929-0.679-1.607t-1.607-0.679-1.607 0.679-0.679 1.607q0 0.946 0.67 1.616t1.616 0.67 1.616-0.67 0.67-1.616zM29.714 7.143q0-0.929-0.679-1.607t-1.607-0.679-1.607 0.679-0.679 1.607q0 0.946 0.67 1.616t1.616 0.67 1.616-0.67 0.67-1.616zM22.857 14.661v3.304q0 0.179-0.125 0.348t-0.286 0.188l-2.768 0.429q-0.196 0.625-0.571 1.357 0.607 0.857 1.607 2.054 0.125 0.179 0.125 0.357 0 0.214-0.125 0.339-0.411 0.536-1.473 1.598t-1.402 1.063q-0.196 0-0.375-0.125l-2.054-1.607q-0.661 0.339-1.375 0.554-0.196 1.929-0.411 2.768-0.125 0.429-0.536 0.429h-3.321q-0.196 0-0.357-0.134t-0.179-0.313l-0.411-2.732q-0.607-0.179-1.339-0.554l-2.107 1.589q-0.125 0.125-0.357 0.125-0.196 0-0.375-0.143-2.571-2.375-2.571-2.857 0-0.161 0.125-0.339 0.179-0.25 0.732-0.946t0.839-1.089q-0.411-0.786-0.625-1.464l-2.714-0.429q-0.179-0.018-0.304-0.17t-0.125-0.348v-3.304q0-0.179 0.125-0.348t0.286-0.188l2.768-0.429q0.196-0.625 0.571-1.357-0.607-0.857-1.607-2.054-0.125-0.196-0.125-0.357 0-0.214 0.125-0.357 0.393-0.536 1.464-1.589t1.411-1.054q0.196 0 0.375 0.125l2.054 1.607q0.607-0.321 1.375-0.571 0.196-1.929 0.411-2.75 0.125-0.429 0.536-0.429h3.321q0.196 0 0.357 0.134t0.179 0.313l0.411 2.732q0.607 0.179 1.339 0.554l2.107-1.589q0.143-0.125 0.357-0.125 0.196 0 0.375 0.143 2.571 2.375 2.571 2.857 0 0.161-0.125 0.339-0.214 0.286-0.75 0.964t-0.804 1.071q0.411 0.857 0.607 1.464l2.714 0.411q0.179 0.036 0.304 0.188t0.125 0.348zM34.286 24.179v2.5q0 0.286-2.661 0.554-0.214 0.482-0.536 0.929 0.911 2.018 0.911 2.464 0 0.071-0.071 0.125-2.179 1.268-2.214 1.268-0.143 0-0.821-0.839t-0.929-1.214q-0.357 0.036-0.536 0.036t-0.536-0.036q-0.25 0.375-0.929 1.214t-0.821 0.839q-0.036 0-2.214-1.268-0.071-0.054-0.071-0.125 0-0.446 0.911-2.464-0.321-0.446-0.536-0.929-2.661-0.268-2.661-0.554v-2.5q0-0.286 2.661-0.554 0.232-0.518 0.536-0.929-0.911-2.018-0.911-2.464 0-0.071 0.071-0.125 0.071-0.036 0.625-0.357t1.054-0.607 0.536-0.286q0.143 0 0.821 0.83t0.929 1.205q0.357-0.036 0.536-0.036t0.536 0.036q0.911-1.268 1.643-2l0.107-0.036q0.071 0 2.214 1.25 0.071 0.054 0.071 0.125 0 0.446-0.911 2.464 0.304 0.411 0.536 0.929 2.661 0.268 2.661 0.554zM34.286 5.893v2.5q0 0.286-2.661 0.554-0.214 0.482-0.536 0.929 0.911 2.018 0.911 2.464 0 0.071-0.071 0.125-2.179 1.268-2.214 1.268-0.143 0-0.821-0.839t-0.929-1.214q-0.357 0.036-0.536 0.036t-0.536-0.036q-0.25 0.375-0.929 1.214t-0.821 0.839q-0.036 0-2.214-1.268-0.071-0.054-0.071-0.125 0-0.446 0.911-2.464-0.321-0.446-0.536-0.929-2.661-0.268-2.661-0.554v-2.5q0-0.286 2.661-0.554 0.232-0.518 0.536-0.929-0.911-2.018-0.911-2.464 0-0.071 0.071-0.125 0.071-0.036 0.625-0.357t1.054-0.607 0.536-0.286q0.143 0 0.821 0.83t0.929 1.205q0.357-0.036 0.536-0.036t0.536 0.036q0.911-1.268 1.643-2l0.107-0.036q0.071 0 2.214 1.25 0.071 0.054 0.071 0.125 0 0.446-0.911 2.464 0.304 0.411 0.536 0.929 2.661 0.268 2.661 0.554z"></path>
</symbol>
<symbol id="list" viewBox="0 0 32 32">
<title>list</title>
<path class="path1" d="M11.557 16.992h8.96v-2.88h-8.96v2.88zM24 1.2h-16c-1.76 0-3.2 1.44-3.2 3.2v22.4c0 1.76 1.44 3.2 3.2 3.2h16c1.76 0 3.2-1.44 3.2-3.2v-22.4c0-1.76-1.44-3.2-3.2-3.2zM24 26.8h-16v-22.4h16v22.4zM20.48 7.87h-8.96v2.8h8.96v-2.8zM20.48 20.432h-8.96v2.8h8.96v-2.8z"></path>
</symbol>
<symbol id="upload2" viewBox="0 0 32 32">
<title>upload2</title>
<path class="path1" d="M16 2.803l-8.32 7.808h5.28v8.192h6.080v-8.192h5.282l-8.322-7.808zM30.944 21.27l-5.094-3.427h-3.141l5.44 4.173h-5.672c-0.163 0-0.309 0.083-0.384 0.213l-1.306 3.576h-9.574l-1.307-3.576c-0.072-0.13-0.221-0.213-0.384-0.213h-5.67l5.442-4.173h-3.142l-5.093 3.427c-0.758 0.453-1.211 1.498-1.008 2.318l0.898 4.918c0.203 0.822 1.106 1.496 2.002 1.496h26.101c0.899 0 1.8-0.674 2.003-1.496l0.898-4.918c0.206-0.822-0.248-1.866-1.006-2.318z"></path>
</symbol>
<symbol id="exit" viewBox="0 0 32 32">
<title>exit</title>
<path class="path1" d="M25.143 16.857v5.714q0 2.125-1.509 3.634t-3.634 1.509h-14.857q-2.125 0-3.634-1.509t-1.509-3.634v-14.857q0-2.125 1.509-3.634t3.634-1.509h12.571q0.25 0 0.411 0.161t0.161 0.411v1.143q0 0.25-0.161 0.411t-0.411 0.161h-12.571q-1.179 0-2.018 0.839t-0.839 2.018v14.857q0 1.179 0.839 2.018t2.018 0.839h14.857q1.179 0 2.018-0.839t0.839-2.018v-5.714q0-0.25 0.161-0.411t0.411-0.161h1.143q0.25 0 0.411 0.161t0.161 0.411zM32 1.429v9.143q0 0.464-0.339 0.804t-0.804 0.339-0.804-0.339l-3.143-3.143-11.643 11.643q-0.179 0.179-0.411 0.179t-0.411-0.179l-2.036-2.036q-0.179-0.179-0.179-0.411t0.179-0.411l11.643-11.643-3.143-3.143q-0.339-0.339-0.339-0.804t0.339-0.804 0.804-0.339h9.143q0.464 0 0.804 0.339t0.339 0.804z"></path>
</symbol>
<symbol id="ellipsis" viewBox="0 0 32 32">
<title>ellipsis</title>
<path class="path1" d="M4.8 12.080c-1.944 0-3.52 1.576-3.52 3.52s1.576 3.52 3.52 3.52 3.52-1.576 3.52-3.52c0-1.944-1.576-3.52-3.52-3.52zM16 12.080c-1.944 0-3.52 1.576-3.52 3.52s1.576 3.52 3.52 3.52 3.518-1.576 3.518-3.52c0-1.944-1.574-3.52-3.518-3.52zM27.2 12.080c-1.944 0-3.52 1.576-3.52 3.52s1.576 3.52 3.52 3.52 3.52-1.576 3.52-3.52c0-1.944-1.576-3.52-3.52-3.52z"></path>
</symbol>
<symbol id="lock" viewBox="0 0 21 32">
<title>lock</title>
<path class="path1" d="M5.714 14h9.143v-3.429q0-1.893-1.339-3.232t-3.232-1.339-3.232 1.339-1.339 3.232v3.429zM20.571 15.714v10.286q0 0.714-0.5 1.214t-1.214 0.5h-17.143q-0.714 0-1.214-0.5t-0.5-1.214v-10.286q0-0.714 0.5-1.214t1.214-0.5h0.571v-3.429q0-3.286 2.357-5.643t5.643-2.357 5.643 2.357 2.357 5.643v3.429h0.571q0.714 0 1.214 0.5t0.5 1.214z"></path>
</symbol>
<symbol id="unlock" viewBox="0 0 30 32">
<title>unlock</title>
<path class="path1" d="M29.714 10.571v4.571q0 0.464-0.339 0.804t-0.804 0.339h-1.143q-0.464 0-0.804-0.339t-0.339-0.804v-4.571q0-1.893-1.339-3.232t-3.232-1.339-3.232 1.339-1.339 3.232v3.429h1.714q0.714 0 1.214 0.5t0.5 1.214v10.286q0 0.714-0.5 1.214t-1.214 0.5h-17.143q-0.714 0-1.214-0.5t-0.5-1.214v-10.286q0-0.714 0.5-1.214t1.214-0.5h12v-3.429q0-3.304 2.348-5.652t5.652-2.348 5.652 2.348 2.348 5.652z"></path>
</symbol>
<symbol id="download" viewBox="0 0 32 32">
<title>download</title>
<path class="path1" d="M30.944 21.27l-5.094-3.427h-3.141l5.44 4.173h-5.672c-0.163 0-0.309 0.083-0.384 0.213l-1.306 3.576h-9.574l-1.307-3.576c-0.072-0.13-0.221-0.213-0.384-0.213h-5.67l5.442-4.173h-3.142l-5.093 3.427c-0.758 0.453-1.211 1.498-1.008 2.318l0.898 4.918c0.203 0.822 1.106 1.496 2.002 1.496h26.101c0.899 0 1.8-0.674 2.003-1.496l0.898-4.918c0.206-0.822-0.248-1.866-1.006-2.318zM24.322 10.995h-5.282v-8.192h-6.080v8.192h-5.28l8.32 7.808 8.322-7.808z"></path>
</symbol>
<symbol id="filter" viewBox="0 0 25 32">
<title>filter</title>
<path class="path1" d="M25.054 5.554q0.304 0.732-0.25 1.25l-8.804 8.804v13.25q0 0.75-0.696 1.054-0.232 0.089-0.446 0.089-0.482 0-0.804-0.339l-4.571-4.571q-0.339-0.339-0.339-0.804v-8.679l-8.804-8.804q-0.554-0.518-0.25-1.25 0.304-0.696 1.054-0.696h22.857q0.75 0 1.054 0.696z"></path>
</symbol>
<symbol id="location" viewBox="0 0 32 32">
<title>location</title>
<path class="path1" d="M16 2.8c-4.419 0-8 3.582-8 8 0 7.638 8 17.6 8 17.6s8-9.962 8-17.6c0-4.418-3.581-8-8-8zM16 15.216c-2.386 0-4.32-1.934-4.32-4.32s1.934-4.32 4.32-4.32 4.32 1.934 4.32 4.32-1.934 4.32-4.32 4.32z"></path>
</symbol>
<symbol id="trash" viewBox="0 0 32 32">
<title>trash</title>
<path class="path1" d="M5.422 12.259l1.763 15.534c0.094 0.738 3.656 3.163 8.814 3.166 5.158-0.003 8.722-2.429 8.816-3.166l1.763-15.534c-2.694 1.507-6.722 2.221-10.579 2.221s-7.885-0.714-10.578-2.221zM21.067 2.659l-1.374-1.525c-0.53-0.754-1.106-0.894-2.227-0.894h-2.931c-1.12 0-1.696 0.141-2.227 0.894l-1.373 1.525c-4.112 0.718-7.094 2.624-7.094 4.029v0.274c0 2.474 5.443 4.48 12.16 4.48s12.16-2.006 12.16-4.48v-0.274c0-1.405-2.981-3.31-7.093-4.029zM19.31 6.222l-2.003-2.142h-2.614l-2.003 2.142h-2.72c0 0 2.979-3.552 3.378-4.034 0.304-0.368 0.616-0.509 1.019-0.509h3.269c0.403 0 0.714 0.141 1.019 0.509 0.397 0.482 3.378 4.034 3.378 4.034h-2.722z"></path>
</symbol>
<symbol id="dot" viewBox="0 0 32 32">
<title>dot</title>
<path class="path1" d="M16 4.4c-6.186 0-11.2 5.014-11.2 11.2s5.014 11.2 11.2 11.2c6.184 0 11.2-5.014 11.2-11.2s-5.016-11.2-11.2-11.2z"></path>
</symbol>
</defs>
</svg>
